<svg width="42" height="42" viewBox="0 0 42 42" fill="none" xmlns="http://www.w3.org/2000/svg">
    <circle cx="21" cy="21" r="21" fill="#5E97FF"/>
    <path fill="#fff" fill-rule="evenodd" clip-rule="evenodd" d="M30.8562 11.5562C29.9626 12.3654 29.5117 12.5063 28.3442 12.3403C27.8408 12.2687 27.2273 12.2427 26.9808 12.2824C26.4559 12.3669 25.5848 12.8362 25.0038 13.3475C24.7781 13.5461 24.5681 13.7087 24.5372 13.7087C24.5063 13.7087 24.2751 13.5399 24.0234 13.3336C22.9778 12.4765 21.9308 12.1188 20.4789 12.1228C19.0156 12.1268 17.8941 12.5168 16.703 13.4356C16.373 13.69 14.9959 15.0983 13.6426 16.5651C11.2258 19.1844 11.1739 19.2498 10.7333 20.2314C9.77029 22.3769 9.75588 24.3914 10.6895 26.3859C11.1345 27.3367 12.561 28.8207 13.507 29.3171C15.3103 30.2633 17.1273 30.2267 19.0911 29.2046C20.0151 28.7238 20.0413 28.6993 22.7171 25.8172C25.5654 22.7494 25.8493 22.3654 26.3144 20.9505C26.652 19.9236 26.7353 18.186 26.4951 17.1785C26.2838 16.2926 25.9677 15.5658 25.5231 14.9439C25.3262 14.6686 25.1652 14.4032 25.1652 14.3542C25.1652 14.189 26.3536 13.3683 26.8144 13.2154C27.1989 13.0876 27.4358 13.084 28.3058 13.1919C29.2418 13.3079 29.3943 13.3018 29.9107 13.1274C30.4781 12.9358 31.3663 12.3076 31.8186 11.7784C32.0226 11.5396 32.0398 11.465 31.9432 11.2374C31.7804 10.8536 31.5607 10.9181 30.8562 11.5562ZM22.3357 13.2754C22.6386 13.4006 23.1394 13.6977 23.4487 13.9356L24.0111 14.368L23.0829 15.3648C22.2545 16.2543 22.133 16.349 21.9519 16.245C21.6996 16.1 20.9529 16.0935 20.6105 16.2333C20.4693 16.2909 20.1117 16.5839 19.8158 16.8844L19.2779 17.4307L17.955 16.0168L16.6321 14.6029L16.9817 14.2745C17.4087 13.8733 18.382 13.3486 19.0982 13.1333C19.8796 12.8985 21.6076 12.9743 22.3357 13.2754ZM25.3566 16.2892C25.7316 17.116 25.8456 17.6769 25.8486 18.7101C25.8524 20.0904 25.3695 21.5991 24.6353 22.5003L24.3324 22.8722L23.0158 21.4515L21.6992 20.0309L22.2079 19.4532C22.4877 19.1355 22.7605 18.7515 22.8142 18.5998C22.9443 18.2326 22.9384 17.4303 22.8038 17.1601C22.7075 16.9671 22.7963 16.8346 23.6121 15.9546L24.5284 14.9659L24.7987 15.3104C24.9473 15.4999 25.1984 15.9404 25.3566 16.2892ZM18.5124 18.2811C17.7237 19.21 17.9036 20.5874 18.8861 21.1441C19.1236 21.2786 19.4667 21.3887 19.6485 21.3887C20.0411 21.3887 20.6256 21.143 20.9059 20.8602C21.1063 20.6581 21.1113 20.6621 22.4548 22.1076L23.8026 23.5578L21.7626 25.7083C19.5909 27.9978 19.0003 28.4706 17.8176 28.8667C15.814 29.5375 13.9474 29.0288 12.4296 27.3981C10.888 25.742 10.4232 23.7692 11.0577 21.5752C11.4202 20.3218 11.8656 19.6818 13.9918 17.3607L15.9952 15.1736L17.3448 16.6201C18.6795 18.0506 18.6924 18.069 18.5124 18.2811ZM21.8876 17.2283C22.0574 17.4105 22.1282 17.6024 22.1282 17.8806C22.1282 18.2413 22.0389 18.3704 21.0701 19.4108C20.1552 20.3933 19.9686 20.547 19.691 20.547C19.2506 20.547 18.7972 20.0601 18.7972 19.5872C18.7972 19.2891 18.9404 19.0888 19.8553 18.1063C20.8241 17.0659 20.9443 16.97 21.2802 16.97C21.5393 16.97 21.718 17.046 21.8876 17.2283Z" stroke="#fff" stroke-width="0.3"/>
</svg>
