<svg width="42" height="42" viewBox="0 0 42 42" fill="none" xmlns="http://www.w3.org/2000/svg">
    <circle cx="21" cy="21" r="21" fill="#5E97FF"/>
    <path fill-rule="evenodd" clip-rule="evenodd" d="M18.9157 10.1085C18.2893 10.3583 18.1277 10.6719 17.8946 12.0898L17.7768 12.8055L16.9928 13.1365L16.2086 13.4675L15.3899 12.9109C14.4446 12.2682 14.1619 12.1768 13.6465 12.3469C13.2436 12.48 12.0102 13.5802 11.5393 14.2268C11.0788 14.8591 11.1264 15.4218 11.7102 16.245C12.4447 17.2806 12.4407 17.2652 12.1464 17.941C12.0048 18.2658 11.8638 18.606 11.833 18.6969C11.7928 18.8152 11.499 18.9123 10.7996 19.0382C9.2069 19.3251 9 19.6136 9 21.5479C9 23.4784 9.21559 23.7712 10.8456 24.0541C11.3754 24.146 11.8107 24.2294 11.813 24.2394C11.8152 24.2494 11.9657 24.6007 12.1473 25.0201L12.4775 25.7826L11.9154 26.6049C11.0145 27.9231 11.0461 28.2137 12.2239 29.4393C13.3679 30.63 13.541 30.7505 14.1075 30.7505C14.5985 30.7505 14.9846 30.5506 15.9885 29.7768L16.2815 29.5509L17.0107 29.8695C17.4119 30.0448 17.7668 30.2244 17.7996 30.2688C17.8323 30.3131 17.9166 30.7272 17.987 31.189C18.2267 32.7649 18.5531 33 20.5015 33C22.4512 33 22.74 32.7811 23.0336 31.0803C23.1139 30.6151 23.1977 30.2227 23.2198 30.2084C23.2419 30.1939 23.5963 30.0366 24.0073 29.8586L24.7547 29.5348L25.527 30.0891C26.3414 30.6736 26.8165 30.8339 27.2969 30.6865C27.6223 30.5867 29.1333 29.1786 29.5086 28.6253C29.771 28.2386 29.8235 27.7061 29.6348 27.3439C29.5708 27.2211 29.2976 26.8146 29.0277 26.4405L28.5369 25.7606L28.8848 24.96L29.2326 24.1596L30.1892 23.9908C31.3204 23.7911 31.5306 23.6782 31.7984 23.1261C31.9655 22.7814 32 22.4959 32 21.4544C32 19.5547 31.756 19.2215 30.1895 18.9831C29.7278 18.9127 29.3138 18.8284 29.2693 18.7957C29.1166 18.6829 28.5389 17.1543 28.6281 17.0991C28.6773 17.0688 28.95 16.6961 29.2343 16.271C30.0496 15.0516 29.956 14.6193 28.5861 13.2819C27.7143 12.4308 27.4054 12.2431 26.8755 12.2431C26.5054 12.2431 26.3235 12.3361 25.4476 12.9734L24.771 13.4655L24.2549 13.2166C23.9712 13.0797 23.6192 12.9375 23.4729 12.9007C23.3266 12.864 23.1876 12.8027 23.164 12.7644C23.1404 12.7262 23.0491 12.2827 22.9613 11.7788C22.689 10.218 22.3682 9.99077 20.4489 10.0003C19.7461 10.0038 19.0561 10.0524 18.9157 10.1085ZM21.7911 12.4119C21.8862 12.9826 22.0127 13.5404 22.072 13.6514C22.1367 13.7724 22.3758 13.902 22.6688 13.9751C22.9378 14.042 23.4876 14.255 23.8909 14.4482C24.2941 14.6413 24.7259 14.7994 24.8504 14.7994C24.9748 14.7994 25.4499 14.5327 25.9061 14.2069C26.3623 13.881 26.7849 13.5843 26.8452 13.5473C26.9057 13.5105 27.3095 13.8371 27.7428 14.2731L28.5306 15.0658L27.8631 15.9991C27.496 16.5125 27.1962 17.0392 27.1969 17.1697C27.1976 17.3 27.3369 17.6806 27.5066 18.0154C27.6763 18.3501 27.8849 18.8639 27.9701 19.1571C28.0553 19.4504 28.1977 19.7517 28.2865 19.8267C28.3752 19.9017 28.9595 20.0551 29.585 20.1676L30.7222 20.3721V21.4968V22.6216L29.585 22.8261C28.9595 22.9385 28.3778 23.0898 28.2922 23.1622C28.2066 23.2346 28.0593 23.5336 27.965 23.8268C27.8705 24.12 27.6588 24.6317 27.4945 24.9641C27.3301 25.2964 27.1956 25.6787 27.1956 25.8134C27.1956 25.9503 27.4882 26.4723 27.8593 26.997L28.5229 27.9356L27.739 28.7244C27.3078 29.1582 26.9057 29.4833 26.8452 29.4468C26.7849 29.4102 26.3593 29.1135 25.8993 28.7873C25.4393 28.4611 24.9563 28.1948 24.8259 28.1956C24.6956 28.1963 24.3151 28.3356 23.9805 28.5054C23.6459 28.6751 23.1322 28.8838 22.839 28.969C22.5459 29.0543 22.2446 29.1967 22.1697 29.2854C22.0947 29.3742 21.9413 29.9587 21.8289 30.5843L21.6244 31.7219H20.5H19.3756L19.1711 30.5843C19.0587 29.9587 18.9053 29.3742 18.8303 29.2854C18.7554 29.1967 18.4541 29.0543 18.161 28.969C17.8678 28.8838 17.3541 28.6751 17.0195 28.5054C16.6849 28.3356 16.3274 28.1963 16.2252 28.1956C16.1229 28.1948 15.6629 28.4611 15.2029 28.7873C14.7429 29.1135 14.3044 29.4182 14.2284 29.4644C14.1319 29.5232 13.8617 29.3216 13.3339 28.7973C12.9181 28.384 12.5778 28.0071 12.5778 27.9597C12.5778 27.9121 12.8768 27.4553 13.2422 26.9442C13.6077 26.4333 13.9067 25.9458 13.9067 25.8611C13.9067 25.7764 13.7969 25.5189 13.6628 25.2891C13.5285 25.0592 13.2929 24.5155 13.1392 24.0808C12.9853 23.6461 12.8011 23.2421 12.7299 23.1829C12.6586 23.1238 12.1928 23.0071 11.6946 22.9234C10.1613 22.6663 10.3289 22.835 10.3289 21.5479C10.3289 20.2605 10.1597 20.4299 11.7037 20.1708C12.2068 20.0864 12.6728 19.9591 12.7394 19.8879C12.8059 19.8167 12.9412 19.5055 13.0399 19.1962C13.1388 18.8869 13.3512 18.3705 13.512 18.0488C13.6729 17.727 13.8044 17.3655 13.8044 17.2454C13.8044 17.1253 13.4998 16.59 13.1276 16.056L12.4507 15.0849L13.2016 14.3286C13.6147 13.9127 13.9946 13.5724 14.0458 13.5724C14.097 13.5724 14.5179 13.8436 14.981 14.175C16.0644 14.95 16.1609 14.9776 16.6954 14.6656C16.9325 14.527 17.4869 14.2861 17.9272 14.1302C18.4106 13.959 18.78 13.7621 18.86 13.6329C18.9329 13.5152 19.0478 13.0509 19.1154 12.601C19.3302 11.1724 19.178 11.3121 20.4831 11.3452L21.6181 11.374L21.7911 12.4119ZM19.2139 16.7251C16.7174 17.377 15.1266 19.9533 15.6552 22.4887C16.0493 24.3794 17.6183 25.9487 19.5083 26.343C22.1417 26.8923 24.7916 25.1423 25.3448 22.4887C25.9766 19.4584 23.6038 16.5494 20.5 16.5494C20.1627 16.5494 19.5839 16.6285 19.2139 16.7251ZM21.8506 18.088C22.2797 18.2484 22.6131 18.4801 23.0646 18.9316C23.8478 19.7151 24.1289 20.3926 24.1289 21.4968C24.1289 22.601 23.8478 23.2785 23.0646 24.0621C22.2812 24.8455 21.6039 25.1267 20.5 25.1267C19.3961 25.1267 18.7188 24.8455 17.9354 24.0621C17.1522 23.2785 16.8711 22.601 16.8711 21.4968C16.8711 20.3926 17.1522 19.7151 17.9354 18.9315C18.7229 18.1436 19.3544 17.8798 20.4706 17.8722C21.0386 17.8685 21.4244 17.9288 21.8506 18.088Z" fill="white"/>
</svg>
