<svg width="42" height="42" viewBox="0 0 42 42" fill="none" xmlns="http://www.w3.org/2000/svg">
<circle cx="21" cy="21" r="21" fill="white"/>
<path fill-rule="evenodd" clip-rule="evenodd" d="M20.7749 10.0268C20.5701 10.094 20.4444 10.1862 20.3177 10.3621C20.2159 10.5033 20.1835 10.6165 20.1642 10.8987L20.149 11.1206L19.8486 11.1635C18.4567 11.3624 17.1273 11.9408 15.9936 12.8406C15.6397 13.1214 15.076 13.681 14.7953 14.03C13.767 15.3089 13.1853 16.7674 13.0531 18.3989C13.0367 18.6005 13.0271 20.0822 13.027 22.3978L13.0268 26.0765L12.0602 27.1942C11.5285 27.8089 11.0726 28.3566 11.047 28.4112C11.0215 28.4659 11.0003 28.5417 11 28.5797C10.9988 28.7307 11.1301 28.9113 11.2827 28.9685C11.332 28.987 14.2476 28.9949 21.009 28.9949H30.6648L30.7763 28.9391C30.933 28.8605 31.0011 28.7498 31 28.5752C30.9995 28.4987 30.9854 28.4122 30.9687 28.383C30.952 28.3538 30.5018 27.8245 29.9682 27.2068L28.9982 26.0837L28.998 22.5903C28.9978 19.1101 28.985 18.431 28.9093 17.8889C28.7949 17.0692 28.5562 16.302 28.1724 15.5203C27.0217 13.1769 24.7475 11.5305 22.1517 11.1614C21.804 11.112 21.8388 11.1423 21.8388 10.8884C21.8388 10.5056 21.6815 10.2326 21.3752 10.0838C21.2043 10.0007 20.9327 9.97493 20.7749 10.0268ZM21.9389 12.3902C22.7507 12.515 23.4004 12.7222 24.0917 13.0768C24.4956 13.2839 24.9672 13.5928 25.2933 13.8638C25.5812 14.103 26.0519 14.5785 26.2693 14.8497C26.8676 15.596 27.3798 16.6626 27.5695 17.557C27.713 18.2335 27.7041 17.9505 27.7148 22.1769L27.7246 26.0765L28.3449 26.8961L28.9651 27.7158L24.9889 27.7221C22.802 27.7255 19.2208 27.7255 17.0308 27.7221L13.0489 27.7158L13.6638 26.9026L14.2788 26.0894L14.2789 22.5435C14.279 18.9938 14.2895 18.4584 14.3692 17.9544C14.7052 15.8301 16.0891 13.9706 18.0463 13.0135C18.7725 12.6584 19.5129 12.4486 20.3743 12.3539C20.6761 12.3207 21.6313 12.3429 21.9389 12.3902ZM16.7922 30.1252C16.8556 30.8191 17.2495 31.4643 17.9036 31.9456C18.5291 32.4057 19.2927 32.6932 20.2367 32.8239C20.5918 32.8731 21.5054 32.8665 21.8638 32.8121C22.9405 32.6489 23.7995 32.2715 24.4094 31.6937C24.7659 31.356 24.9836 31.0343 25.1182 30.6467C25.1727 30.4896 25.2433 30.1306 25.2433 30.0101V29.9388H24.6049H23.9666V30.0213C23.9666 30.2281 23.8186 30.5105 23.5925 30.7353C23.1078 31.2171 22.3222 31.5216 21.3534 31.6031C21.0098 31.632 20.7039 31.6202 20.3002 31.5625C19.1196 31.3936 18.1886 30.7859 18.061 30.1007C18.046 30.0203 18.0337 29.951 18.0337 29.9466C18.0337 29.9423 17.7506 29.9388 17.4045 29.9388H16.7752L16.7922 30.1252Z" fill="black" stroke="black" stroke-width="0.5"/>
</svg>
