<svg width="42" height="42" viewBox="0 0 42 42" fill="none" xmlns="http://www.w3.org/2000/svg">
<circle cx="21" cy="21" r="21" fill="white"/>
<path fill-rule="evenodd" clip-rule="evenodd" d="M20.7588 12.3739L18.3387 13.7779L15.9124 13.785C13.5304 13.792 13.4814 13.793 13.223 13.839C12.4789 13.9714 12.0117 14.1736 11.6284 14.5293C11.3133 14.8216 11.1423 15.1203 11.04 15.5573C10.9966 15.7427 10.9963 15.8105 11.0035 22.5194C11.0102 28.7121 11.0139 29.3087 11.0469 29.4619C11.2167 30.2494 11.4861 30.7763 11.9495 31.2274C12.3309 31.5987 12.7932 31.8415 13.3436 31.9599C13.5233 31.9985 13.7674 32 20.0868 32H26.6436L26.8629 31.9398C27.1292 31.8667 27.4723 31.7097 27.7016 31.5558C27.7951 31.4931 27.9708 31.3451 28.0919 31.227C28.6184 30.7135 28.9482 30.0069 29.0439 29.187C29.0576 29.0694 29.0665 28.278 29.0666 27.166L29.0668 25.3382L29.5767 25.327C30.0151 25.3173 30.1069 25.3094 30.2324 25.2702C30.591 25.1582 30.867 24.8731 30.9647 24.5137C31.0128 24.3367 31.0113 21.7032 30.963 21.5217C30.9131 21.3342 30.8276 21.1938 30.6679 21.0374C30.3969 20.7717 30.2015 20.7164 29.5328 20.716L29.0668 20.7156L29.0666 19.8728C29.0664 18.7583 29.0341 18.5035 28.844 18.118C28.6863 17.7981 28.3306 17.5028 27.9649 17.3882L27.8826 17.3624L27.8825 16.2851C27.8823 15.2148 27.8687 14.9415 27.8033 14.6923C27.712 14.3448 27.4956 14.0738 27.1945 13.9304C26.9017 13.7908 26.7997 13.7797 25.8058 13.7795L24.9332 13.7794L24.0818 12.4072C23.6136 11.6525 23.2189 11.0204 23.2047 11.0024C23.1826 10.9745 22.8295 11.1725 20.7588 12.3739ZM24.5399 14.6394L26.1486 17.2262L25.7939 17.2321C25.5989 17.2354 25.428 17.2338 25.4143 17.2287C25.4006 17.2235 25.0311 16.6483 24.5932 15.9504C24.1553 15.2526 23.7888 14.6816 23.7789 14.6816C23.7689 14.6816 23.697 14.7198 23.6191 14.7665C23.2925 14.9622 23.1011 15.0347 22.817 15.0704C22.3321 15.1313 21.8228 14.9535 21.4671 14.5991C21.3916 14.5238 21.2688 14.3607 21.1826 14.2211L21.0309 13.9754L20.9645 14.0146C20.9281 14.0361 19.6535 14.7701 18.1323 15.6456L15.3663 17.2375L14.6618 17.2319L13.9573 17.2262L16.8685 15.5367C18.4698 14.6075 20.4805 13.4408 21.3368 12.944C22.1931 12.4472 22.9022 12.0434 22.9125 12.0467C22.9228 12.0499 23.6552 13.2166 24.5399 14.6394ZM16.982 14.5614C16.977 14.5662 16.0467 15.107 14.9147 15.7633L12.8565 16.9565L12.7875 16.9218C12.4346 16.7443 12.0481 16.361 11.8823 16.0243C11.7967 15.8505 11.7914 15.7714 11.8521 15.5788C12.0264 15.0263 12.6554 14.666 13.6017 14.5766C13.7897 14.5589 16.9999 14.5444 16.982 14.5614ZM26.8191 14.6172C26.9431 14.6779 27.0121 14.766 27.0509 14.9133C27.0861 15.0469 27.1075 17.2372 27.0733 17.2042C27.0484 17.1802 25.4266 14.576 25.4266 14.5601C25.4266 14.5547 25.7152 14.5533 26.068 14.5569C26.7019 14.5634 26.7107 14.5641 26.8191 14.6172ZM20.9377 15.1841C21.5796 15.7946 22.4762 16.0081 23.34 15.7562C23.4286 15.7304 23.5043 15.7124 23.5082 15.7163C23.5121 15.7201 23.7279 16.0615 23.9876 16.4748L24.4599 17.2262L22.5876 17.2317C21.5578 17.2347 19.8675 17.2347 18.8314 17.2317L16.9475 17.2262L18.8571 16.1262C19.9073 15.5212 20.7675 15.0259 20.7686 15.0257C20.7697 15.0254 20.8458 15.0967 20.9377 15.1841ZM12.3371 17.5686C12.6824 17.7693 13.0459 17.898 13.5081 17.983C13.6899 18.0164 14.2494 18.0203 20.5912 18.0313C26.9287 18.0424 27.4863 18.0462 27.5947 18.0791C27.9699 18.1929 28.1432 18.3672 28.2274 18.7155C28.255 18.8299 28.2638 19.0424 28.2714 19.7869L28.281 20.7156L26.5413 20.716C24.6238 20.7164 24.6241 20.7164 24.3681 20.8484C24.0887 20.9925 23.8623 21.2917 23.8042 21.5936C23.7906 21.6641 23.782 22.226 23.7822 23.0323C23.7825 24.1365 23.788 24.3782 23.8157 24.493C23.9038 24.8591 24.1906 25.1584 24.5713 25.2816C24.6832 25.3177 24.8225 25.3211 26.4856 25.3275L28.2793 25.3343L28.2713 27.2499C28.2636 29.0972 28.2617 29.1728 28.2175 29.3711C28.0096 30.3036 27.4522 30.9601 26.6831 31.1784L26.5121 31.227H20.0649H13.6177L13.4122 31.1762C12.5387 30.9607 11.9411 30.2103 11.8109 29.1655C11.7939 29.0294 11.7868 27.2267 11.7867 23.0731L11.7867 17.174L11.9705 17.3182C12.0716 17.3975 12.2366 17.5102 12.3371 17.5686ZM30.0685 21.5439C30.2112 21.6464 30.2071 21.6023 30.2071 23.0208C30.2071 24.4451 30.2109 24.4065 30.0647 24.4949C29.9934 24.5381 29.9715 24.5384 27.3715 24.5328L24.7503 24.5272L24.6909 24.4735C24.5695 24.3638 24.5713 24.3864 24.5713 23.0083C24.5713 21.5617 24.5632 21.6296 24.7483 21.5367L24.8452 21.488L27.4259 21.4937C29.997 21.4994 30.0068 21.4996 30.0685 21.5439ZM27.0211 21.8339C26.6115 21.9163 26.2302 22.2544 26.1043 22.6467C25.8518 23.4338 26.4416 24.2255 27.2796 24.2242C27.8779 24.2232 28.3671 23.8249 28.4896 23.2388C28.6075 22.6748 28.26 22.0851 27.6892 21.8808C27.5224 21.821 27.198 21.7983 27.0211 21.8339Z" fill="black" stroke="black" stroke-width="0.3"/>
</svg>
