<svg width="42" height="42" viewBox="0 0 42 42" fill="none" xmlns="http://www.w3.org/2000/svg">
    <circle cx="21" cy="21" r="21" fill="#5E97FF"/>
    <path fill-rule="evenodd" clip-rule="evenodd" d="M20.1048 10.0056C20.0567 10.0103 19.909 10.0248 19.7766 10.0379C19.2926 10.0855 18.6861 10.2348 18.212 10.4229C16.3674 11.1549 14.9801 12.7289 14.4908 14.6449C14.2806 15.4681 14.2397 16.3645 14.3744 17.1922C14.5778 18.4416 15.1512 19.5825 16.0334 20.4926C17.0013 21.4912 18.1882 22.1052 19.5578 22.3158C19.7743 22.3491 20.0279 22.364 20.6191 22.3783C21.4371 22.398 21.7273 22.4182 22.2268 22.49C26.0668 23.0419 29.3518 25.6998 30.1802 28.9251C30.2503 29.1984 30.3277 29.6283 30.3389 29.8074L30.3458 29.9168L20.7213 29.9223L11.0967 29.9278L11.1116 29.7801C11.1198 29.6988 11.1496 29.4935 11.1778 29.3238C11.3809 28.1024 11.9034 26.9722 12.7601 25.9014C12.9775 25.6297 13.6533 24.9536 13.9449 24.7161C14.4768 24.2829 15.1145 23.8633 15.653 23.5922C15.836 23.5 15.9466 23.4057 16.0044 23.2925C16.1805 22.9472 15.9496 22.5463 15.5569 22.5156C15.4267 22.5054 15.4128 22.5097 15.1594 22.6369C14.8188 22.8079 14.338 23.097 13.9668 23.354C11.917 24.7732 10.5551 26.7891 10.1391 29.0196C10.058 29.4548 10.0247 29.8211 10.0123 30.4146L10 31H20.7285H31.457L31.4449 30.4256C31.4318 29.8057 31.3996 29.4971 31.2955 28.9928C30.8319 26.7478 29.3158 24.6586 27.0945 23.2035C26.0061 22.4905 24.8559 21.9896 23.5089 21.6419L23.4336 21.6225L23.6862 21.4648C24.6602 20.8568 25.4348 20.0151 25.9465 19.0087C26.2509 18.41 26.4465 17.8009 26.5615 17.0937C26.6167 16.7539 26.6292 15.8577 26.5839 15.4853C26.4419 14.3193 26.0401 13.3296 25.3269 12.389C25.0853 12.0703 24.4948 11.488 24.1588 11.2371C23.2791 10.5801 22.3216 10.1903 21.2348 10.0467C20.987 10.014 20.2808 9.98825 20.1048 10.0056ZM21.1158 11.1204C22.4606 11.2947 23.7041 12.0212 24.5255 13.1125C25.0095 13.7557 25.3315 14.5038 25.4807 15.3322C25.5387 15.6546 25.5605 16.4135 25.5215 16.7527C25.254 19.0754 23.48 20.9152 21.1848 21.2503C19.0215 21.5661 16.8889 20.4427 15.9052 18.4691C15.6619 17.981 15.5044 17.4784 15.4194 16.9186C15.3644 16.5565 15.3638 15.8157 15.4182 15.4635C15.5046 14.9047 15.6567 14.4207 15.9032 13.9207C16.1757 13.3681 16.4819 12.9481 16.9262 12.5176C17.7275 11.7414 18.6948 11.2712 19.7985 11.1212C20.1049 11.0796 20.7974 11.0792 21.1158 11.1204Z" fill="white" stroke="white" stroke-width="0.3"/>
</svg>
