<svg width="42" height="42" viewBox="0 0 42 42" fill="none" xmlns="http://www.w3.org/2000/svg">
    <circle cx="21" cy="21" r="21" fill="#5E97FF"/>
    <path fill-rule="evenodd" clip-rule="evenodd" d="M17.2572 11.046C15.2276 11.4101 13.6254 12.8998 13.1655 14.8506C12.8944 16.0007 13.0119 17.0262 13.543 18.1455C13.8796 18.8546 14.6636 19.7847 15.2092 20.1219L15.5308 20.3207L15.0672 20.5355C13.7061 21.1661 12.4473 22.3996 11.7908 23.746C11.1269 25.1075 11.0629 25.4696 11.0172 28.1176C10.9809 30.2151 10.9928 30.4607 11.1444 30.7544C11.4936 31.4304 11.2304 31.4067 18.0855 31.3798C23.7118 31.3577 24.2244 31.3429 24.369 31.1983C24.5993 30.9679 24.5713 30.4843 24.3158 30.2773C24.1159 30.1155 23.8007 30.1067 18.1941 30.1067H12.2831L12.2845 28.1407C12.286 25.9261 12.3705 25.3869 12.8823 24.3227C13.2537 23.5504 14.0999 22.5907 14.8464 22.0953C15.1367 21.9026 15.7301 21.6191 16.1649 21.4653C16.8724 21.2153 17.0669 21.1863 18.0193 21.1892C18.9268 21.1919 19.1974 21.2301 19.8598 21.4481C20.6343 21.7032 20.6369 21.7034 20.8775 21.5246C21.3084 21.2043 21.1938 20.5946 20.6655 20.3973C20.5113 20.3398 20.5302 20.3068 20.8205 20.1274C21.3213 19.8179 22.1549 18.8691 22.464 18.2568C23.8449 15.5214 22.4364 12.1467 19.535 11.2386C18.849 11.0238 17.8513 10.9394 17.2572 11.046ZM19.0433 12.3994C20.0814 12.7069 20.9651 13.4679 21.4259 14.4508C21.6477 14.9242 21.6738 15.0871 21.6738 15.9976C21.6738 16.901 21.6468 17.0724 21.4335 17.5241C20.9257 18.5995 19.8875 19.4146 18.7229 19.6521C17.0792 19.9873 15.3997 19.1228 14.6234 17.5419C14.3878 17.0623 14.3648 16.9245 14.3648 15.9976C14.3648 15.0889 14.3912 14.9236 14.6109 14.4548C15.4013 12.7688 17.3071 11.885 19.0433 12.3994ZM23.0153 21.3114C22.5071 21.4665 22.0177 21.7856 21.5956 22.2369C20.9911 22.8831 20.7667 23.4202 20.7592 24.2383C20.7485 25.3994 20.958 25.6983 23.7055 28.4407L26.0685 30.7992L28.4314 28.4407C30.9289 25.9479 31.2432 25.538 31.3893 24.5853C31.4625 24.1081 31.2464 23.2131 30.9413 22.7298C30.3765 21.8352 29.4936 21.3062 28.4622 21.2446C27.6429 21.1957 27.0354 21.3583 26.4479 21.7839L26.0737 22.0549L25.6624 21.7772C25.4361 21.6246 25.0758 21.4378 24.8617 21.3623C24.4549 21.2187 23.4129 21.19 23.0153 21.3114ZM24.5419 22.6083C25.207 22.9258 25.209 22.9297 24.882 23.3021C24.5444 23.6866 24.508 24.0129 24.7732 24.278C25.1353 24.6401 25.4059 24.5291 26.2555 23.6698C27.3379 22.5751 27.9221 22.3009 28.7048 22.5201C29.4901 22.7399 30.1325 23.5256 30.1373 24.2719C30.1411 24.8702 29.8126 25.3029 27.921 27.1915L26.0685 29.041L24.216 27.1915C22.3073 25.286 21.9976 24.8747 21.9976 24.2451C21.9976 23.3585 22.9465 22.4538 23.8943 22.4367C24.0469 22.4339 24.3384 22.5112 24.5419 22.6083Z" fill="white"/>
</svg>
