<svg width="42" height="42" viewBox="0 0 42 42" fill="none" xmlns="http://www.w3.org/2000/svg">
<circle cx="21" cy="21" r="21" fill="white"/>
<path fill-rule="evenodd" clip-rule="evenodd" d="M12.3669 12.1261C12.257 12.1929 12.1295 12.3682 12.0836 12.5157C12.0246 12.7049 12 15.3557 12 21.5213C12 28.7499 12.018 30.3069 12.104 30.5374C12.2214 30.8514 12.575 31.0619 12.8539 30.9835C12.9511 30.9562 14.6896 29.3261 16.7174 27.3609C18.7451 25.3958 20.4275 23.7777 20.4561 23.7653C20.4847 23.7529 22.187 25.3607 24.239 27.3384C26.291 29.3159 28.0493 30.9564 28.1464 30.9836C28.425 31.0619 28.7787 30.8513 28.896 30.5374C28.982 30.3069 29 28.7499 29 21.5213C29 15.3445 28.9754 12.7051 28.9163 12.5151C28.7464 11.97 29.2004 11.9976 20.4849 12.0014C13.7496 12.0042 12.5368 12.0229 12.3669 12.1261ZM27.64 21.0462C27.64 26.2343 27.6156 28.5561 27.5614 28.5187C27.5182 28.4889 25.9865 27.0226 24.1577 25.2604C22.3288 23.4983 20.7444 22.0318 20.6368 22.0015C20.5291 21.9713 20.3608 21.9806 20.2629 22.0221C20.165 22.0636 18.6535 23.4858 16.9041 25.1824C15.1546 26.8791 13.6415 28.337 13.5416 28.4222L13.36 28.5772V21.0482V13.5193H20.5H27.64V21.0462Z" fill="black"/>
</svg>
