<svg width="42" height="42" viewBox="0 0 42 42" fill="none" xmlns="http://www.w3.org/2000/svg">
<circle cx="21" cy="21" r="21" fill="white"/>
<path fill-rule="evenodd" clip-rule="evenodd" d="M19.1542 9.17362C17.1256 9.6819 15.5345 11.1857 14.9994 13.1003C14.8715 13.5574 14.8203 14.3389 14.8203 15.8295V17.9181L14.2958 17.9913C13.5422 18.0967 12.7432 18.6105 12.3406 19.2488L12 19.7887V23.591C12 26.947 12.0259 27.4787 12.2211 28.1203C13.0736 30.9236 15.3121 33.0043 18.316 33.7858C19.501 34.0941 21.8097 34.0652 22.9812 33.7273C24.5221 33.2828 25.4508 32.7565 26.6543 31.6455C27.5678 30.8021 27.8378 30.4664 28.2994 29.6C28.6032 29.03 28.887 28.3883 28.9301 28.1742C29.0003 27.8257 29.0489 27.7848 29.3934 27.7848C30.6343 27.7848 32.0316 26.8868 32.6669 25.6812C32.9501 25.1437 33.0019 24.9059 32.9999 24.1502C32.9979 23.401 32.9459 23.1646 32.6802 22.6964C32.1042 21.6814 30.8812 20.8339 29.7681 20.6783C29.2614 20.6075 29.2432 20.5909 29.1687 20.1277C29.0014 19.0885 27.9961 18.1614 26.8516 17.9909L26.3415 17.9148V15.8278C26.3415 14.3386 26.2903 13.5574 26.1625 13.1003C25.3523 10.2017 22.169 8.41808 19.1542 9.17362ZM22.3638 11.2339C23.1956 11.647 23.5579 11.9953 24.0379 12.8431C24.3535 13.4003 24.3623 13.469 24.4002 15.6788L24.439 17.9435H20.5809H16.7229L16.7616 15.6788C16.7981 13.5518 16.8178 13.3837 17.0842 12.911C17.6801 11.8541 18.2924 11.3497 19.4821 10.9352C20.2443 10.6697 21.4872 10.7986 22.3638 11.2339ZM27.007 20.0073C27.2164 20.2024 27.3016 20.4047 27.3016 20.7063C27.3015 21.0769 27.2253 21.1919 26.6998 21.6136C26.1187 22.0799 25.6214 22.7834 25.6214 23.1392C25.6214 23.2913 25.0807 23.3114 20.9956 23.3114H16.3695L16.075 23.586C15.7977 23.8444 15.7804 23.933 15.7804 25.1008C15.7804 26.2685 15.7977 26.3571 16.075 26.6155C16.2607 26.7887 16.5067 26.8901 16.7405 26.8901C17.3533 26.8901 17.7006 26.4671 17.7006 25.7209V25.1008H18.6607H19.6208V25.7209C19.6208 26.4671 19.9681 26.8901 20.5809 26.8901C21.1937 26.8901 21.541 26.4671 21.541 25.7209V25.1008H23.4919H25.4429L25.7218 25.6673C25.8752 25.9789 26.2394 26.4659 26.5311 26.7497C26.8229 27.0335 27.0616 27.3242 27.0616 27.3958C27.0616 27.7226 26.5339 28.9044 26.1423 29.4546C23.8273 32.7076 18.9675 33.2026 15.8895 30.4991C14.9617 29.684 14.4336 28.8317 14.0972 27.6063C13.888 26.8439 13.8602 26.363 13.8602 23.5122V20.2818L14.1548 20.0073L14.4493 19.7328H20.5809H26.7125L27.007 20.0073ZM30.34 22.785C31.5569 23.65 31.3066 25.3266 29.885 25.8325C28.9922 26.1502 28.213 25.9232 27.6091 25.1695C27.2475 24.7182 27.2641 23.7185 27.6413 23.2257C28.2779 22.394 29.5073 22.1932 30.34 22.785Z" fill="black"/>
</svg>
