<svg width="42" height="42" viewBox="0 0 42 42" fill="none" xmlns="http://www.w3.org/2000/svg">
    <circle cx="21" cy="21" r="21" fill="#5E97FF"/>
    <path fill-rule="evenodd" clip-rule="evenodd" d="M19.6245 10.0971C16.0134 10.8099 13.5139 13.5823 13.1387 17.2908L13.0723 17.9469L12.6913 17.9984C11.7409 18.1268 10.7969 18.8555 10.3221 19.8275C10.0213 20.4433 9.99886 20.5583 10 21.4803C10.0012 22.3374 10.0357 22.5455 10.2555 23.02C10.7768 24.1449 11.636 24.8025 12.8446 25.0015L13.5348 25.115L14.3205 26.4017C15.2502 27.9239 15.9518 28.6774 16.9136 29.1864C17.6174 29.5589 18.6329 29.8366 19.3027 29.8398C19.6057 29.8412 19.6938 29.8905 19.8149 30.1265C20.3267 31.1234 21.5421 31.2987 22.3221 30.4882C22.6091 30.1899 22.6619 30.0594 22.6936 29.5705C22.7213 29.143 22.6835 28.9141 22.5424 28.6544C22.3062 28.2197 21.7084 27.8667 21.2047 27.8645C20.6852 27.8623 20.039 28.255 19.8291 28.7005C19.6789 29.0193 19.6281 29.05 19.2516 29.0489C18.7413 29.0474 17.9508 28.8408 17.3679 28.5566C16.6436 28.2035 15.9495 27.4868 15.1865 26.3038C14.7912 25.6913 14.4679 25.1752 14.4679 25.1572C14.4679 25.1391 14.644 25.0711 14.8592 25.0062C15.0744 24.9413 15.2954 24.8036 15.3503 24.7002C15.4117 24.5847 15.4501 23.3373 15.4501 21.4564V18.4004L15.2228 18.1853C15.0493 18.0212 14.8739 17.9702 14.483 17.9702C13.8514 17.9702 13.8201 17.9071 13.965 16.9263C14.4152 13.8777 16.6064 11.526 19.5846 10.8949C22.105 10.3609 24.8458 11.3455 26.4811 13.3724C27.3716 14.4762 28.0017 16.047 28.0476 17.2777L28.0716 17.9207L27.5314 17.9515C27.1465 17.9734 26.9276 18.0423 26.7702 18.1913C26.5502 18.3993 26.5492 18.4157 26.5492 21.4419C26.5492 23.1146 26.5767 24.5553 26.6102 24.6433C26.7209 24.9339 27.1951 25.093 27.9505 25.093C29.9249 25.093 31.0718 24.4679 31.7411 23.0274C31.966 22.5434 31.9995 22.343 32 21.48C32.0005 20.5583 31.9778 20.4422 31.6771 19.8272C31.2014 18.8539 30.2581 18.1267 29.3042 17.9979L28.9196 17.9459L28.8563 17.2903C28.5237 13.8445 26.178 11.0502 22.915 10.213C22.0259 9.98487 20.4702 9.93007 19.6245 10.0971ZM20.0024 12.0375C18.9189 12.2335 17.9175 12.7429 17.0712 13.5286C16.573 13.9911 16.4655 14.4422 16.8262 14.5575C16.9738 14.6047 17.1627 14.4959 17.5734 14.1272C18.7066 13.1099 19.919 12.6871 21.5398 12.7439L22.473 12.7765L22.5034 12.5111C22.5244 12.3274 22.4742 12.2136 22.3403 12.1414C22.0663 11.9937 20.604 11.9288 20.0024 12.0375ZM23.4438 12.8697C23.3445 13.1303 23.4524 13.3573 23.7622 13.5395C24.1115 13.745 24.3512 13.6931 24.4462 13.3914C24.5729 12.9893 23.5926 12.479 23.4438 12.8697ZM14.6643 21.4821V24.3015H13.8473C12.6998 24.3015 12.0973 24.0997 11.5255 23.524C10.9659 22.9603 10.7338 22.3445 10.7398 21.4398C10.747 20.3406 11.1447 19.5858 11.9746 19.0959C12.5506 18.756 12.865 18.6851 13.854 18.6728L14.6643 18.6627V21.4821ZM29.8791 19.0132C30.815 19.5263 31.2638 20.3263 31.2638 21.4821C31.2638 22.6371 30.753 23.5348 29.8319 23.998C29.4504 24.19 29.1582 24.2459 28.346 24.2822L27.3349 24.3275V21.4821V18.6368L28.3463 18.6821C29.227 18.7215 29.425 18.7643 29.8791 19.0132ZM21.6466 28.7812C21.9002 28.9774 22.0401 29.3252 21.9732 29.5937C21.8964 29.9018 21.4914 30.2372 21.1961 30.2372C20.9007 30.2372 20.4957 29.9018 20.4189 29.5937C20.352 29.3252 20.4919 28.9774 20.7455 28.7812C20.9461 28.6261 21.446 28.6261 21.6466 28.7812Z" fill="white" stroke="white" stroke-width="0.5"/>
</svg>
