<svg width="35" height="36" viewBox="0 0 35 36" fill="none" xmlns="http://www.w3.org/2000/svg">
    <circle cx="17.5" cy="18.0449" r="17.5" fill="#F5F6FA"/>
    <path fill-rule="evenodd" clip-rule="evenodd" d="M17.4995 9.71289C17.0392 9.71289 16.6661 10.086 16.6661 10.5462V17.2128L9.99935 17.2128C9.53911 17.2128 9.16602 17.5859 9.16602 18.0462C9.16602 18.5064 9.53911 18.8795 9.99935 18.8795H16.6661V25.5462C16.6661 26.0065 17.0392 26.3796 17.4995 26.3796C17.9597 26.3796 18.3328 26.0065 18.3328 25.5462V18.8795H24.9993C25.4596 18.8795 25.8327 18.5064 25.8327 18.0462C25.8327 17.5859 25.4596 17.2128 24.9994 17.2128L18.3328 17.2128V10.5462C18.3328 10.086 17.9597 9.71289 17.4995 9.71289Z" fill="#000000"/>
</svg>
