<svg width="123" height="38" viewBox="0 0 123 38" fill="none" xmlns="http://www.w3.org/2000/svg">
<path fill-rule="evenodd" clip-rule="evenodd" d="M0 4C0 1.79086 1.79086 0 4 0H119C121.209 0 123 1.79086 123 4V34C123 36.2091 121.209 38 119 38H4C1.79086 38 0 36.2091 0 34V4Z" fill="black"/>
<path fill-rule="evenodd" clip-rule="evenodd" d="M38.8301 6.5171H41.0167C42.8354 6.5171 43.9055 7.63369 43.9055 9.5581C43.9055 11.4867 42.8354 12.6202 41.0167 12.6202H38.8301V6.5171ZM39.7775 7.33339V11.7997H40.9279C42.2221 11.7997 42.9411 11.0088 42.9411 9.56656C42.9411 8.12853 42.2221 7.33339 40.9279 7.33339H39.7775ZM47.28 12.6752C45.9519 12.6752 45.106 11.7701 45.106 10.3236C45.106 8.88138 45.9562 7.96781 47.28 7.96781C48.6038 7.96781 49.4497 8.87715 49.4497 10.3236C49.4497 11.7701 48.608 12.6752 47.28 12.6752ZM47.28 11.9139C48.0582 11.9139 48.5192 11.326 48.5192 10.3236C48.5192 9.32125 48.0582 8.72912 47.28 8.72912C46.5018 8.72912 46.0365 9.32548 46.0365 10.3236C46.0365 11.326 46.5018 11.9139 47.28 11.9139ZM56.8 8.02703L55.5353 12.6202H54.5879L53.6109 9.16053H53.5898L52.6212 12.6202H51.6781L50.4092 8.02703H51.3228L52.1771 11.6644H52.1941L53.1668 8.02703H54.0466L55.0236 11.6644H55.0405L55.8949 8.02703H56.8ZM57.9794 12.6202V8.02703H58.8549V8.80102H58.8718C59.151 8.25965 59.612 7.97627 60.3225 7.97627C61.3376 7.97627 61.917 8.61915 61.917 9.67652V12.6202H60.9992V9.84993C60.9992 9.15207 60.6778 8.76296 60.0053 8.76296C59.3117 8.76296 58.8972 9.24512 58.8972 9.96836V12.6202H57.9794ZM63.4729 12.6202V6.24219H64.3907V12.6202H63.4729ZM67.9344 12.6752C66.6064 12.6752 65.7605 11.7701 65.7605 10.3236C65.7605 8.88138 66.6106 7.96781 67.9344 7.96781C69.2582 7.96781 70.1041 8.87715 70.1041 10.3236C70.1041 11.7701 69.2625 12.6752 67.9344 12.6752ZM67.9344 11.9139C68.7126 11.9139 69.1737 11.326 69.1737 10.3236C69.1737 9.32125 68.7126 8.72912 67.9344 8.72912C67.1562 8.72912 66.691 9.32548 66.691 10.3236C66.691 11.326 67.1562 11.9139 67.9344 11.9139ZM73.0346 11.9351C73.7155 11.9351 74.2315 11.4994 74.2315 10.8946V10.5351L73.1149 10.6112C72.489 10.6493 72.1633 10.8819 72.1633 11.288C72.1633 11.6813 72.5059 11.9351 73.0346 11.9351ZM72.7893 12.6668C71.8715 12.6668 71.2371 12.1254 71.2371 11.3049C71.2371 10.5013 71.8588 10.036 72.9923 9.96413L74.2315 9.89223V9.53695C74.2315 9.0125 73.8805 8.72489 73.2672 8.72489C72.7681 8.72489 72.4044 8.98289 72.324 9.38046H71.4655C71.4908 8.5684 72.2606 7.96781 73.2926 7.96781C74.4134 7.96781 75.1366 8.55994 75.1366 9.46928V12.6202H74.2611V11.8547H74.24C73.9862 12.3538 73.4152 12.6668 72.7893 12.6668ZM78.3885 12.6668C77.2381 12.6668 76.4514 11.7405 76.4514 10.3194C76.4514 8.90676 77.2381 7.9805 78.3801 7.9805C79.0399 7.9805 79.5643 8.2808 79.8265 8.78833H79.8477V6.24219H80.7613V12.6202H79.8731V11.842H79.8561C79.5855 12.3622 79.061 12.6668 78.3885 12.6668ZM78.6211 8.75873C77.881 8.75873 77.3904 9.37623 77.3904 10.3236C77.3904 11.2753 77.8768 11.8885 78.6211 11.8885C79.3571 11.8885 79.8519 11.2626 79.8519 10.3236C79.8519 9.38892 79.3571 8.75873 78.6211 8.75873ZM86.8971 12.6752C85.569 12.6752 84.7231 11.7701 84.7231 10.3236C84.7231 8.88138 85.5732 7.96781 86.8971 7.96781C88.2209 7.96781 89.0668 8.87715 89.0668 10.3236C89.0668 11.7701 88.2251 12.6752 86.8971 12.6752ZM86.8971 11.9139C87.6753 11.9139 88.1363 11.326 88.1363 10.3236C88.1363 9.32125 87.6753 8.72912 86.8971 8.72912C86.1188 8.72912 85.6536 9.32548 85.6536 10.3236C85.6536 11.326 86.1188 11.9139 86.8971 11.9139ZM90.4027 12.6202V8.02703H91.2782V8.80102H91.2951C91.5743 8.25965 92.0353 7.97627 92.7458 7.97627C93.7609 7.97627 94.3404 8.61915 94.3404 9.67652V12.6202H93.4226V9.84993C93.4226 9.15207 93.1011 8.76296 92.4286 8.76296C91.735 8.76296 91.3205 9.24512 91.3205 9.96836V12.6202H90.4027ZM98.7294 6.99503H99.6429V8.02703H100.523V8.75027H99.6429V11.3176C99.6429 11.7151 99.8206 11.9012 100.205 11.9012C100.303 11.9012 100.459 11.8885 100.518 11.8801V12.6033C100.417 12.6287 100.201 12.6498 100.002 12.6498C99.0847 12.6498 98.7294 12.2988 98.7294 11.4106V8.75027H98.095V8.02703H98.7294V6.99503ZM101.935 12.6202V6.24219H102.844V8.80102H102.865C103.14 8.25965 103.614 7.97627 104.316 7.97627C105.327 7.97627 105.932 8.64876 105.932 9.68498V12.6202H105.014V9.86262C105.014 9.17745 104.671 8.76296 103.999 8.76296C103.284 8.76296 102.853 9.25358 102.853 9.98951V12.6202H101.935ZM109.361 8.71643C108.701 8.71643 108.223 9.19859 108.173 9.90492H110.503C110.482 9.19013 110.029 8.71643 109.361 8.71643ZM110.499 11.2753H111.374C111.243 12.1 110.435 12.6752 109.403 12.6752C108.071 12.6752 107.242 11.7786 107.242 10.3406C107.242 8.90253 108.08 7.96781 109.365 7.96781C110.626 7.96781 111.421 8.84332 111.421 10.2348V10.5563H108.168V10.6112C108.168 11.4064 108.667 11.9308 109.42 11.9308C109.953 11.9308 110.372 11.6771 110.499 11.2753Z" fill="white"/>
<path fill-rule="evenodd" clip-rule="evenodd" d="M45.7742 29.9996L44.6948 26.8105H40.1975L39.1181 29.9996H37.2129L41.4731 18.2002H43.4519L47.7121 29.9996H45.7742ZM42.4216 20.1626L40.6636 25.3387H44.2287L42.4707 20.1626H42.4216ZM53.6115 21.0294C55.8765 21.0294 57.3647 22.8038 57.3647 25.5594C57.3647 28.3069 55.8847 30.0895 53.6524 30.0895C52.3768 30.0895 51.371 29.5253 50.8395 28.544H50.8068V32.9433H49.0324V21.1193H50.7414V22.5912H50.7823C51.2811 21.6345 52.3768 21.0294 53.6115 21.0294ZM53.1618 28.5849C54.6009 28.5849 55.5495 27.3993 55.5495 25.5594C55.5495 23.7278 54.6009 22.534 53.1618 22.534C51.7553 22.534 50.7986 23.7523 50.7904 25.5594C50.7986 27.3747 51.7472 28.5849 53.1618 28.5849ZM63.5585 21.0294C65.8235 21.0294 67.3117 22.8038 67.3117 25.5594C67.3117 28.3069 65.8317 30.0895 63.5994 30.0895C62.3238 30.0895 61.318 29.5253 60.7865 28.544H60.7538V32.9433H58.9794V21.1193H60.6884V22.5912H60.7292C61.228 21.6345 62.3238 21.0294 63.5585 21.0294ZM63.1088 28.5849C64.5479 28.5849 65.4964 27.3993 65.4964 25.5594C65.4964 23.7278 64.5479 22.534 63.1088 22.534C61.7023 22.534 60.7456 23.7523 60.7374 25.5594C60.7456 27.3747 61.6941 28.5849 63.1088 28.5849ZM72.6424 26.7124H74.4496C74.5804 27.8817 75.717 28.6503 77.2706 28.6503C78.7588 28.6503 79.83 27.8817 79.83 26.8269C79.83 25.9111 79.184 25.3632 77.6549 24.9871L76.1258 24.6191C73.9589 24.0958 72.9532 23.0818 72.9532 21.4382C72.9532 19.4022 74.7276 18.0039 77.2461 18.0039C79.7401 18.0039 81.4491 19.4022 81.5063 21.4382H79.7237C79.6174 20.2608 78.6444 19.5494 77.2216 19.5494C75.7988 19.5494 74.8257 20.2689 74.8257 21.3156C74.8257 22.1496 75.4472 22.6403 76.9681 23.0164L78.2682 23.3353C80.6886 23.9077 81.6944 24.8808 81.6944 26.6061C81.6944 28.8139 79.9363 30.1958 77.1398 30.1958C74.5232 30.1958 72.7569 28.8466 72.6424 26.7124ZM83.8896 19.1242H85.6558V21.1193H87.3566V22.5176H85.6558V27.481C85.6558 28.2497 85.9992 28.6095 86.7433 28.6095C86.9314 28.6095 87.234 28.5849 87.3484 28.5686V29.9668C87.1522 30.0159 86.7352 30.0568 86.3508 30.0568C84.5764 30.0568 83.8896 29.3781 83.8896 27.6609V22.5176H82.663V21.1193H83.8896V19.1242ZM92.6509 30.1059C90.0833 30.1059 88.4479 28.356 88.4479 25.5594C88.4479 22.7711 90.0915 21.0049 92.6509 21.0049C95.2103 21.0049 96.8457 22.7629 96.8457 25.5594C96.8457 28.356 95.2185 30.1059 92.6509 30.1059ZM92.6509 28.634C94.1554 28.634 95.0467 27.4974 95.0467 25.5594C95.0467 23.6215 94.1554 22.4767 92.6509 22.4767C91.1463 22.4767 90.2468 23.6297 90.2468 25.5594C90.2468 27.4974 91.1463 28.634 92.6509 28.634ZM98.4685 29.9996V21.1193H100.161V22.6157H100.194C100.472 21.6263 101.29 21.0294 102.336 21.0294C102.598 21.0294 102.819 21.0539 102.958 21.0866V22.7466C102.81 22.6893 102.5 22.6403 102.148 22.6403C100.979 22.6403 100.243 23.4498 100.243 24.7009V29.9996H98.4685ZM107.99 22.4522C106.715 22.4522 105.791 23.3844 105.693 24.7499H110.198C110.157 23.368 109.282 22.4522 107.99 22.4522ZM110.19 27.3993H111.882C111.629 28.9938 110.067 30.1059 108.072 30.1059C105.496 30.1059 103.894 28.3723 103.894 25.5922C103.894 22.812 105.513 21.0049 107.998 21.0049C110.435 21.0049 111.972 22.6975 111.972 25.3877V26.0092H105.684V26.1155C105.684 27.6528 106.649 28.6667 108.105 28.6667C109.135 28.6667 109.945 28.1761 110.19 27.3993Z" fill="white"/>
<path fill-rule="evenodd" clip-rule="evenodd" d="M24.439 5.35156C23.2176 5.40263 21.7376 6.1627 20.8617 7.18456C20.0743 8.09206 19.387 9.54036 19.5723 10.9291C20.9359 11.0354 22.3255 10.239 23.1743 9.2166C24.0215 8.19237 24.5951 6.77099 24.439 5.35156ZM24.0938 29.5194C25.7487 29.4887 26.7969 28.0225 27.8102 26.5472C28.9205 24.9313 29.4108 23.3645 29.4839 23.1309C29.488 23.1179 29.4907 23.109 29.4923 23.1045C29.4915 23.1042 29.4895 23.1033 29.4862 23.102C29.3269 23.0375 26.2638 21.7969 26.2334 18.2108C26.2035 15.2494 28.5742 13.7763 28.8352 13.6141C28.8443 13.6085 28.8508 13.6044 28.8546 13.6019C27.4276 11.5232 25.2057 11.2381 24.414 11.2056C23.2576 11.0891 22.1357 11.5294 21.219 11.8892C20.6365 12.1178 20.1368 12.3139 19.7639 12.3139C19.3488 12.3139 18.8355 12.111 18.2594 11.8832C17.5054 11.5851 16.6439 11.2445 15.7544 11.2608C13.6943 11.2916 11.7932 12.4552 10.7322 14.2944C8.58976 17.9978 10.1828 23.4854 12.27 26.4882C13.2917 27.9568 14.5065 29.6097 16.1042 29.5501C16.8175 29.5216 17.3252 29.3063 17.8502 29.0836C18.457 28.8262 19.087 28.559 20.0844 28.559C21.0344 28.559 21.6352 28.8179 22.2131 29.067C22.7658 29.3052 23.2976 29.5344 24.0938 29.5194Z" fill="white"/>
</svg>
