<svg width="186" height="59" viewBox="0 0 186 59" fill="none" xmlns="http://www.w3.org/2000/svg">
<g filter="url(#filter0_b_1737_35351)">
<path fill-rule="evenodd" clip-rule="evenodd" d="M1 12C1 5.92487 5.92487 1 12 1H174.5C180.575 1 185.5 5.92487 185.5 12V47C185.5 53.0751 180.575 58 174.5 58H12C5.92487 58 1 53.0751 1 47V12Z" fill="url(#paint0_linear_1737_35351)" fill-opacity="0.9"/>
<path fill-rule="evenodd" clip-rule="evenodd" d="M1 12C1 5.92487 5.92487 1 12 1H174.5C180.575 1 185.5 5.92487 185.5 12V47C185.5 53.0751 180.575 58 174.5 58H12C5.92487 58 1 53.0751 1 47V12Z" stroke="url(#paint1_linear_1737_35351)" stroke-opacity="0.9"/>
</g>
<path fill-rule="evenodd" clip-rule="evenodd" d="M59.2441 10.7755H62.5241C65.2521 10.7755 66.8572 12.4504 66.8572 15.337C66.8572 18.23 65.2521 19.9302 62.5241 19.9302H59.2441V10.7755ZM60.6651 12.0001V18.6996H62.3908C64.3321 18.6996 65.4106 17.5132 65.4106 15.3499C65.4106 13.1928 64.3321 12.0001 62.3908 12.0001H60.6651ZM71.9196 20.0128C69.9276 20.0128 68.6587 18.6551 68.6587 16.4854C68.6587 14.322 69.9339 12.9517 71.9196 12.9517C73.9054 12.9517 75.1742 14.3157 75.1742 16.4854C75.1742 18.6551 73.9117 20.0128 71.9196 20.0128ZM71.9187 18.8708C73.086 18.8708 73.7775 17.9889 73.7775 16.4853C73.7775 14.9818 73.086 14.0936 71.9187 14.0936C70.7513 14.0936 70.0535 14.9881 70.0535 16.4853C70.0535 17.9889 70.7513 18.8708 71.9187 18.8708ZM86.1985 13.0407L84.3016 19.9305H82.8805L81.415 14.7409H81.3832L79.9304 19.9305H78.5156L76.6124 13.0407H77.9827L79.2643 18.4967H79.2896L80.7488 13.0407H82.0684L83.5339 18.4967H83.5593L84.8408 13.0407H86.1985ZM87.9678 19.9305V13.0407H89.2811V14.2016H89.3065C89.7252 13.3896 90.4167 12.9645 91.4825 12.9645C93.0052 12.9645 93.8743 13.9288 93.8743 15.5149V19.9305H92.4976V15.775C92.4976 14.7282 92.0155 14.1446 91.0067 14.1446C89.9663 14.1446 89.3445 14.8678 89.3445 15.9527V19.9305H87.9678ZM96.2082 19.9304V10.3633H97.5849V19.9304H96.2082ZM102.901 20.0128C100.909 20.0128 99.6405 18.6551 99.6405 16.4854C99.6405 14.322 100.916 12.9517 102.901 12.9517C104.887 12.9517 106.156 14.3157 106.156 16.4854C106.156 18.6551 104.894 20.0128 102.901 20.0128ZM102.902 18.8708C104.069 18.8708 104.76 17.9889 104.76 16.4853C104.76 14.9818 104.069 14.0936 102.902 14.0936C101.734 14.0936 101.036 14.9881 101.036 16.4853C101.036 17.9889 101.734 18.8708 102.902 18.8708ZM110.551 18.9027C111.572 18.9027 112.346 18.2492 112.346 17.342V16.8027L110.672 16.9169C109.733 16.974 109.244 17.3229 109.244 17.932C109.244 18.522 109.758 18.9027 110.551 18.9027ZM110.183 20.0001C108.806 20.0001 107.855 19.188 107.855 17.9572C107.855 16.7518 108.787 16.054 110.487 15.9461L112.346 15.8383V15.3054C112.346 14.5187 111.82 14.0873 110.9 14.0873C110.151 14.0873 109.606 14.4743 109.485 15.0706H108.197C108.235 13.8525 109.39 12.9517 110.938 12.9517C112.619 12.9517 113.704 13.8399 113.704 15.2039V19.9303H112.391V18.782H112.359C111.978 19.5306 111.122 20.0001 110.183 20.0001ZM118.582 20.0001C116.856 20.0001 115.676 18.6108 115.676 16.4791C115.676 14.3601 116.856 12.9708 118.569 12.9708C119.559 12.9708 120.345 13.4212 120.739 14.1825H120.77V10.3633H122.141V19.9304H120.808V18.763H120.783C120.377 19.5434 119.59 20.0001 118.582 20.0001ZM118.932 14.1382C117.821 14.1382 117.085 15.0645 117.085 16.4856C117.085 17.913 117.815 18.8329 118.932 18.8329C120.035 18.8329 120.778 17.894 120.778 16.4856C120.778 15.0835 120.035 14.1382 118.932 14.1382ZM131.344 20.0128C129.352 20.0128 128.083 18.6551 128.083 16.4854C128.083 14.322 129.358 12.9517 131.344 12.9517C133.329 12.9517 134.598 14.3157 134.598 16.4854C134.598 18.6551 133.336 20.0128 131.344 20.0128ZM131.344 18.8708C132.511 18.8708 133.203 17.9889 133.203 16.4853C133.203 14.9818 132.511 14.0936 131.344 14.0936C130.176 14.0936 129.479 14.9881 129.479 16.4853C129.479 17.9889 130.176 18.8708 131.344 18.8708ZM136.602 19.9305V13.0407H137.916V14.2016H137.941C138.36 13.3896 139.051 12.9645 140.117 12.9645C141.64 12.9645 142.509 13.9288 142.509 15.5149V19.9305H141.132V15.775C141.132 14.7282 140.65 14.1446 139.641 14.1446C138.601 14.1446 137.979 14.8678 137.979 15.9527V19.9305H136.602ZM149.092 11.4926H150.463V13.0406H151.782V14.1254H150.463V17.9764C150.463 18.5727 150.729 18.8519 151.306 18.8519C151.452 18.8519 151.687 18.8328 151.776 18.8202V19.905C151.624 19.9431 151.3 19.9748 151.002 19.9748C149.625 19.9748 149.092 19.4482 149.092 18.1159V14.1254H148.141V13.0406H149.092V11.4926ZM153.901 19.9304V10.3633H155.265V14.2015H155.297C155.71 13.3895 156.42 12.9644 157.473 12.9644C158.989 12.9644 159.897 13.9731 159.897 15.5275V19.9304H158.52V15.7939C158.52 14.7662 158.006 14.1444 156.997 14.1444C155.925 14.1444 155.278 14.8804 155.278 15.9843V19.9304H153.901ZM165.041 14.0749C164.051 14.0749 163.334 14.7982 163.258 15.8576H166.754C166.722 14.7855 166.043 14.0749 165.041 14.0749ZM166.747 17.9128H168.061C167.864 19.15 166.652 20.0128 165.104 20.0128C163.106 20.0128 161.862 18.6678 161.862 16.5108C161.862 14.3537 163.119 12.9517 165.047 12.9517C166.938 12.9517 168.131 14.2649 168.131 16.3522V16.8343H163.252V16.9168C163.252 18.1095 164 18.8962 165.13 18.8962C165.929 18.8962 166.557 18.5155 166.747 17.9128Z" fill="white"/>
<path fill-rule="evenodd" clip-rule="evenodd" d="M69.6623 45.9993L68.0432 41.2158H61.2972L59.6782 45.9993H56.8203L63.2106 28.3002H66.1789L72.5692 45.9993H69.6623ZM64.6342 31.2438L61.9971 39.0079H67.3448L64.7077 31.2438H64.6342ZM81.4175 32.5441C84.815 32.5441 87.0473 35.2057 87.0473 39.3391C87.0473 43.4603 84.8273 46.1342 81.4788 46.1342C79.5654 46.1342 78.0567 45.2879 77.2595 43.816H77.2104V50.4149H74.5488V32.679H77.1123V34.8868H77.1736C77.9218 33.4517 79.5654 32.5441 81.4175 32.5441ZM80.743 43.8773C82.9017 43.8773 84.3245 42.0988 84.3245 39.339C84.3245 36.5916 82.9017 34.8008 80.743 34.8008C78.6333 34.8008 77.1983 36.6284 77.186 39.339C77.1983 42.062 78.6211 43.8773 80.743 43.8773ZM96.3386 32.5441C99.7361 32.5441 101.968 35.2057 101.968 39.3391C101.968 43.4603 99.7484 46.1342 96.3999 46.1342C94.4865 46.1342 92.9778 45.2879 92.1806 43.816H92.1315V50.4149H89.4699V32.679H92.0334V34.8868H92.0947C92.8429 33.4517 94.4865 32.5441 96.3386 32.5441ZM95.6641 43.8773C97.8228 43.8773 99.2456 42.0988 99.2456 39.339C99.2456 36.5916 97.8228 34.8008 95.6641 34.8008C93.5545 34.8008 92.1194 36.6284 92.1071 39.339C92.1194 42.062 93.5422 43.8773 95.6641 43.8773ZM109.965 41.0686H112.675C112.872 42.8226 114.577 43.9755 116.907 43.9755C119.139 43.9755 120.746 42.8226 120.746 41.2403C120.746 39.8666 119.777 39.0448 117.484 38.4806L115.19 37.9286C111.94 37.1436 110.431 35.6227 110.431 33.1574C110.431 30.1033 113.092 28.0059 116.87 28.0059C120.611 28.0059 123.175 30.1033 123.261 33.1574H120.587C120.427 31.3911 118.968 30.324 116.833 30.324C114.699 30.324 113.24 31.4034 113.24 32.9734C113.24 34.2245 114.172 34.9604 116.453 35.5246L118.403 36.003C122.034 36.8615 123.543 38.3211 123.543 40.9092C123.543 44.2208 120.906 46.2937 116.711 46.2937C112.786 46.2937 110.137 44.2699 109.965 41.0686ZM126.835 29.6863H129.484V32.6791H132.036V34.7765H129.484V42.2216C129.484 43.3746 129.999 43.9143 131.116 43.9143C131.398 43.9143 131.852 43.8775 132.023 43.8529V45.9503C131.729 46.0239 131.103 46.0852 130.527 46.0852C127.865 46.0852 126.835 45.0672 126.835 42.4915V34.7765H124.995V32.6791H126.835V29.6863ZM139.978 46.1588C136.127 46.1588 133.673 43.534 133.673 39.3392C133.673 35.1566 136.139 32.5073 139.978 32.5073C143.817 32.5073 146.27 35.1444 146.27 39.3392C146.27 43.534 143.829 46.1588 139.978 46.1588ZM139.978 43.9511C142.235 43.9511 143.571 42.2462 143.571 39.3393C143.571 36.4324 142.235 34.7152 139.978 34.7152C137.721 34.7152 136.372 36.4447 136.372 39.3393C136.372 42.2462 137.721 43.9511 139.978 43.9511ZM148.704 45.9993V32.679H151.243V34.9236H151.292C151.709 33.4394 152.935 32.5441 154.505 32.5441C154.898 32.5441 155.229 32.5809 155.438 32.6299V35.1198C155.217 35.0339 154.751 34.9604 154.223 34.9604C152.469 34.9604 151.365 36.1746 151.365 38.0513V45.9993H148.704ZM162.986 34.6782C161.073 34.6782 159.687 36.0765 159.539 38.1248H166.298C166.236 36.0519 164.924 34.6782 162.986 34.6782ZM166.286 42.0989H168.825C168.444 44.4907 166.102 46.1588 163.109 46.1588C159.245 46.1588 156.841 43.5585 156.841 39.3882C156.841 35.218 159.27 32.5073 162.999 32.5073C166.654 32.5073 168.96 35.0463 168.96 39.0816V40.0138H159.527V40.1732C159.527 42.4791 160.975 44.0001 163.158 44.0001C164.703 44.0001 165.918 43.2641 166.286 42.0989Z" fill="white"/>
<path fill-rule="evenodd" clip-rule="evenodd" d="M37.6586 9.02734C35.8265 9.10395 33.6065 10.244 32.2927 11.7768C31.1115 13.1381 30.0805 15.3105 30.3585 17.3936C32.404 17.5531 34.4883 16.3585 35.7616 14.8249C37.0323 13.2886 37.8927 11.1565 37.6586 9.02734ZM37.1406 45.2791C39.623 45.233 41.1953 43.0337 42.7152 40.8208C44.3807 38.3969 45.1162 36.0468 45.2259 35.6963C45.232 35.6768 45.2361 35.6635 45.2384 35.6567C45.2373 35.6562 45.2342 35.655 45.2292 35.653C44.9904 35.5563 40.3958 33.6954 40.3501 28.3162C40.3052 23.8742 43.8613 21.6644 44.2528 21.4211C44.2664 21.4127 44.2762 21.4066 44.2818 21.4029C42.1414 18.2847 38.8085 17.8572 37.621 17.8084C35.8864 17.6336 34.2035 18.2941 32.8285 18.8338C31.9547 19.1768 31.2053 19.4709 30.6459 19.4709C30.0233 19.4709 29.2533 19.1665 28.3891 18.8249C27.2581 18.3777 25.9658 17.8668 24.6316 17.8913C21.5414 17.9373 18.6898 19.6828 17.0984 22.4416C13.8846 27.9966 16.2742 36.2281 19.405 40.7323C20.9375 42.9352 22.7598 45.4145 25.1563 45.3252C26.2263 45.2824 26.9878 44.9594 27.7754 44.6254C28.6855 44.2393 29.6305 43.8384 31.1266 43.8384C32.5516 43.8384 33.4528 44.2269 34.3196 44.6005C35.1487 44.9578 35.9463 45.3016 37.1406 45.2791Z" fill="white"/>
<defs>
<filter id="filter0_b_1737_35351" x="-23.5" y="-23.5" width="233.5" height="106" filterUnits="userSpaceOnUse" color-interpolation-filters="sRGB">
<feFlood flood-opacity="0" result="BackgroundImageFix"/>
<feGaussianBlur in="BackgroundImage" stdDeviation="12"/>
<feComposite in2="SourceAlpha" operator="in" result="effect1_backgroundBlur_1737_35351"/>
<feBlend mode="normal" in="SourceGraphic" in2="effect1_backgroundBlur_1737_35351" result="shape"/>
</filter>
<linearGradient id="paint0_linear_1737_35351" x1="1" y1="1" x2="14.2396" y2="84.9948" gradientUnits="userSpaceOnUse">
<stop stop-color="white" stop-opacity="0.4"/>
<stop offset="1" stop-color="white" stop-opacity="0"/>
</linearGradient>
<linearGradient id="paint1_linear_1737_35351" x1="186" y1="58" x2="172.663" y2="-26.1924" gradientUnits="userSpaceOnUse">
<stop stop-color="white" stop-opacity="0.4"/>
<stop offset="1" stop-color="white" stop-opacity="0"/>
</linearGradient>
</defs>
</svg>
