<svg width="21" height="21" viewBox="0 0 21 21" fill="none" xmlns="http://www.w3.org/2000/svg">
<path fill-rule="evenodd" clip-rule="evenodd" d="M19.8414 0H1.15862C0.518732 0 0 0.518732 0 1.15862V19.8414C0 20.4813 0.518732 21 1.15862 21H11.2241V12.8788H8.49052V9.69983H11.2241V7.36086C11.2241 4.64897 12.8824 3.17172 15.301 3.17172C16.1161 3.16995 16.9307 3.21104 17.7414 3.29483V6.12983H16.0759C14.7579 6.12983 14.5009 6.75259 14.5009 7.67224V9.69621H17.6509L17.2417 12.8752H14.4828V21H19.8414C20.4813 21 21 20.4813 21 19.8414V1.15862C21 0.518732 20.4813 0 19.8414 0Z" fill="black"/>
</svg>
