<svg width="123" height="38" viewBox="0 0 123 38" fill="none" xmlns="http://www.w3.org/2000/svg">
<path fill-rule="evenodd" clip-rule="evenodd" d="M119 38H4C1.72969 38 0 36.29 0 34V4C0 1.71 1.72969 0 4 0H119C121.27 0 123 1.71 123 4V34C123 36.29 121.27 38 119 38Z" fill="black"/>
<path fill-rule="evenodd" clip-rule="evenodd" d="M9.82031 19.1201V9.13228C9.82031 8.56155 10.2971 8.08594 10.7738 8.08594C11.2505 8.08594 11.4412 8.18106 11.7273 8.3713L30.1296 18.4542C30.511 18.6445 30.7017 18.9298 30.7017 19.2152C30.7017 19.5006 30.511 19.7859 30.1296 19.9762L11.7273 30.0591C11.5366 30.1542 11.2505 30.3445 10.7738 30.3445C10.2971 30.3445 9.82031 29.8689 9.82031 29.2981V19.1201Z" fill="white"/>
<path fill-rule="evenodd" clip-rule="evenodd" d="M68.2704 32.722C67.7936 32.3416 67.4122 31.6757 67.2215 31.2952L68.7471 30.6294C68.8425 30.8196 69.0332 31.105 69.2239 31.3903C69.6053 31.7708 70.1774 32.1513 70.7495 32.1513C71.3215 32.1513 71.989 31.8659 72.3704 31.3903C72.6564 30.9147 72.8471 30.4391 72.8471 29.7733V29.2025C71.7029 30.6294 69.3192 30.4391 67.9843 28.9172C66.5541 27.3952 66.5541 24.8269 67.9843 23.305C69.4146 21.8781 71.5122 21.6879 72.7518 23.0196V22.3538H74.3727V29.4879C74.3727 31.2952 73.7053 32.3416 72.8471 33.0074C72.275 33.483 71.4169 33.6733 70.6541 33.6733C69.796 33.5781 68.9378 33.2928 68.2704 32.722ZM108.222 33.1025L109.842 29.2977L106.982 22.7342H108.603L110.605 27.3952L112.608 22.7342H114.229L109.842 33.1025H108.222ZM100.498 29.4879C100.022 29.0123 99.8308 28.3464 99.8308 27.6806C99.8308 27.1099 100.022 26.5391 100.403 26.1586C101.07 25.4928 102.024 25.2074 103.073 25.2074C103.74 25.2074 104.312 25.3025 104.789 25.5879C104.789 24.4464 103.836 23.9708 103.073 23.9708C102.405 23.9708 101.738 24.3513 101.452 25.0172L100.022 24.4464C100.308 23.7806 101.07 22.544 102.977 22.544C103.931 22.544 104.884 22.8294 105.456 23.4952C106.029 24.1611 106.219 24.922 106.219 25.9684V29.9635H104.598V29.2977C104.408 29.583 104.026 29.7733 103.74 29.9635C103.359 30.1538 102.882 30.2489 102.405 30.2489C101.833 30.1538 100.975 29.9635 100.498 29.4879ZM49.6774 26.0635C49.6774 24.1611 51.1076 22.0684 53.682 22.0684C56.1611 22.0684 57.6867 24.1611 57.6867 26.0635C57.6867 27.9659 56.2564 30.0586 53.682 30.0586C51.1076 30.0586 49.6774 27.9659 49.6774 26.0635ZM58.2588 26.0635C58.2588 24.1611 59.689 22.0684 62.2634 22.0684C64.7425 22.0684 66.2681 24.1611 66.2681 26.0635C66.2681 27.9659 64.8378 30.0586 62.2634 30.0586C59.7843 30.0586 58.2588 27.9659 58.2588 26.0635ZM38.9029 28.1562C36.5192 25.7781 36.6146 21.8781 38.9983 19.405C40.2378 18.1684 41.7634 17.5977 43.3843 17.5977C44.9099 17.5977 46.4355 18.1684 47.5797 19.3099L46.4355 20.5464C44.7192 18.8342 41.9541 18.9294 40.3332 20.6416C38.6169 22.4489 38.6169 25.2074 40.3332 27.0147C42.0495 28.822 44.9099 28.9172 46.6262 27.1099C47.1983 26.5391 47.389 25.7781 47.4843 25.0172H43.4797V23.305H49.1053C49.2006 23.6855 49.2006 24.1611 49.2006 24.6367C49.2006 26.0635 48.6285 27.4903 47.675 28.4416C46.6262 29.4879 45.1006 30.0586 43.575 30.0586C41.8588 29.9635 40.1425 29.3928 38.9029 28.1562ZM79.2355 28.822C77.8053 27.3001 77.8053 24.7318 79.2355 23.1147C80.6657 21.5928 83.0494 21.5928 84.3843 23.1147C84.8611 23.5903 85.1471 24.2562 85.4332 24.922L80.189 27.1099C80.475 27.7757 81.1425 28.3464 82.096 28.3464C82.9541 28.3464 83.5262 28.0611 84.0983 27.205L85.5285 28.1562C85.3378 28.3464 85.1471 28.5367 85.0518 28.7269C83.4308 30.344 80.6657 30.344 79.2355 28.822ZM89.1518 29.9635V19.405H92.5843C94.5867 19.405 96.2076 20.8318 96.2076 22.544C96.2076 24.2562 94.7774 25.683 92.9657 25.683H90.8681V29.8684H89.1518V29.9635ZM97.1611 29.9635V19.405H98.782V29.9635H97.1611ZM75.6122 29.7733V17.9781H77.3285V29.7733H75.6122ZM104.694 26.8245C104.312 26.5391 103.74 26.444 103.168 26.444C102.024 26.444 101.356 27.0147 101.356 27.6806C101.356 28.3464 102.024 28.7269 102.691 28.7269C103.645 28.7269 104.694 27.9659 104.694 26.8245ZM55.875 26.0635C55.875 24.922 55.1122 23.6855 53.682 23.6855C52.2518 23.6855 51.489 24.922 51.489 26.0635C51.489 27.205 52.2518 28.4416 53.682 28.4416C55.0169 28.4416 55.875 27.205 55.875 26.0635ZM64.4564 26.0635C64.4564 24.922 63.6936 23.6855 62.2634 23.6855C60.8332 23.6855 60.0704 24.922 60.0704 26.0635C60.0704 27.205 60.8332 28.4416 62.2634 28.4416C63.6936 28.4416 64.4564 27.205 64.4564 26.0635ZM72.9425 26.7294C72.9425 26.6342 72.9425 26.5391 73.0378 26.444C73.0378 26.3489 73.0378 26.1586 73.0378 26.0635C73.0378 25.9684 73.0378 25.7781 73.0378 25.683V25.5879C73.0378 25.4928 72.9425 25.3025 72.9425 25.2074C72.6564 24.2562 71.7983 23.5903 70.9402 23.5903C69.796 23.5903 68.8425 24.7318 68.8425 25.9684C68.8425 27.3001 69.796 28.3464 71.0355 28.3464C71.7983 28.4416 72.5611 27.7757 72.9425 26.7294ZM79.9029 25.8733L83.4308 24.3513C83.0495 23.6855 82.4774 23.4952 82.0006 23.4952C80.5704 23.5903 79.7122 25.1123 79.9029 25.8733ZM94.4913 22.6391C94.4913 21.6879 93.7285 21.022 92.6797 21.022H90.7727V24.3513H92.775C93.7285 24.3513 94.4913 23.5903 94.4913 22.6391Z" fill="white"/>
<path fill-rule="evenodd" clip-rule="evenodd" d="M109.461 31.2006H109.365V31.1055H109.461H109.365V31.2006H109.461Z" fill="white"/>
<path fill-rule="evenodd" clip-rule="evenodd" d="M109.652 31.2006C109.652 31.1055 109.652 31.1055 109.652 31.2006C109.556 31.1055 109.556 31.1055 109.652 31.2006C109.556 31.2006 109.556 31.2006 109.652 31.2006ZM109.652 31.1055C109.652 31.2006 109.652 31.2006 109.652 31.1055C109.652 31.2006 109.556 31.2006 109.652 31.1055C109.652 31.1055 109.556 31.1055 109.652 31.1055Z" fill="white"/>
<path fill-rule="evenodd" clip-rule="evenodd" d="M109.746 31.1055H109.65H109.746V31.2006V31.1055Z" fill="white"/>
<path d="M37.5684 10.0828C37.5684 8.37056 38.8079 7.32422 40.3335 7.32422C41.3823 7.32422 42.0498 7.79983 42.5265 8.46568L41.7637 8.94129C41.4777 8.5608 41.0009 8.27544 40.3335 8.27544C39.2846 8.27544 38.5218 9.03641 38.5218 10.1779C38.5218 11.3193 39.2846 12.0803 40.3335 12.0803C40.9056 12.0803 41.3823 11.795 41.573 11.6047V10.7486H40.0474V9.89251H42.6218V11.8901C42.1451 12.4608 41.3823 12.8413 40.4288 12.8413C38.8079 12.8413 37.5684 11.6998 37.5684 10.0828Z" fill="white"/>
<path d="M43.7656 12.7468V7.41992H47.3889V8.27602H44.6238V9.60773H47.2935V10.4638H44.6238V11.9858H47.3889V12.8419L43.7656 12.7468Z" fill="white"/>
<path d="M50.0584 12.7468V8.27602H48.4375V7.41992H52.6328V8.27602H51.0119V12.7468H50.0584Z" fill="white"/>
<path d="M55.875 12.7468V7.41992H56.8285V12.7468H55.875Z" fill="white"/>
<path d="M59.4022 12.7468V8.27602H57.7812V7.41992H61.9766V8.27602H60.3557V12.7468H59.4022Z" fill="white"/>
<path fill-rule="evenodd" clip-rule="evenodd" d="M67.7925 7.32422C66.1715 7.32422 65.0273 8.46568 65.0273 10.0828C65.0273 11.6047 66.1715 12.8413 67.7925 12.8413C69.4134 12.8413 70.5576 11.6998 70.5576 10.0828C70.5576 8.46568 69.4134 7.32422 67.7925 7.32422ZM67.6971 8.18032C68.8413 8.18032 69.5087 8.94129 69.5087 10.0828C69.5087 11.1291 68.8413 11.9852 67.6971 11.9852C66.5529 11.9852 65.8855 11.2242 65.8855 10.0828C65.8855 9.03641 66.6483 8.18032 67.6971 8.18032Z" fill="white"/>
<path d="M75.326 12.7468L72.5609 8.94187V12.7468H71.6074V7.41992H72.5609L75.326 11.1297V7.41992H76.2795V12.7468H75.326Z" fill="white"/>
</svg>
