<svg width="186" height="59" viewBox="0 0 186 59" fill="none" xmlns="http://www.w3.org/2000/svg">
<g filter="url(#filter0_b_1737_35292)">
<path fill-rule="evenodd" clip-rule="evenodd" d="M179.5 58H7C3.59453 58 1 55.435 1 52V7C1 3.565 3.59453 1 7 1H179.5C182.905 1 185.5 3.565 185.5 7V52C185.5 55.435 182.905 58 179.5 58Z" fill="url(#paint0_linear_1737_35292)" fill-opacity="0.9"/>
<path fill-rule="evenodd" clip-rule="evenodd" d="M179.5 58H7C3.59453 58 1 55.435 1 52V7C1 3.565 3.59453 1 7 1H179.5C182.905 1 185.5 3.565 185.5 7V52C185.5 55.435 182.905 58 179.5 58Z" stroke="url(#paint1_linear_1737_35292)" stroke-opacity="0.9"/>
</g>
<path fill-rule="evenodd" clip-rule="evenodd" d="M15.7324 29.6801V14.6984C15.7324 13.8423 16.4475 13.1289 17.1627 13.1289C17.8778 13.1289 18.1638 13.2716 18.5929 13.557L46.1964 28.6813C46.7685 28.9667 47.0545 29.3948 47.0545 29.8228C47.0545 30.2509 46.7685 30.6789 46.1964 30.9643L18.5929 46.0887C18.3068 46.2313 17.8778 46.5167 17.1627 46.5167C16.4475 46.5167 15.7324 45.8033 15.7324 44.9472V29.6801Z" fill="white"/>
<path fill-rule="evenodd" clip-rule="evenodd" d="M103.405 50.083C102.69 49.5122 102.118 48.5134 101.832 47.9427L104.12 46.9439C104.263 47.2293 104.549 47.6573 104.835 48.0854C105.407 48.6561 106.265 49.2269 107.124 49.2269C107.982 49.2269 108.983 48.7988 109.555 48.0854C109.984 47.372 110.27 46.6586 110.27 45.6598V44.8037C108.554 46.9439 104.978 46.6586 102.976 44.3756C100.831 42.0927 100.831 38.2403 102.976 35.9573C105.121 33.8171 108.268 33.5317 110.127 35.5293V34.5305H112.558V45.2317C112.558 47.9427 111.557 49.5122 110.27 50.511C109.412 51.2244 108.125 51.5098 106.981 51.5098C105.693 51.3671 104.406 50.9391 103.405 50.083ZM163.332 50.6534L165.763 44.9461L161.473 35.101H163.904L166.907 42.0924L169.911 35.101H172.342L165.763 50.6534H163.332ZM151.747 45.2317C151.032 44.5183 150.746 43.5195 150.746 42.5207C150.746 41.6646 151.032 40.8085 151.604 40.2378C152.605 39.239 154.036 38.8109 155.609 38.8109C156.61 38.8109 157.468 38.9536 158.183 39.3817C158.183 37.6695 156.753 36.9561 155.609 36.9561C154.608 36.9561 153.607 37.5268 153.178 38.5256L151.032 37.6695C151.461 36.6707 152.605 34.8158 155.466 34.8158C156.896 34.8158 158.326 35.2439 159.185 36.2427C160.043 37.2414 160.329 38.3829 160.329 39.9524V45.9451H157.897V44.9463C157.611 45.3744 157.039 45.6597 156.61 45.9451C156.038 46.2305 155.323 46.3731 154.608 46.3731C153.75 46.2305 152.462 45.9451 151.747 45.2317ZM75.5157 40.0951C75.5157 37.2415 77.661 34.1024 81.5227 34.1024C85.2413 34.1024 87.5296 37.2415 87.5296 40.0951C87.5296 42.9488 85.3843 46.0878 81.5227 46.0878C77.661 46.0878 75.5157 42.9488 75.5157 40.0951ZM88.3877 40.0951C88.3877 37.2415 90.5331 34.1024 94.3947 34.1024C98.1133 34.1024 100.402 37.2415 100.402 40.0951C100.402 42.9488 98.2563 46.0878 94.3947 46.0878C90.6761 46.0878 88.3877 42.9488 88.3877 40.0951ZM59.3534 43.2343C55.7779 39.6672 55.9209 33.8172 59.4965 30.1075C61.3558 28.2526 63.6441 27.3965 66.0755 27.3965C68.3639 27.3965 70.6523 28.2526 72.3686 29.9648L70.6523 31.8197C68.0779 29.2514 63.9302 29.394 61.4988 31.9623C58.9244 34.6733 58.9244 38.8111 61.4988 41.5221C64.0732 44.2331 68.3639 44.3758 70.9383 41.6648C71.7965 40.8087 72.0825 39.6672 72.2255 38.5258H66.2186V35.9575H74.6569C74.7999 36.5282 74.7999 37.2416 74.7999 37.955C74.7999 40.0953 73.9418 42.2355 72.5116 43.6623C70.9383 45.2318 68.6499 46.0879 66.3616 46.0879C63.7872 45.9453 61.2127 45.0892 59.3534 43.2343ZM119.853 44.2328C117.707 41.9498 117.707 38.0974 119.853 35.6718C121.998 33.3889 125.574 33.3889 127.576 35.6718C128.291 36.3852 128.72 37.384 129.149 38.3828L121.283 41.6645C121.712 42.6633 122.713 43.5193 124.143 43.5193C125.431 43.5193 126.289 43.0913 127.147 41.8072L129.292 43.234C129.006 43.5193 128.72 43.8047 128.577 44.0901C126.146 46.5157 121.998 46.5157 119.853 44.2328ZM134.726 45.9453V30.1075H139.875C142.879 30.1075 145.31 32.2477 145.31 34.816C145.31 37.3843 143.165 39.5246 140.447 39.5246H137.301V45.8026H134.726V45.9453ZM146.74 45.9453V30.1075H149.172V45.9453H146.74ZM114.418 45.6597V27.967H116.992V45.6597H114.418ZM158.039 41.2368C157.467 40.8087 156.609 40.6661 155.751 40.6661C154.035 40.6661 153.034 41.5222 153.034 42.5209C153.034 43.5197 154.035 44.0905 155.036 44.0905C156.466 44.0905 158.039 42.949 158.039 41.2368ZM84.8118 40.0954C84.8118 38.3832 83.6676 36.5283 81.5223 36.5283C79.3769 36.5283 78.2327 38.3832 78.2327 40.0954C78.2327 41.8075 79.3769 43.6624 81.5223 43.6624C83.5246 43.6624 84.8118 41.8075 84.8118 40.0954ZM97.6838 40.0954C97.6838 38.3832 96.5397 36.5283 94.3943 36.5283C92.249 36.5283 91.1048 38.3832 91.1048 40.0954C91.1048 41.8075 92.249 43.6624 94.3943 43.6624C96.5397 43.6624 97.6838 41.8075 97.6838 40.0954ZM110.414 41.094C110.414 40.9513 110.414 40.8086 110.557 40.6659C110.557 40.5232 110.557 40.2379 110.557 40.0952C110.557 39.9525 110.557 39.6671 110.557 39.5245V39.3818C110.557 39.2391 110.414 38.9537 110.414 38.8111C109.984 37.3842 108.697 36.3854 107.41 36.3854C105.694 36.3854 104.264 38.0976 104.264 39.9525C104.264 41.9501 105.694 43.5196 107.553 43.5196C108.697 43.6623 109.841 42.6635 110.414 41.094ZM120.854 39.8097L126.146 37.5268C125.574 36.528 124.716 36.2426 124.001 36.2426C121.855 36.3853 120.568 38.6682 120.854 39.8097ZM142.736 34.9584C142.736 33.5316 141.592 32.5328 140.018 32.5328H137.158V37.5267H140.161C141.592 37.5267 142.736 36.3852 142.736 34.9584Z" fill="white"/>
<path fill-rule="evenodd" clip-rule="evenodd" d="M165.192 47.7989H165.049V47.6562H165.192H165.049V47.7989H165.192Z" fill="white"/>
<path fill-rule="evenodd" clip-rule="evenodd" d="M165.478 47.7987C165.478 47.656 165.478 47.656 165.478 47.7987C165.335 47.656 165.335 47.656 165.478 47.7987C165.335 47.7987 165.335 47.7987 165.478 47.7987ZM165.479 47.6562C165.479 47.7989 165.479 47.7989 165.479 47.6562C165.479 47.7989 165.336 47.7989 165.479 47.6562C165.479 47.6562 165.336 47.6562 165.479 47.6562Z" fill="white"/>
<path fill-rule="evenodd" clip-rule="evenodd" d="M165.62 47.6562H165.477H165.62V47.7989V47.6562Z" fill="white"/>
<path d="M57.3516 16.1241C57.3516 13.5558 59.2109 11.9863 61.4992 11.9863C63.0725 11.9863 64.0737 12.6997 64.7888 13.6985L63.6446 14.4119C63.2155 13.8412 62.5004 13.4132 61.4992 13.4132C59.926 13.4132 58.7818 14.5546 58.7818 16.2668C58.7818 17.979 59.926 19.1205 61.4992 19.1205C62.3574 19.1205 63.0725 18.6924 63.3585 18.4071V17.1229H61.0702V15.8388H64.9318V18.8351C64.2167 19.6912 63.0725 20.2619 61.6423 20.2619C59.2109 20.2619 57.3516 18.5497 57.3516 16.1241Z" fill="white"/>
<path d="M66.6484 20.1192V12.1289H72.0833V13.4131H67.9356V15.4106H71.9403V16.6948H67.9356V18.9777H72.0833V20.2618L66.6484 20.1192Z" fill="white"/>
<path d="M76.0876 20.1192V13.4131H73.6562V12.1289H79.9493V13.4131H77.5179V20.1192H76.0876Z" fill="white"/>
<path d="M84.8125 20.1192V12.1289H86.2427V20.1192H84.8125Z" fill="white"/>
<path d="M90.1033 20.1192V13.4131H87.6719V12.1289H93.9649V13.4131H91.5335V20.1192H90.1033Z" fill="white"/>
<path fill-rule="evenodd" clip-rule="evenodd" d="M102.691 11.9863C100.259 11.9863 98.543 13.6985 98.543 16.1241C98.543 18.4071 100.259 20.2619 102.691 20.2619C105.122 20.2619 106.838 18.5497 106.838 16.1241C106.838 13.6985 105.122 11.9863 102.691 11.9863ZM102.548 13.2705C104.264 13.2705 105.265 14.412 105.265 16.1242C105.265 17.6937 104.264 18.9779 102.548 18.9779C100.832 18.9779 99.8306 17.8364 99.8306 16.1242C99.8306 14.5547 100.975 13.2705 102.548 13.2705Z" fill="white"/>
<path d="M113.988 20.1192L109.84 14.4118V20.1192H108.41V12.1289H109.84L113.988 17.6935V12.1289H115.418V20.1192H113.988Z" fill="white"/>
<defs>
<filter id="filter0_b_1737_35292" x="-23.5" y="-23.5" width="233.5" height="106" filterUnits="userSpaceOnUse" color-interpolation-filters="sRGB">
<feFlood flood-opacity="0" result="BackgroundImageFix"/>
<feGaussianBlur in="BackgroundImage" stdDeviation="12"/>
<feComposite in2="SourceAlpha" operator="in" result="effect1_backgroundBlur_1737_35292"/>
<feBlend mode="normal" in="SourceGraphic" in2="effect1_backgroundBlur_1737_35292" result="shape"/>
</filter>
<linearGradient id="paint0_linear_1737_35292" x1="1" y1="1" x2="14.2396" y2="84.9948" gradientUnits="userSpaceOnUse">
<stop stop-color="white" stop-opacity="0.4"/>
<stop offset="1" stop-color="white" stop-opacity="0"/>
</linearGradient>
<linearGradient id="paint1_linear_1737_35292" x1="186" y1="58" x2="172.663" y2="-26.1924" gradientUnits="userSpaceOnUse">
<stop stop-color="white" stop-opacity="0.4"/>
<stop offset="1" stop-color="white" stop-opacity="0"/>
</linearGradient>
</defs>
</svg>
