<svg width="23" height="23" viewBox="0 0 23 23" fill="none" xmlns="http://www.w3.org/2000/svg">
<path fill-rule="evenodd" clip-rule="evenodd" d="M7.39235 0.0206457C6.0561 0.0618003 5.23881 0.185361 4.34304 0.481621C3.85285 0.643748 3.23154 0.935798 2.85469 1.18123C2.17331 1.625 1.49939 2.30353 1.10187 2.94601C0.524605 3.87895 0.187922 5.01042 0.0721697 6.40648C0.0159511 7.08451 -0.000239345 8.22936 2.66379e-06 11.5115C0.000293074 15.6096 0.0197989 16.3657 0.147338 17.2214C0.277708 18.0958 0.473251 18.7623 0.798752 19.4415C1.11675 20.105 1.46311 20.5966 1.97114 21.1053C3.06727 22.203 4.45151 22.7629 6.48482 22.9311C7.19328 22.9897 8.82763 23.0083 12.2325 22.9967C15.7117 22.9849 16.1695 22.9749 16.8801 22.895C18.7098 22.6894 20.115 22.0487 21.2114 20.92C22.17 19.9332 22.7152 18.6325 22.9037 16.8826C22.9911 16.0715 23.0016 15.5576 22.9998 12.1647C22.998 8.60631 22.967 6.61872 22.9055 6.11615C22.7124 4.53773 22.2488 3.35412 21.4207 2.32538C20.5343 1.22415 19.3698 0.554809 17.7866 0.23646C17.1335 0.105108 16.5918 0.053163 15.5217 0.0192425C14.6879 -0.00717779 8.25998 -0.00608907 7.39235 0.0206457ZM15.2576 2.07279C15.8254 2.10204 16.7944 2.19211 17.2533 2.25829C18.3771 2.42032 19.2963 2.92516 19.8815 3.70179C20.3169 4.27965 20.5731 4.83363 20.6904 5.45081C20.7182 5.59718 20.7621 5.82582 20.7878 5.95889C20.9251 6.66771 20.939 7.08814 20.9511 10.9066C20.9627 14.5278 20.9472 15.3236 20.8455 16.3504C20.7406 17.4093 20.665 17.8089 20.4815 18.2735C20.1262 19.173 19.5919 19.7692 18.6942 20.268C18.2662 20.5058 17.9167 20.6233 17.3147 20.7317C17.155 20.7605 16.9481 20.7984 16.8549 20.816C16.7617 20.8336 16.5167 20.8593 16.3104 20.873C16.1041 20.8868 15.7501 20.9107 15.5238 20.9263C14.9556 20.9653 9.11761 20.9841 8.21414 20.9499C7.49225 20.9225 6.76536 20.8623 6.0008 20.7666C5.25638 20.6735 4.93454 20.5838 4.39144 20.3181C3.5667 19.9146 3.06122 19.3826 2.61014 18.4432C2.48468 18.1819 2.45721 18.0939 2.33551 17.5627C2.13174 16.6734 2.13803 16.7296 2.05543 15.056C2.02155 14.3696 2.03844 8.43499 2.07641 7.67669C2.12048 6.7971 2.2516 5.67146 2.36027 5.24002C2.56409 4.43084 3.0134 3.67187 3.53962 3.24796C4.14353 2.76146 4.77568 2.44785 5.40788 2.32117C6.27708 2.14699 6.4166 2.12819 7.07774 2.09618C7.37057 2.08201 7.77352 2.06229 7.97317 2.05237C8.56363 2.02304 14.6218 2.04003 15.2576 2.07279ZM17.3424 3.95117C16.857 4.07419 16.402 4.52832 16.2748 5.01657C16.1347 5.55419 16.4057 6.15641 16.9445 6.5045C17.2433 6.69759 17.6738 6.76311 17.9802 6.66217C18.4445 6.50924 18.8536 6.09936 18.9825 5.6581C19.0372 5.47074 19.0327 5.14284 18.9727 4.95131C18.8419 4.5334 18.4514 4.12946 18.0397 3.98606C17.8493 3.91974 17.5295 3.90372 17.3424 3.95117ZM10.8531 5.60877C10.0676 5.68723 9.33534 5.89915 8.7113 6.22861C7.62262 6.80337 6.7148 7.73173 6.14777 8.85011C5.87254 9.39296 5.69665 9.93893 5.60163 10.5452C5.54716 10.8929 5.52697 11.7175 5.5634 12.1072C5.69565 13.5215 6.27606 14.7305 7.2986 15.7216C8.25625 16.6498 9.39113 17.2025 10.6837 17.37C11.0802 17.4214 11.9695 17.4086 12.3826 17.3456C13.9289 17.1098 15.2229 16.3298 16.1812 15.056C16.8293 14.1945 17.1868 13.3174 17.3155 12.2736C17.3612 11.9034 17.3668 11.1244 17.3263 10.7857C17.1625 9.41491 16.6375 8.3318 15.6336 7.29345C14.7249 6.35352 13.6217 5.80477 12.293 5.63183C12.0175 5.59595 11.1244 5.58165 10.8531 5.60877ZM12.0806 7.67894C13.4376 7.86463 14.6676 8.90264 15.1126 10.2378C15.2638 10.6916 15.3018 10.9346 15.3041 11.4631C15.3056 11.8282 15.2958 11.9896 15.2608 12.1768C15.1235 12.9111 14.7872 13.5567 14.2551 14.1079C13.5825 14.8045 12.8396 15.1812 11.9293 15.2871C11.5794 15.3279 10.9501 15.3035 10.6366 15.2371C9.85922 15.0724 9.21688 14.7063 8.61198 14.0831C8.06441 13.519 7.77395 12.9564 7.63066 12.1826C7.57328 11.8727 7.5733 11.1282 7.63073 10.8099C7.73712 10.22 7.9799 9.65576 8.32249 9.20212C9.22966 8.00084 10.543 7.46854 12.0806 7.67894Z" fill="black"/>
</svg>
