<svg width="21" height="21" viewBox="0 0 21 21" fill="none" xmlns="http://www.w3.org/2000/svg">
<path fill-rule="evenodd" clip-rule="evenodd" d="M2.55556 20.7218H17.8889C19.2996 20.7218 20.4444 19.5769 20.4444 18.1662V2.8329C20.4444 1.42223 19.2996 0.277344 17.8889 0.277344H2.55556C1.14489 0.277344 0 1.42223 0 2.8329V18.1662C0 19.5769 1.14489 20.7218 2.55556 20.7218ZM15.3077 8.23476C15.3077 11.695 12.6703 15.6919 7.85055 15.6919C6.37344 15.6919 4.99344 15.2574 3.83832 14.5214C4.04277 14.547 4.25232 14.5572 4.46188 14.5572C5.68855 14.5572 6.8181 14.1381 7.71766 13.4328C6.57277 13.4123 5.60166 12.6559 5.26944 11.6132C5.42788 11.6439 5.59144 11.6592 5.7601 11.6592C6.00032 11.6592 6.23032 11.6285 6.4501 11.5672C5.2541 11.327 4.34944 10.2639 4.34944 8.99632V8.96054C4.7021 9.15476 5.10588 9.27232 5.53521 9.28765C4.83499 8.81743 4.36988 8.01499 4.36988 7.10521C4.36988 6.62476 4.49766 6.17499 4.72255 5.78654C6.01566 7.37099 7.94766 8.41877 10.125 8.5261C10.0841 8.33188 10.0585 8.13254 10.0585 7.9281C10.0585 6.48165 11.2341 5.3061 12.6805 5.3061C13.4319 5.3061 14.1117 5.62299 14.5921 6.1341C15.1901 6.01654 15.7523 5.80188 16.2583 5.50032C16.059 6.11365 15.645 6.62988 15.1032 6.95188C15.6348 6.88543 16.1408 6.74743 16.611 6.53788C16.2583 7.06432 15.8137 7.52943 15.3025 7.89743C15.3077 8.00988 15.3077 8.12232 15.3077 8.23476Z" fill="black"/>
</svg>
