<svg width="40" height="40" viewBox="0 0 40 40" fill="none" xmlns="http://www.w3.org/2000/svg">
<path fill-rule="evenodd" clip-rule="evenodd" d="M33.014 35.1872C37.2906 31.5191 40 26.076 40 20C40 8.9543 31.0457 0 20 0C8.9543 0 0 8.9543 0 20C0 26.0685 2.70273 31.5057 6.97012 35.1735C7.03601 34.6769 7.14171 34.3474 7.31714 33.8109C7.59931 32.9479 8.47192 31.3154 9.03343 30.6C9.64326 29.823 10.6473 28.8836 11.4637 28.3263C12.5228 27.6033 14.1192 26.9142 15.3045 26.6684C16.0231 26.5193 16.0956 26.5229 16.557 26.7297C16.7792 26.8292 17.3246 27.0134 17.769 27.1389C18.5336 27.3549 18.6554 27.3669 20.0316 27.3629C21.3749 27.3589 21.5416 27.3423 22.2133 27.1462C22.6133 27.0293 23.1523 26.8436 23.4112 26.7334C23.8555 26.5442 23.912 26.5381 24.4213 26.623C25.7527 26.8449 27.5797 27.6397 28.7993 28.5278C29.6173 29.1234 30.5561 30.0541 31.1426 30.8511C31.6169 31.4956 32.4077 33.0343 32.6638 33.8109C32.8417 34.3504 32.9481 34.6803 33.014 35.1872ZM31.8824 36.0891C31.8258 35.3434 31.7228 34.9219 31.537 34.3186C30.8627 32.1293 29.4739 30.3531 27.4121 29.0429C26.6303 28.546 25.8601 28.2133 24.8126 27.9199L24.108 27.7225L23.6859 27.8867C22.4095 28.3831 21.3695 28.5776 19.9911 28.5776C18.9388 28.5776 18.0284 28.4543 17.2034 28.2002C16.9367 28.1181 16.5368 27.9801 16.3145 27.8936C15.9188 27.7396 15.899 27.7392 15.3449 27.8761C14.144 28.1727 13.3567 28.5209 12.2765 29.2326C10.4484 30.4372 9.11124 32.2094 8.4425 34.314C8.26041 34.887 8.15829 35.3135 8.1015 36.0772C11.4266 38.5421 15.543 40 20 40C24.4498 40 28.5601 38.5468 31.8824 36.0891ZM13.3728 14.6263C14.1495 12.1769 16.2664 10.3744 18.9132 9.90888C19.6346 9.78204 21.0876 9.87756 21.8871 10.1045C24.1402 10.7439 25.9183 12.4465 26.6095 14.6263C27.0417 15.9896 27.0411 19.4603 26.6083 20.8159C25.87 23.1286 23.9435 24.8628 21.4456 25.4632C20.8646 25.6029 19.1177 25.6029 18.5367 25.4632C16.0388 24.8628 14.1123 23.1286 13.374 20.8159C12.9412 19.4603 12.9406 15.9896 13.3728 14.6263ZM25.5204 15.1939C24.9935 13.2045 23.35 11.641 21.284 11.1637C18.2915 10.4726 15.2339 12.2789 14.4619 15.1939C14.2785 15.8865 14.2785 19.5556 14.4619 20.2483C14.7583 21.3673 15.6073 22.624 16.498 23.2618C17.0634 23.6667 18.0986 24.1515 18.6983 24.2921C19.2702 24.4262 20.7121 24.4262 21.284 24.2921C21.8837 24.1515 22.9189 23.6667 23.4843 23.2618C24.375 22.624 25.224 21.3673 25.5204 20.2483C25.7038 19.5556 25.7038 15.8865 25.5204 15.1939Z" fill="white"/>
</svg>
