<svg width="16" height="16" viewBox="0 0 16 16" fill="none" xmlns="http://www.w3.org/2000/svg">
<path d="M1.33203 14.9935L0.801701 14.4632C0.587203 14.6777 0.523036 15.0002 0.639122 15.2805C0.755207 15.5608 1.02868 15.7435 1.33203 15.7435L1.33203 14.9935ZM3.28465 13.0409L3.81498 13.5712C4.10788 13.2783 4.10788 12.8034 3.81498 12.5105L3.28465 13.0409ZM5.03573 9.0583C4.62152 9.0583 4.28573 9.39409 4.28573 9.8083C4.28573 10.2225 4.62152 10.5583 5.03573 10.5583V9.0583ZM7.9987 10.5583C8.41291 10.5583 8.7487 10.2225 8.7487 9.8083C8.7487 9.39409 8.41291 9.0583 7.9987 9.0583V10.5583ZM5.03573 6.09534C4.62152 6.09534 4.28573 6.43113 4.28573 6.84534C4.28573 7.25955 4.62152 7.59534 5.03573 7.59534V6.09534ZM10.9617 7.59534C11.3759 7.59534 11.7117 7.25955 11.7117 6.84534C11.7117 6.43113 11.3759 6.09534 10.9617 6.09534V7.59534ZM13.9154 8.32682C13.9154 11.5945 11.2664 14.2435 7.9987 14.2435V15.7435C12.0948 15.7435 15.4154 12.4229 15.4154 8.32682H13.9154ZM2.08203 8.32682C2.08203 5.05914 4.73101 2.41016 7.9987 2.41016V0.910156C3.90259 0.910156 0.582031 4.23071 0.582031 8.32682H2.08203ZM7.9987 2.41016C11.2664 2.41016 13.9154 5.05914 13.9154 8.32682H15.4154C15.4154 4.23071 12.0948 0.910156 7.9987 0.910156V2.41016ZM7.9987 14.2435H1.33203V15.7435H7.9987V14.2435ZM3.81498 12.5105C2.74346 11.439 2.08203 9.96087 2.08203 8.32682H0.582031C0.582031 10.3747 1.41299 12.2299 2.75432 13.5712L3.81498 12.5105ZM1.86236 15.5238L3.81498 13.5712L2.75432 12.5105L0.801701 14.4632L1.86236 15.5238ZM5.03573 10.5583H7.9987V9.0583H5.03573V10.5583ZM5.03573 7.59534H10.9617V6.09534H5.03573V7.59534Z" fill="black"/>
</svg>
