<svg width="16" height="20" viewBox="0 0 16 20" fill="none" xmlns="http://www.w3.org/2000/svg">
<path d="M8 10.832C9.38071 10.832 10.5 9.71274 10.5 8.33203C10.5 6.95132 9.38071 5.83203 8 5.83203C6.61929 5.83203 5.5 6.95132 5.5 8.33203C5.5 9.71274 6.61929 10.832 8 10.832Z" stroke="black" stroke-width="1.66667" stroke-linecap="round" stroke-linejoin="round"/>
<path d="M7.9987 1.66602C6.23059 1.66602 4.5349 2.36839 3.28465 3.61864C2.03441 4.86888 1.33203 6.56457 1.33203 8.33268C1.33203 9.90935 1.66703 10.941 2.58203 12.0827L7.9987 18.3327L13.4154 12.0827C14.3304 10.941 14.6654 9.90935 14.6654 8.33268C14.6654 6.56457 13.963 4.86888 12.7127 3.61864C11.4625 2.36839 9.76681 1.66602 7.9987 1.66602V1.66602Z" stroke="black" stroke-width="1.66667" stroke-linecap="round" stroke-linejoin="round"/>
</svg>
