<svg width="16" height="18" viewBox="0 0 16 18" fill="none" xmlns="http://www.w3.org/2000/svg">
<path d="M15.8125 10.8744C15.8137 10.2798 15.6661 9.69444 15.3831 9.17155C15.1001 8.64867 14.6907 8.20492 14.1923 7.88076C13.6939 7.5566 13.1223 7.36234 12.5296 7.31568C11.9369 7.26902 11.3419 7.37144 10.7989 7.61362C10.2559 7.85579 9.78216 8.23002 9.42084 8.70218C9.05952 9.17434 8.82211 9.72943 8.73027 10.3168C8.63842 10.9043 8.69505 11.5053 8.89499 12.0652C9.09494 12.6252 9.43184 13.1261 9.87499 13.5225V17.9994L12.25 16.8748L14.625 17.9994V13.5225C14.9983 13.1896 15.297 12.7817 15.5017 12.3253C15.7063 11.869 15.8122 11.3745 15.8125 10.8744ZM13.4375 16.1231L12.25 15.5609L11.0625 16.1231V14.2291C11.8299 14.5062 12.6701 14.5062 13.4375 14.2291V16.1231ZM12.25 13.2494C11.7803 13.2494 11.3211 13.1101 10.9305 12.8491C10.5399 12.5882 10.2355 12.2172 10.0558 11.7833C9.87602 11.3493 9.82899 10.8718 9.92063 10.411C10.0123 9.95034 10.2385 9.52716 10.5706 9.19501C10.9028 8.86286 11.3259 8.63666 11.7867 8.54502C12.2474 8.45338 12.7249 8.50042 13.1589 8.68017C13.5928 8.85993 13.9638 9.16434 14.2247 9.55491C14.4857 9.94548 14.625 10.4047 14.625 10.8744C14.6242 11.504 14.3737 12.1077 13.9285 12.5529C13.4833 12.9981 12.8796 13.2486 12.25 13.2494Z" fill="black"/>
<path d="M12.8438 1.96875H11.0625V1.375C11.0616 1.06034 10.9361 0.758845 10.7137 0.536349C10.4912 0.313853 10.1897 0.18844 9.875 0.1875H5.125C4.81034 0.18844 4.50884 0.313853 4.28635 0.536349C4.06385 0.758845 3.93844 1.06034 3.9375 1.375V1.96875H2.15625C1.84159 1.96969 1.54009 2.0951 1.3176 2.3176C1.0951 2.54009 0.96969 2.84159 0.96875 3.15625V15.625C0.96969 15.9397 1.0951 16.2412 1.3176 16.4637C1.54009 16.6861 1.84159 16.8116 2.15625 16.8125H7.5V15.625H2.15625V3.15625H3.9375V4.9375H11.0625V3.15625H12.8438V6.125H14.0312V3.15625C14.0303 2.84159 13.9049 2.54009 13.6824 2.3176C13.4599 2.0951 13.1584 1.96969 12.8438 1.96875ZM9.875 3.75H5.125V1.375H9.875V3.75Z" fill="black"/>
</svg>
