<svg width="17" height="13" viewBox="0 0 17 13" fill="none" xmlns="http://www.w3.org/2000/svg">
<path d="M0 2.25C0 1.68641 0.223883 1.14591 0.622398 0.747398C1.02091 0.348883 1.56141 0.125 2.125 0.125H14.875C15.4386 0.125 15.9791 0.348883 16.3776 0.747398C16.7761 1.14591 17 1.68641 17 2.25V10.75C17 11.3136 16.7761 11.8541 16.3776 12.2526C15.9791 12.6511 15.4386 12.875 14.875 12.875H2.125C1.56141 12.875 1.02091 12.6511 0.622398 12.2526C0.223883 11.8541 0 11.3136 0 10.75V2.25ZM2.125 1.1875C1.84321 1.1875 1.57296 1.29944 1.3737 1.4987C1.17444 1.69796 1.0625 1.96821 1.0625 2.25V3.3125H15.9375V2.25C15.9375 1.96821 15.8256 1.69796 15.6263 1.4987C15.427 1.29944 15.1568 1.1875 14.875 1.1875H2.125ZM15.9375 5.4375H1.0625V10.75C1.0625 11.0318 1.17444 11.302 1.3737 11.5013C1.57296 11.7006 1.84321 11.8125 2.125 11.8125H14.875C15.1568 11.8125 15.427 11.7006 15.6263 11.5013C15.8256 11.302 15.9375 11.0318 15.9375 10.75V5.4375Z" fill="black"/>
<path d="M2.125 8.625C2.125 8.34321 2.23694 8.07296 2.4362 7.8737C2.63546 7.67444 2.90571 7.5625 3.1875 7.5625H4.25C4.53179 7.5625 4.80204 7.67444 5.0013 7.8737C5.20056 8.07296 5.3125 8.34321 5.3125 8.625V9.6875C5.3125 9.96929 5.20056 10.2395 5.0013 10.4388C4.80204 10.6381 4.53179 10.75 4.25 10.75H3.1875C2.90571 10.75 2.63546 10.6381 2.4362 10.4388C2.23694 10.2395 2.125 9.96929 2.125 9.6875V8.625Z" fill="black"/>
</svg>
