<svg width="20" height="16" viewBox="0 0 20 16" fill="none" xmlns="http://www.w3.org/2000/svg">
<mask id="path-1-inside-1_2189_36546" fill="white">
<path fill-rule="evenodd" clip-rule="evenodd" d="M0 13.9792C0 15.25 1.27083 15.25 1.27083 15.25H13.9792C13.9792 15.25 15.25 15.25 15.25 13.9792C15.25 12.7083 13.9792 8.89583 7.625 8.89583C1.27083 8.89583 0 12.7083 0 13.9792ZM10.3208 6.50834C9.60586 7.22333 8.63614 7.625 7.625 7.625C6.61386 7.625 5.64414 7.22333 4.92916 6.50834C4.21417 5.79336 3.8125 4.82364 3.8125 3.8125C3.8125 2.80136 4.21417 1.83164 4.92916 1.11666C5.64414 0.401673 6.61386 0 7.625 0C8.63614 0 9.60586 0.401673 10.3208 1.11666C11.0358 1.83164 11.4375 2.80136 11.4375 3.8125C11.4375 4.82364 11.0358 5.79336 10.3208 6.50834ZM19.235 4.20552C19.203 4.12832 19.156 4.0582 19.0969 3.99918C19.0378 3.94 18.9677 3.89305 18.8905 3.86102C18.8133 3.82899 18.7306 3.8125 18.647 3.8125C18.5634 3.8125 18.4807 3.82899 18.4035 3.86102C18.3263 3.89305 18.2561 3.94 18.1971 3.99918L14.8345 7.36307L13.3781 5.90543C13.2588 5.78611 13.097 5.71908 12.9282 5.71908C12.7595 5.71908 12.5977 5.78611 12.4784 5.90543C12.3591 6.02474 12.292 6.18657 12.292 6.3553C12.292 6.52404 12.3591 6.68586 12.4784 6.80518L14.3846 8.71143C14.4436 8.7706 14.5138 8.81755 14.591 8.84958C14.6682 8.88162 14.7509 8.8981 14.8345 8.8981C14.9181 8.8981 15.0008 8.88162 15.078 8.84958C15.1552 8.81755 15.2253 8.7706 15.2844 8.71143L19.0969 4.89893C19.156 4.8399 19.203 4.76978 19.235 4.69259C19.2671 4.61539 19.2835 4.53263 19.2835 4.44905C19.2835 4.36547 19.2671 4.28271 19.235 4.20552Z"/>
</mask>
<path fill-rule="evenodd" clip-rule="evenodd" d="M0 13.9792C0 15.25 1.27083 15.25 1.27083 15.25H13.9792C13.9792 15.25 15.25 15.25 15.25 13.9792C15.25 12.7083 13.9792 8.89583 7.625 8.89583C1.27083 8.89583 0 12.7083 0 13.9792ZM10.3208 6.50834C9.60586 7.22333 8.63614 7.625 7.625 7.625C6.61386 7.625 5.64414 7.22333 4.92916 6.50834C4.21417 5.79336 3.8125 4.82364 3.8125 3.8125C3.8125 2.80136 4.21417 1.83164 4.92916 1.11666C5.64414 0.401673 6.61386 0 7.625 0C8.63614 0 9.60586 0.401673 10.3208 1.11666C11.0358 1.83164 11.4375 2.80136 11.4375 3.8125C11.4375 4.82364 11.0358 5.79336 10.3208 6.50834ZM19.235 4.20552C19.203 4.12832 19.156 4.0582 19.0969 3.99918C19.0378 3.94 18.9677 3.89305 18.8905 3.86102C18.8133 3.82899 18.7306 3.8125 18.647 3.8125C18.5634 3.8125 18.4807 3.82899 18.4035 3.86102C18.3263 3.89305 18.2561 3.94 18.1971 3.99918L14.8345 7.36307L13.3781 5.90543C13.2588 5.78611 13.097 5.71908 12.9282 5.71908C12.7595 5.71908 12.5977 5.78611 12.4784 5.90543C12.3591 6.02474 12.292 6.18657 12.292 6.3553C12.292 6.52404 12.3591 6.68586 12.4784 6.80518L14.3846 8.71143C14.4436 8.7706 14.5138 8.81755 14.591 8.84958C14.6682 8.88162 14.7509 8.8981 14.8345 8.8981C14.9181 8.8981 15.0008 8.88162 15.078 8.84958C15.1552 8.81755 15.2253 8.7706 15.2844 8.71143L19.0969 4.89893C19.156 4.8399 19.203 4.76978 19.235 4.69259C19.2671 4.61539 19.2835 4.53263 19.2835 4.44905C19.2835 4.36547 19.2671 4.28271 19.235 4.20552Z" fill="white"/>
<path d="M10.3208 6.50834L11.3815 7.56901L11.3815 7.569L10.3208 6.50834ZM3.8125 3.8125L2.3125 3.8125V3.8125L3.8125 3.8125ZM4.92916 1.11666L5.98982 2.17732L5.98982 2.17732L4.92916 1.11666ZM10.3208 1.11666L11.3815 0.0559957L11.3815 0.0559951L10.3208 1.11666ZM19.0969 3.99918L18.0349 5.0585L18.0375 5.06117L19.0969 3.99918ZM19.235 4.20552L20.6205 3.63064L20.6205 3.63061L19.235 4.20552ZM18.8905 3.86102L18.3156 5.24648L18.3156 5.24648L18.8905 3.86102ZM18.4035 3.86102L18.9784 5.24648L18.9784 5.24648L18.4035 3.86102ZM18.1971 3.99918L19.258 5.05964L19.2591 5.0585L18.1971 3.99918ZM14.8345 7.36307L13.7734 8.42327L14.8342 9.48506L15.8954 8.42353L14.8345 7.36307ZM13.3781 5.90543L14.4392 4.84523L14.4388 4.84477L13.3781 5.90543ZM12.4784 5.90543L13.539 6.96609L13.539 6.96609L12.4784 5.90543ZM12.4784 6.80518L11.4177 7.86584L11.4177 7.86584L12.4784 6.80518ZM14.3846 8.71143L15.4466 7.6521L15.4453 7.65077L14.3846 8.71143ZM15.2844 8.71143L14.2237 7.65077L14.2224 7.6521L15.2844 8.71143ZM19.0969 4.89893L18.0375 3.83693L18.0362 3.83827L19.0969 4.89893ZM19.235 4.69259L20.6205 5.2675L20.6205 5.26747L19.235 4.69259ZM1.27083 15.25C1.27083 13.75 1.27156 13.75 1.27229 13.75C1.27252 13.75 1.27324 13.75 1.27372 13.75C1.27466 13.75 1.27559 13.75 1.27651 13.75C1.27834 13.75 1.28011 13.75 1.28182 13.75C1.28524 13.7501 1.28842 13.7501 1.29138 13.7502C1.29729 13.7503 1.30232 13.7504 1.30653 13.7505C1.31492 13.7508 1.32028 13.7511 1.3231 13.7513C1.32823 13.7517 1.32576 13.7517 1.31886 13.7506C1.29796 13.7471 1.29302 13.7429 1.30624 13.7495C1.32533 13.7591 1.39005 13.7969 1.44664 13.8818C1.5095 13.9761 1.5 14.0344 1.5 13.9792H-1.5C-1.5 14.5594 -1.35064 15.0942 -1.04951 15.5459C-0.754632 15.9882 -0.372203 16.2644 -0.0354036 16.4328C0.295523 16.5982 0.608288 16.6735 0.825667 16.7097C0.937911 16.7284 1.03473 16.7384 1.10936 16.7437C1.14692 16.7464 1.17959 16.748 1.20659 16.7489C1.22011 16.7493 1.23228 16.7496 1.243 16.7498C1.24836 16.7499 1.25337 16.7499 1.25801 16.7499C1.26033 16.75 1.26256 16.75 1.2647 16.75C1.26577 16.75 1.26681 16.75 1.26783 16.75C1.26834 16.75 1.2691 16.75 1.26935 16.75C1.27009 16.75 1.27083 16.75 1.27083 15.25ZM13.9792 13.75H1.27083V16.75H13.9792V13.75ZM13.75 13.9792C13.75 14.0344 13.7405 13.9761 13.8034 13.8818C13.86 13.7969 13.9247 13.7591 13.9438 13.7495C13.957 13.7429 13.952 13.7471 13.9311 13.7506C13.9242 13.7517 13.9218 13.7517 13.9269 13.7513C13.9297 13.7511 13.9351 13.7508 13.9435 13.7505C13.9477 13.7504 13.9527 13.7503 13.9586 13.7502C13.9616 13.7501 13.9648 13.7501 13.9682 13.75C13.9699 13.75 13.9717 13.75 13.9735 13.75C13.9744 13.75 13.9753 13.75 13.9763 13.75C13.9768 13.75 13.9775 13.75 13.9777 13.75C13.9784 13.75 13.9792 13.75 13.9792 15.25C13.9792 16.75 13.9799 16.75 13.9806 16.75C13.9809 16.75 13.9817 16.75 13.9822 16.75C13.9832 16.75 13.9842 16.75 13.9853 16.75C13.9874 16.75 13.9897 16.75 13.992 16.7499C13.9966 16.7499 14.0016 16.7499 14.007 16.7498C14.0177 16.7496 14.0299 16.7493 14.0434 16.7489C14.0704 16.748 14.1031 16.7464 14.1406 16.7437C14.2153 16.7384 14.3121 16.7284 14.4243 16.7097C14.6417 16.6735 14.9545 16.5982 15.2854 16.4328C15.6222 16.2644 16.0046 15.9882 16.2995 15.5459C16.6006 15.0942 16.75 14.5594 16.75 13.9792H13.75ZM7.625 10.3958C10.4857 10.3958 11.9818 11.2437 12.7597 12.0216C13.5815 12.8434 13.75 13.7289 13.75 13.9792H16.75C16.75 12.9586 16.2831 11.3024 14.881 9.90028C13.4349 8.45418 11.1184 7.39583 7.625 7.39583V10.3958ZM1.5 13.9792C1.5 13.7289 1.66852 12.8434 2.49035 12.0216C3.26821 11.2437 4.76425 10.3958 7.625 10.3958V7.39583C4.13158 7.39583 1.81512 8.45418 0.369027 9.90028C-1.03311 11.3024 -1.5 12.9586 -1.5 13.9792H1.5ZM7.625 9.125C9.03396 9.125 10.3852 8.56529 11.3815 7.56901L9.26019 5.44768C8.82651 5.88136 8.23831 6.125 7.625 6.125V9.125ZM3.8685 7.56901C4.86478 8.56529 6.21604 9.125 7.625 9.125V6.125C7.01169 6.125 6.42349 5.88136 5.98982 5.44768L3.8685 7.56901ZM2.3125 3.8125C2.3125 5.22146 2.87221 6.57272 3.8685 7.56901L5.98982 5.44768C5.55614 5.01401 5.3125 4.42581 5.3125 3.8125L2.3125 3.8125ZM3.8685 0.0559953C2.87221 1.05228 2.3125 2.40354 2.3125 3.8125L5.3125 3.8125C5.3125 3.19919 5.55614 2.61099 5.98982 2.17732L3.8685 0.0559953ZM7.625 -1.5C6.21604 -1.5 4.86478 -0.940291 3.8685 0.0559954L5.98982 2.17732C6.42349 1.74364 7.01169 1.5 7.625 1.5V-1.5ZM11.3815 0.0559951C10.3852 -0.940292 9.03396 -1.5 7.625 -1.5V1.5C8.23831 1.5 8.82651 1.74364 9.26019 2.17732L11.3815 0.0559951ZM12.9375 3.8125C12.9375 2.40354 12.3778 1.05228 11.3815 0.0559957L9.26019 2.17732C9.69386 2.61099 9.9375 3.19919 9.9375 3.8125H12.9375ZM11.3815 7.569C12.3778 6.57272 12.9375 5.22146 12.9375 3.8125H9.9375C9.9375 4.42581 9.69386 5.01401 9.26019 5.44768L11.3815 7.569ZM18.0375 5.06117C17.957 4.98086 17.8932 4.88545 17.8496 4.78043L20.6205 3.63061C20.5128 3.37119 20.3551 3.13555 20.1562 2.93718L18.0375 5.06117ZM18.3156 5.24648C18.2106 5.2029 18.1152 5.13902 18.0349 5.0585L20.1589 2.93986C19.9605 2.74099 19.7249 2.58321 19.4654 2.47556L18.3156 5.24648ZM18.647 5.3125C18.5333 5.3125 18.4207 5.29007 18.3156 5.24648L19.4654 2.47557C19.206 2.36791 18.9279 2.3125 18.647 2.3125V5.3125ZM18.9784 5.24648C18.8733 5.29007 18.7607 5.3125 18.647 5.3125V2.3125C18.3661 2.3125 18.088 2.36791 17.8286 2.47557L18.9784 5.24648ZM19.2591 5.0585C19.1788 5.13902 19.0834 5.2029 18.9784 5.24648L17.8286 2.47556C17.5691 2.58321 17.3335 2.74099 17.1351 2.93986L19.2591 5.0585ZM15.8954 8.42353L19.258 5.05964L17.1363 2.93872L13.7736 6.30261L15.8954 8.42353ZM12.317 6.96562L13.7734 8.42327L15.8956 6.30288L14.4392 4.84523L12.317 6.96562ZM12.9282 7.21908C12.6992 7.21908 12.4794 7.12808 12.3175 6.96609L14.4388 4.84477C14.0382 4.44415 13.4948 4.21908 12.9282 4.21908V7.21908ZM13.539 6.96609C13.377 7.12808 13.1573 7.21908 12.9282 7.21908V4.21908C12.3617 4.21908 11.8183 4.44415 11.4177 4.84477L13.539 6.96609ZM13.792 6.3553C13.792 6.58439 13.701 6.8041 13.539 6.96609L11.4177 4.84477C11.0171 5.24539 10.792 5.78874 10.792 6.3553H13.792ZM13.539 5.74452C13.701 5.90651 13.792 6.12621 13.792 6.3553H10.792C10.792 6.92186 11.0171 7.46522 11.4177 7.86584L13.539 5.74452ZM15.4453 7.65077L13.539 5.74452L11.4177 7.86584L13.324 9.77209L15.4453 7.65077ZM15.1659 7.46412C15.2709 7.50771 15.3663 7.57159 15.4466 7.6521L13.3226 9.77075C13.521 9.96961 13.7566 10.1274 14.0161 10.235L15.1659 7.46412ZM14.8345 7.3981C14.9482 7.3981 15.0608 7.42054 15.1659 7.46412L14.0161 10.235C14.2755 10.3427 14.5536 10.3981 14.8345 10.3981V7.3981ZM14.5031 7.46412C14.6082 7.42054 14.7208 7.3981 14.8345 7.3981V10.3981C15.1154 10.3981 15.3935 10.3427 15.6529 10.235L14.5031 7.46412ZM14.2224 7.6521C14.3027 7.57159 14.3981 7.50771 14.5031 7.46412L15.6529 10.235C15.9124 10.1274 16.148 9.96961 16.3464 9.77075L14.2224 7.6521ZM18.0362 3.83827L14.2237 7.65077L16.345 9.77209L20.1575 5.95959L18.0362 3.83827ZM17.8496 4.11768C17.8932 4.01265 17.957 3.91725 18.0375 3.83693L20.1562 5.96093C20.3551 5.76256 20.5128 5.52692 20.6205 5.2675L17.8496 4.11768ZM17.7835 4.44905C17.7835 4.3353 17.806 4.22271 17.8496 4.1177L20.6205 5.26747C20.7281 5.00807 20.7835 4.72996 20.7835 4.44905H17.7835ZM17.8496 4.7804C17.806 4.6754 17.7835 4.5628 17.7835 4.44905H20.7835C20.7835 4.16815 20.7281 3.89003 20.6205 3.63064L17.8496 4.7804Z" fill="black" mask="url(#path-1-inside-1_2189_36546)"/>
</svg>
