<svg width="17" height="17" viewBox="0 0 17 17" fill="none" xmlns="http://www.w3.org/2000/svg">
<path d="M6.66517 4.54715C7.38178 2.23819 7.74009 1.08371 8.38578 1.00678C8.46168 0.997739 8.53832 0.997739 8.61422 1.00678C9.25991 1.08371 9.61822 2.23819 10.3348 4.54715C10.5335 5.18745 10.6329 5.50759 10.8628 5.70422C10.8924 5.7295 10.9233 5.753 10.9554 5.77462C11.205 5.94277 11.5266 5.94277 12.1697 5.94277C14.4887 5.94277 15.6482 5.94277 15.9176 6.56189C15.9492 6.63467 15.9729 6.71097 15.9882 6.78934C16.1178 7.45601 15.1798 8.16951 13.3036 9.59653C12.7834 9.99226 12.5232 10.1901 12.4157 10.4798C12.4018 10.517 12.39 10.5551 12.3803 10.5937C12.3047 10.8942 12.4041 11.2144 12.6028 11.8547C13.3194 14.1636 13.6777 15.3181 13.1985 15.7777C13.1422 15.8317 13.0802 15.8789 13.0137 15.9183C12.4482 16.2534 11.5101 15.5399 9.63399 14.1128C9.11372 13.7171 8.85359 13.5192 8.5572 13.5017C8.5191 13.4994 8.4809 13.4994 8.4428 13.5017C8.14641 13.5192 7.88628 13.7171 7.36601 14.1128C5.4899 15.5399 4.55184 16.2534 3.98628 15.9183C3.9198 15.8789 3.8578 15.8317 3.80147 15.7777C3.32228 15.3181 3.68059 14.1636 4.3972 11.8547C4.59592 11.2144 4.69528 10.8942 4.61968 10.5937C4.60996 10.5551 4.59816 10.517 4.58433 10.4798C4.47675 10.1901 4.21662 9.99226 3.69636 9.59653C1.82025 8.16951 0.882188 7.45601 1.01184 6.78934C1.02708 6.71097 1.05076 6.63467 1.08243 6.56189C1.35184 5.94277 2.51134 5.94277 4.83034 5.94277C5.47342 5.94277 5.79496 5.94277 6.04463 5.77462C6.07673 5.753 6.10763 5.7295 6.13718 5.70422C6.36709 5.50759 6.46645 5.18745 6.66517 4.54715Z" stroke="black" stroke-width="1.5"/>
</svg>
