<svg width="37" height="30" viewBox="0 0 37 30" fill="none" xmlns="http://www.w3.org/2000/svg">
<path fill-rule="evenodd" clip-rule="evenodd" d="M0.211395 0.18925C-0.0704651 0.44086 -0.0704651 22.6216 0.211395 22.8732C0.357924 23.004 2.52648 23.0471 8.9739 23.0471H17.5417V23.9128V24.7786L14.681 24.8182C12.0047 24.8551 11.8061 24.8768 11.6001 25.1541C11.4123 25.4069 11.4167 25.4977 11.6302 25.7697C11.8793 26.0872 11.9075 26.089 16.983 26.089H22.0852V27.8707C22.0852 29.0632 22.1496 29.7099 22.2799 29.8262C22.423 29.9539 23.8184 30 27.548 30C32.3977 30 32.6286 29.9877 32.7892 29.7199C32.8905 29.551 32.9572 28.1696 32.9572 26.2434V23.0471H34.5474C35.5679 23.0471 36.2074 22.9848 36.3324 22.8732C36.6142 22.6216 36.6142 0.44086 36.3324 0.18925C36.0497 -0.0630835 0.494067 -0.0630835 0.211395 0.18925ZM35.0667 9.43087V17.6875H34.0119H32.9572V16.157C32.9572 15.3152 32.8816 14.5004 32.7892 14.3463C32.6286 14.0785 32.3975 14.0662 27.5353 14.0662C23.5416 14.0662 22.4117 14.1069 22.2731 14.2558C22.1762 14.3602 22.0759 15.1586 22.0505 16.0302L22.0041 17.6151L11.7406 17.6523L1.47709 17.6897V9.43189V1.17425H18.2719H35.0667V9.43087ZM2.75852 2.31613C2.42555 2.55673 2.40397 2.63321 2.57484 2.96797L2.76826 3.34705H12.9003C18.4729 3.34705 23.1477 3.3075 23.2889 3.25912C23.6611 3.13165 23.6207 2.37914 23.2318 2.19329C23.0252 2.09465 19.5347 2.04337 13.0269 2.04337C3.58317 2.04337 3.1186 2.05568 2.75852 2.31613ZM25.3343 2.32974C25.012 2.61742 25.0409 3.01678 25.3999 3.23623C25.4956 3.29475 25.9589 3.34357 26.4293 3.34487C27.1957 3.34676 27.3049 3.3075 27.4782 2.96797C27.6491 2.63321 27.6275 2.55673 27.2945 2.31613C26.7845 1.94748 25.7546 1.95457 25.3343 2.32974ZM31.4968 20.6594V25.9492L27.4806 25.9104L23.4645 25.8717L23.422 20.6208L23.3793 15.3698H27.4381H31.4968V20.6594ZM24.7878 16.5039C24.4864 16.8011 24.4306 17.7037 24.6872 18.1316C24.8749 18.4448 25.4868 18.504 25.7849 18.2379C25.892 18.1423 25.9796 17.7317 25.9796 17.3254C25.9796 16.2875 25.4072 15.8929 24.7878 16.5039ZM22.0041 20.3673V21.8158L11.7406 21.853L1.47709 21.8904V20.3673V18.8441L11.7406 18.8815L22.0041 18.9187V20.3673ZM35.0667 20.3673V21.8882H34.0119H32.9572V20.3673V18.8463H34.0119H35.0667V20.3673ZM24.7719 19.7477C24.5713 20.0033 24.5192 20.5042 24.5192 22.1779C24.5192 24.4023 24.6703 24.9301 25.3074 24.9301C25.9134 24.9301 25.9796 24.6567 25.9796 22.154C25.9796 19.9014 25.9569 19.7147 25.6658 19.5757C25.2097 19.3578 25.0544 19.3876 24.7719 19.7477ZM22.0852 23.9162V24.7853H20.5436H19.0021V23.9162V23.0471H20.5436H22.0852V23.9162ZM31.4646 28.0083L31.4156 28.7688H27.4401H23.4645L23.4155 28.0083L23.3663 27.2478H27.4401H31.5138L31.4646 28.0083Z" fill="black"/>
</svg>
