<svg width="12" height="10" viewBox="0 0 12 10" fill="none" xmlns="http://www.w3.org/2000/svg">
    <path fill-rule="evenodd" clip-rule="evenodd" d="M4.63897 7.95115L4.18886 8.40133L1 5.21197L1.70753 4.50433L4.2041 7.00129L9.60689 1.59766L10.3144 2.30529L4.6542 7.96639L4.63897 7.95115Z" fill="#5E97FF"/>
    <path d="M4.63897 7.95115L4.99255 7.59762L4.63897 7.24399L4.28539 7.59763L4.63897 7.95115ZM4.18886 8.40133L3.83528 8.75485L4.18886 9.10849L4.54245 8.75485L4.18886 8.40133ZM1 5.21197L0.646419 4.85844L0.292948 5.21197L0.646419 5.56549L1 5.21197ZM1.70753 4.50433L2.06111 4.1508L1.70753 3.79717L1.35395 4.1508L1.70753 4.50433ZM4.2041 7.00129L3.85052 7.35482L4.2041 7.70845L4.55768 7.35482L4.2041 7.00129ZM9.60689 1.59766L9.96047 1.24413L9.60689 0.890494L9.25331 1.24413L9.60689 1.59766ZM10.3144 2.30529L10.668 2.65882L11.0215 2.30529L10.668 1.95177L10.3144 2.30529ZM4.6542 7.96639L4.30063 8.31992L4.65421 8.67355L5.00778 8.31991L4.6542 7.96639ZM4.28539 7.59763L3.83528 8.0478L4.54245 8.75485L4.99255 8.30468L4.28539 7.59763ZM4.54245 8.0478L1.35358 4.85844L0.646419 5.56549L3.83528 8.75485L4.54245 8.0478ZM1.35358 5.56549L2.06111 4.85786L1.35395 4.1508L0.646419 4.85844L1.35358 5.56549ZM1.35395 4.85786L3.85052 7.35482L4.55768 6.64776L2.06111 4.1508L1.35395 4.85786ZM4.55768 7.35482L9.96047 1.95118L9.25331 1.24413L3.85052 6.64776L4.55768 7.35482ZM9.25331 1.95118L9.96083 2.65882L10.668 1.95177L9.96047 1.24413L9.25331 1.95118ZM9.96083 1.95177L4.30062 7.61286L5.00778 8.31991L10.668 2.65882L9.96083 1.95177ZM5.00778 7.61286L4.99255 7.59762L4.28539 8.30468L4.30063 8.31992L5.00778 7.61286Z" fill="#5E97FF"/>
</svg>
