<svg width="13" height="18" viewBox="0 0 13 18" fill="none" xmlns="http://www.w3.org/2000/svg">
<path fill-rule="evenodd" clip-rule="evenodd" d="M5.26473 1.12387C4.20318 1.39685 3.33126 1.91291 2.56739 2.72056C1.46736 3.88361 0.919449 5.39715 1.00958 7.0239C1.14267 9.42804 2.29041 12.1855 4.15859 14.5899C4.87136 15.5072 6.1995 16.935 6.38315 16.9813C6.66536 17.0524 6.80286 16.9522 7.5628 16.1218C9.5319 13.9702 10.7459 12.0349 11.4317 9.95487C12.4955 6.72794 12.1463 4.39891 10.328 2.59337C9.63696 1.90718 9.02063 1.51975 8.14919 1.22359C7.40771 0.97166 6.04068 0.924424 5.26473 1.12387ZM7.6122 4.31535C8.13731 4.58404 8.66466 5.1549 8.87105 5.67791C8.9903 5.98007 9.02627 6.20991 9.02857 6.68309C9.03115 7.23125 9.0091 7.34406 8.82089 7.74281C8.44496 8.53962 7.89963 9.00401 7.09741 9.2104C6.54231 9.3532 6.04761 9.30065 5.50227 9.04102C4.89328 8.75106 4.56024 8.42354 4.26556 7.82467C4.02482 7.33547 4.00935 7.26588 4.01206 6.68664C4.01573 5.9222 4.18581 5.44432 4.63151 4.94653C5.20161 4.30962 5.81441 4.04795 6.65606 4.08196C7.10264 4.10002 7.27231 4.14147 7.6122 4.31535Z" stroke="black" stroke-width="1.3"/>
</svg>
