<svg width="81" height="81" viewBox="0 0 81 81" fill="none" xmlns="http://www.w3.org/2000/svg">
    <path fill-rule="evenodd" clip-rule="evenodd" d="M66.9355 71.1834C75.5481 63.7565 81 52.7649 81 40.5C81 18.1325 62.8675 0 40.5 0C18.1325 0 0 18.1325 0 40.5C0 52.7649 5.4519 63.7564 14.0645 71.1833C14.1261 65.9658 14.2532 65.5402 14.988 63.3789C15.556 61.7083 17.3125 58.5482 18.4428 57.1632C19.6704 55.6591 21.6913 53.8406 23.3348 52.7619C25.4667 51.3624 28.6801 50.0284 31.0661 49.5526C32.5126 49.2639 32.6586 49.2709 33.5872 49.6711C34.0345 49.8639 35.1324 50.2204 36.027 50.4634C37.566 50.8814 37.8112 50.9047 40.5813 50.8969C43.2854 50.8891 43.621 50.8571 44.973 50.4774C45.7781 50.2512 46.8632 49.8917 47.3843 49.6784C48.2788 49.3122 48.3925 49.3002 49.4175 49.4646C52.0977 49.8943 55.7752 51.4328 58.2303 53.1519C59.8768 54.3048 61.7665 56.1066 62.9471 57.6494C63.9018 58.897 65.4937 61.8755 66.0092 63.3789C66.7455 65.5268 66.8735 65.9583 66.9355 71.1834ZM64.5694 73.0749C64.5489 67.4388 64.4189 66.4782 63.741 64.3617C62.3836 60.1236 59.5883 56.6854 55.438 54.1491C53.8641 53.1872 52.3139 52.5431 50.2052 51.9752L48.7869 51.5931L47.9372 51.9109C45.3679 52.8718 43.2746 53.2483 40.5 53.2483C38.3818 53.2483 36.5491 53.0097 34.8884 52.5178C34.3517 52.3588 33.5465 52.0918 33.0992 51.9242C32.3026 51.6261 32.2627 51.6253 31.1474 51.8904C28.73 52.4646 27.1453 53.1385 24.9709 54.5162C21.291 56.8481 18.5995 60.2787 17.2533 64.3529C16.5924 66.3529 16.4549 67.4309 16.4319 73.0759C23.1606 78.0555 31.4864 81 40.5 81C49.5141 81 57.8405 78.0551 64.5694 73.0749ZM27.1777 26.2415C28.7411 21.5 33.0023 18.0107 38.3302 17.1095C39.7822 16.864 42.7071 17.0489 44.3164 17.4881C48.8518 18.726 52.431 22.0219 53.8223 26.2415C54.6924 28.8807 54.6911 35.5991 53.8199 38.2232C52.3337 42.7002 48.4559 46.0572 43.4278 47.2196C42.2581 47.4899 38.7419 47.4899 37.5722 47.2196C32.5441 46.0572 28.6663 42.7002 27.1801 38.2232C26.3089 35.5991 26.3076 28.8807 27.1777 26.2415ZM51.6299 27.3403C50.5694 23.4891 47.2612 20.4625 43.1025 19.5387C37.0787 18.2007 30.9239 21.6975 29.3701 27.3403C29.0008 28.6811 29.0008 35.7837 29.3701 37.1245C29.9665 39.2907 31.6757 41.7234 33.4685 42.9581C34.6066 43.7419 36.6905 44.6802 37.8975 44.9524C39.0488 45.2122 41.9512 45.2122 43.1025 44.9524C44.3095 44.6802 46.3934 43.7419 47.5315 42.9581C49.3243 41.7234 51.0335 39.2907 51.6299 37.1245C51.9992 35.7837 51.9992 28.6811 51.6299 27.3403Z" fill="#5E97FF"/>
</svg>
