<svg width="75" height="55" viewBox="0 0 75 55" fill="none" xmlns="http://www.w3.org/2000/svg">
    <path d="M0.5 8.90625C0.5 4.81286 3.87536 1.4375 7.96875 1.4375H66.4062C70.4996 1.4375 73.875 4.81286 73.875 8.90625V46.0938C73.875 50.1871 70.4996 53.5625 66.4062 53.5625H7.96875C3.87536 53.5625 0.5 50.1871 0.5 46.0938V8.90625ZM66.4062 5.75H7.96875C6.18917 5.75 4.8125 7.12667 4.8125 8.90625V46.0938C4.8125 47.8733 6.18917 49.25 7.96875 49.25H66.4062C68.1858 49.25 69.5625 47.8733 69.5625 46.0938V8.90625C69.5625 7.12667 68.1858 5.75 66.4062 5.75ZM63.25 19.0312H12V14.7188H63.25V19.0312ZM63.25 29.6562H12V25.3438H63.25V29.6562ZM24.2812 40.2812H12V35.9688H24.2812V40.2812Z" fill="#5E97FF" stroke="#F5F6FA"/>
</svg>
