<svg width="23" height="27" viewBox="0 0 23 27" fill="none" xmlns="http://www.w3.org/2000/svg">
    <path fill-rule="evenodd" clip-rule="evenodd" d="M11.6913 1.02928C11.4673 1.10282 11.3298 1.20363 11.1912 1.39603C11.0799 1.5505 11.0445 1.67432 11.0234 1.98296L11.0068 2.22564L10.6782 2.27259C9.1558 2.49014 7.7017 3.12271 6.4617 4.10688C6.07465 4.41405 5.45814 5.02606 5.15116 5.40781C4.02636 6.80657 3.39016 8.40187 3.24557 10.1863C3.22769 10.4068 3.21712 12.0275 3.21701 14.5601L3.21682 18.5836L2.15955 19.8061C1.57803 20.4785 1.07938 21.0775 1.05143 21.1373C1.02347 21.1971 1.00034 21.28 1.00001 21.3215C0.998695 21.4867 1.14233 21.6842 1.30921 21.7468C1.36318 21.767 4.55208 21.7757 11.9473 21.7757H22.5084L22.6303 21.7146C22.8017 21.6287 22.8762 21.5076 22.875 21.3167C22.8744 21.233 22.8591 21.1384 22.8408 21.1064C22.8225 21.0745 22.3301 20.4956 21.7465 19.82L20.6856 18.5915L20.6853 14.7707C20.6851 10.9642 20.671 10.2214 20.5883 9.62845C20.4632 8.73195 20.2021 7.89282 19.7823 7.03781C18.5237 4.47472 16.0364 2.67395 13.1972 2.27033C12.8169 2.2163 12.8549 2.24944 12.8549 1.97172C12.8549 1.55297 12.6829 1.25441 12.3479 1.09165C12.1609 1.00081 11.8639 0.972582 11.6913 1.02928ZM12.9644 3.61427C13.8524 3.75083 14.5629 3.97743 15.3191 4.36526C15.7608 4.59178 16.2767 4.92965 16.6333 5.22604C16.9482 5.48771 17.463 6.0077 17.7008 6.30431C18.3552 7.12061 18.9154 8.28717 19.1229 9.26547C19.2798 10.0054 19.2701 9.69582 19.2818 14.3185L19.2925 18.5836L19.9709 19.4801L20.6494 20.3766L16.3004 20.3835C13.9084 20.3873 9.99151 20.3873 7.59615 20.3835L3.24097 20.3766L3.91356 19.4872L4.58617 18.5978L4.58628 14.7194C4.58636 10.837 4.59789 10.2514 4.68507 9.70014C5.05256 7.37666 6.56615 5.34285 8.70685 4.29607C9.50122 3.90764 10.311 3.67819 11.2532 3.5746C11.5832 3.53831 12.628 3.56254 12.9644 3.61427ZM7.33522 23.0119C7.40455 23.7709 7.8354 24.4766 8.55086 25.0029C9.23495 25.5062 10.0702 25.8207 11.1026 25.9636C11.491 26.0174 12.4903 26.0102 12.8823 25.9508C14.0599 25.7722 14.9995 25.3594 15.6665 24.7275C16.0564 24.3581 16.2946 24.0063 16.4418 23.5823C16.5014 23.4105 16.5786 23.0178 16.5786 22.886V22.808H15.8804H15.1822V22.8983C15.1822 23.1245 15.0204 23.4334 14.773 23.6792C14.2429 24.2062 13.3836 24.5392 12.324 24.6284C11.9482 24.66 11.6136 24.6471 11.1721 24.584C9.88076 24.3992 8.86259 23.7345 8.72295 22.9852C8.70657 22.8972 8.69316 22.8214 8.69316 22.8166C8.69316 22.8119 8.38344 22.808 8.00488 22.808H7.31661L7.33522 23.0119Z" fill="white" stroke="white" stroke-width="0.2"/>
</svg>
