<svg width="16" height="12" viewBox="0 0 16 12" fill="none" xmlns="http://www.w3.org/2000/svg">
    <path d="M14 0H2C1.17275 0 0.5 0.67275 0.5 1.5V10.5C0.5 11.3273 1.17275 12 2 12H14C14.8273 12 15.5 11.3273 15.5 10.5V1.5C15.5 0.67275 14.8273 0 14 0ZM8.375 9C7.87772 9 7.40081 8.80246 7.04917 8.45082C6.69754 8.09919 6.5 7.62228 6.5 7.125C6.5 6.62772 6.69754 6.15081 7.04917 5.79917C7.40081 5.44754 7.87772 5.25 8.375 5.25C8.782 5.25094 9.17737 5.38589 9.5 5.634C9.047 5.976 8.75 6.51375 8.75 7.125C8.75 7.73625 9.047 8.274 9.5 8.616C9.17737 8.86411 8.782 8.99906 8.375 9ZM11.375 9C10.8777 9 10.4008 8.80246 10.0492 8.45082C9.69754 8.09919 9.5 7.62228 9.5 7.125C9.5 6.62772 9.69754 6.15081 10.0492 5.79917C10.4008 5.44754 10.8777 5.25 11.375 5.25C11.8723 5.25 12.3492 5.44754 12.7008 5.79917C13.0525 6.15081 13.25 6.62772 13.25 7.125C13.25 7.62228 13.0525 8.09919 12.7008 8.45082C12.3492 8.80246 11.8723 9 11.375 9Z" fill="black"/>
</svg>
