<svg width="46" height="28" viewBox="0 0 46 28" fill="none" xmlns="http://www.w3.org/2000/svg">
    <path fill-rule="evenodd" clip-rule="evenodd" d="M12.7029 0.0395439C10.8347 0.366479 10.3565 0.473138 9.55001 0.743642C5.07694 2.24307 1.65431 5.90063 0.371473 10.5523C-0.12868 12.3661 -0.122989 15.6346 0.383777 17.5013C1.78719 22.6724 5.89268 26.5567 11.2044 27.7392C12.91 28.1189 15.8139 28.079 17.5475 27.6522C18.6933 27.37 21.1306 26.3632 21.8896 25.8582C22.0235 25.7692 21.7501 25.4013 20.958 24.6048C16.3101 19.9307 15.177 13.0625 18.1067 7.32244C18.9617 5.64722 19.4769 4.93707 20.8814 3.49771L22.0718 2.27786L21.2473 1.81189C20.1643 1.20008 18.6663 0.617014 17.4508 0.334103C16.4622 0.104144 13.4142 -0.0849668 12.7029 0.0395439ZM29.7839 0.10596C28.3116 0.308989 26.7861 0.804915 25.2679 1.57407L23.9142 2.26001L25.125 3.48878C26.5171 4.90136 27.1015 5.70244 27.9319 7.3353C29.1793 9.7889 29.7541 12.8572 29.4569 15.4781C29.0549 19.0258 27.6601 21.9444 25.1173 24.5585L23.9186 25.7907L25.5008 26.5532C27.7119 27.6186 29.3499 27.9938 31.7739 27.99C33.9083 27.9868 35.2565 27.7483 37.0824 27.0508C41.261 25.4547 44.5955 21.6725 45.7243 17.2487C46.1268 15.6716 46.0807 12.0714 45.6374 10.4665C44.232 5.37717 40.2134 1.54835 35.0037 0.334709C33.7507 0.0428723 31.0876 -0.0739227 29.7839 0.10596ZM21.5944 4.3074C19.6484 6.29307 18.5728 8.23789 17.9103 10.9677C17.4848 12.7219 17.5665 16.0615 18.0777 17.804C18.7855 20.2171 20.1178 22.3577 22.0798 24.2338L23.0291 25.1415L24.3919 23.7483C27.1552 20.923 28.3903 17.9186 28.3903 14.0218C28.3903 10.8083 27.5441 8.17934 25.7308 5.75887C25.065 4.8702 23.2052 2.97773 22.9975 2.97773C22.9425 2.97773 22.3111 3.57607 21.5944 4.3074Z" fill="white"/>
</svg>
