<svg width="64" height="20" viewBox="0 0 64 20" fill="none" xmlns="http://www.w3.org/2000/svg">
    <path fill-rule="evenodd" clip-rule="evenodd" d="M38.5704 0.443161C34.2047 1.64301 31.9573 5.40826 33.7837 8.46325C34.5671 9.77387 35.3367 10.3995 37.5937 11.5613C40.4636 13.0382 41.1646 14.6035 39.3789 15.5472C38.26 16.1385 35.3139 16.0664 33.4298 15.4018C32.5709 15.0989 31.8281 14.8919 31.7792 14.9419C31.7303 14.9916 31.5482 15.9097 31.3744 16.9819C30.9986 19.2994 30.9821 19.2808 33.8377 19.773C36.501 20.232 39.7766 19.9773 41.6175 19.168C43.4427 18.3655 45.2699 16.4037 45.5345 14.9619C46.1174 11.7863 45.0401 10.014 41.3762 8.12019C40.1942 7.50937 39.0597 6.80347 38.8554 6.5517C38.3291 5.90366 38.6856 4.79452 39.5495 4.39215C40.5438 3.92931 43.2748 3.98484 44.6637 4.49624C45.2895 4.72649 45.8204 4.91721 45.8434 4.91954C45.9934 4.93524 46.5029 1.0723 46.3783 0.866174C46.1362 0.46642 43.5246 -0.0205531 41.7338 0.000670271C40.8417 0.0111366 39.4184 0.210286 38.5704 0.443161ZM2.143 1.09614C3.32161 1.53137 4.92182 2.26691 5.69903 2.73121C7.6392 3.88977 10.2823 6.51768 11.2669 8.2673C11.717 9.06681 12.0862 9.64333 12.0879 9.54884C12.1041 8.49494 10.321 1.26506 9.9381 0.83245C9.48492 0.320765 9.03287 0.273666 4.72098 0.288493L0 0.304774L2.143 1.09614ZM15.9495 6.1595C14.7217 9.39766 13.5561 12.3715 13.3593 12.7681L13.0014 13.4897L12.6939 12.332C12.1266 10.1954 9.24424 6.42988 6.81704 4.65352C5.49335 3.6851 5.45921 3.67667 5.62876 4.36279C5.72492 4.7515 6.73796 8.37167 7.88015 12.4079L9.95687 19.7465L12.6959 19.7488L15.4351 19.7512L19.3468 10.5205C21.4983 5.44344 23.3213 1.06096 23.3975 0.78099C23.5224 0.322508 23.2718 0.272212 20.8588 0.272212H18.1818L15.9495 6.1595ZM25.7433 0.49026C25.7422 0.610041 25.0387 4.89483 24.1798 10.0117C23.321 15.1285 22.618 19.4133 22.6175 19.5331C22.6169 19.6529 23.7685 19.7512 25.1767 19.7512C26.5848 19.7512 27.737 19.6767 27.737 19.586C27.737 19.4953 28.4411 15.2286 29.3017 10.1047C30.1622 4.98088 30.8663 0.672548 30.8663 0.530381C30.8663 0.388504 29.7142 0.272212 28.306 0.272212C26.8978 0.272212 25.7448 0.370479 25.7433 0.49026ZM54.5659 0.56585C54.2231 0.706855 53.7535 1.12376 53.5225 1.49212C53.0935 2.17679 45.6594 19.281 45.6594 19.584C45.6594 19.6759 46.8502 19.7512 48.3056 19.7512H50.9522L51.4637 18.2975L51.9752 16.8439H55.332H58.6889L59.03 18.2975L59.3711 19.7512H61.7343C63.84 19.7512 64.0847 19.6956 63.98 19.2424C63.9154 18.9624 63.0264 14.8087 62.0046 10.0117C60.9824 5.21463 60.0786 1.06096 59.9956 0.78099C59.8675 0.348383 59.4969 0.27483 57.5174 0.290529C56.237 0.300705 54.909 0.424555 54.5659 0.56585ZM57.1413 9.4811L57.8238 12.73L55.7238 12.8245C54.5685 12.8765 53.6237 12.8341 53.6243 12.73C53.6249 12.5698 55.0094 8.81649 55.9676 6.37755C56.3132 5.49751 56.2939 5.44634 57.1413 9.4811Z" fill="white"/>
</svg>
