<svg width="40" height="37" viewBox="0 0 40 37" fill="none" xmlns="http://www.w3.org/2000/svg">
<path fill-rule="evenodd" clip-rule="evenodd" d="M18.9313 0.0507146C17.6096 0.372477 15.7262 1.17178 14.7322 1.83285C13.4989 2.65293 12.002 4.13032 11.4524 5.07018C11.1317 5.61809 11.0879 5.63331 9.59045 5.70887C7.7256 5.80305 6.73123 6.20808 5.48051 7.38322C4.20964 8.57716 3.64864 9.8481 3.5481 11.7606L3.46823 13.2826L2.54624 14.2674C1.41959 15.4708 0.938092 16.2445 0.475489 17.5953C-1.00002 21.9027 1.06359 26.8213 5.21043 28.881L6.61072 29.5766L11.2294 29.6325C15.3927 29.683 15.8815 29.6581 16.1865 29.3809C16.5876 29.0163 16.6224 28.4366 16.2721 27.9545C16.0369 27.6312 15.7121 27.6007 11.5926 27.5175C7.20595 27.4288 7.15657 27.4235 6.16576 26.9346C3.48428 25.612 1.7148 22.1877 2.26404 19.3839C2.63483 17.4911 3.38766 16.3492 5.36963 14.6745C5.99855 14.1431 6.04116 14.05 5.90157 13.5107C5.81814 13.1882 5.75112 12.429 5.75236 11.8236C5.75557 10.4109 6.42425 9.23967 7.66855 8.46686C8.62709 7.8715 10.0869 7.65449 10.9943 7.97213C11.8245 8.26292 12.3013 7.98001 12.9611 6.80576C14.5477 3.9817 17.775 2.09159 21.01 2.09159C23.7427 2.09159 25.7746 2.93548 27.7107 4.87483C29.1891 6.35562 29.9227 7.72128 30.353 9.79474C30.5029 10.5169 30.6632 11.1686 30.7092 11.2433C30.755 11.318 31.25 11.5126 31.8089 11.6757C32.368 11.839 33.1486 12.1361 33.5438 12.3357C36.6023 13.8822 38.3759 17.6286 37.6668 21.0448C37.2043 23.2722 35.9848 25.0739 34.12 26.2845C32.454 27.366 31.6683 27.5175 27.7232 27.5175C24.8857 27.5175 24.1987 27.5673 23.8734 27.7963C23.3785 28.1444 23.3494 28.9574 23.8165 29.3822C24.1213 29.6592 24.5722 29.6846 28.2286 29.6307C31.9201 29.5763 32.4007 29.5333 33.3639 29.1711C36.195 28.1064 38.5032 25.6788 39.5334 22.683C40.0598 21.1521 40.1067 18.2789 39.6314 16.6846C38.7688 13.7907 36.8947 11.5822 34.2196 10.3074C32.6585 9.56322 32.5628 9.48515 32.3838 8.80617C31.5944 5.81201 29.6162 3.08302 27.1447 1.57842C25.3471 0.484208 23.824 0.0670086 21.427 0.0125757C20.2504 -0.0141036 19.1274 0.00308582 18.9313 0.0507146ZM16.478 16.7294C13.7138 19.482 12.9593 20.3726 12.9593 20.8835C12.9593 21.2425 13.6751 21.7877 14.1461 21.7877C14.5115 21.7877 15.1023 21.3091 16.7309 19.6933L18.8421 17.5989L18.8448 26.8107C18.8468 33.8516 18.9003 36.1281 19.0717 36.4703C19.2384 36.8031 19.4621 36.9319 19.9435 36.9725C21.196 37.078 21.1596 37.3795 21.1596 26.9053V17.5989L23.2708 19.6933C25.5416 21.946 25.9618 22.1569 26.7014 21.414C27.3583 20.7542 27.041 20.2808 23.6817 16.9084C21.0466 14.2631 20.4298 13.7302 20.0028 13.7302C19.578 13.7302 18.9724 14.2455 16.478 16.7294Z" fill="black"/>
</svg>
