<svg width="54" height="54" viewBox="0 0 54 54" fill="none" xmlns="http://www.w3.org/2000/svg">
<circle cx="27" cy="27" r="27" fill="#F5F6FA"/>
<path fill-rule="evenodd" clip-rule="evenodd" d="M17.0476 12.8994C16.8056 12.9699 16.5392 13.2472 16.4683 13.5025C16.4313 13.636 16.4101 15.0281 16.41 17.3515L16.4096 20.9914L14.7419 22.3108C13.8247 23.0364 13.0254 23.6985 12.9658 23.7823C12.8601 23.9308 12.8574 24.1354 12.8574 32.1455C12.8574 39.0254 12.8701 40.387 12.9357 40.5441C13.0457 40.8072 13.2843 41.0102 13.5676 41.0815C13.7375 41.1242 17.7592 41.142 27.0771 41.1412C39.8938 41.14 40.3524 41.1364 40.5757 41.035C40.8242 40.9221 40.9934 40.7209 41.0972 40.4151C41.1451 40.2739 41.1622 38.0678 41.1622 32.0271V23.8309L40.9789 23.6362C40.8782 23.5292 40.0852 22.8938 39.2169 22.2242L37.6382 21.0068L37.61 17.2464L37.5818 13.4861L37.4527 13.3051C37.3817 13.2055 37.2421 13.0659 37.1426 12.995L36.9616 12.8658L27.0944 12.8565C21.1696 12.8509 17.1555 12.8681 17.0476 12.8994ZM35.7918 20.9316L35.8062 27.1931L33.3047 29.6852L30.8033 32.1773H27.0121H23.2209L20.7173 29.6864L18.2139 27.1955V20.9563C18.2139 17.5247 18.2309 14.7001 18.2517 14.6794C18.2724 14.6586 22.2243 14.648 27.0335 14.6559L35.7775 14.6701L35.7918 20.9316ZM26.4656 16.2802C25.9509 16.3473 25.3994 16.4964 24.9216 16.6976C22.7029 17.6323 21.4381 20.2622 21.9664 22.8426C22.3695 24.812 23.8696 26.1005 26.1358 26.424C26.7371 26.5098 28.1629 26.4952 28.7234 26.3975C30.0393 26.168 31.169 25.513 31.801 24.613C31.9569 24.3911 32.0844 24.1881 32.0844 24.162C32.0844 24.1358 31.84 24.1144 31.5415 24.1144H30.9986L30.6013 24.4892C30.152 24.9131 29.5715 25.2152 28.8705 25.3902C28.5269 25.4761 28.236 25.4957 27.3199 25.4949C26.0094 25.4939 25.7165 25.4388 24.874 25.035C24.1837 24.704 23.4921 24.05 23.24 23.4898C22.9707 22.891 22.8758 22.4151 22.8814 21.6899C22.8978 19.5324 24.1046 17.8565 25.9738 17.3952C26.6754 17.2221 27.9114 17.2221 28.5499 17.3952C29.1302 17.5526 29.593 17.8054 29.949 18.1594C30.5671 18.7742 30.8444 19.3735 30.888 20.1893C30.9213 20.8121 30.8436 21.1861 30.5554 21.789C30.2847 22.3551 29.8337 22.8395 29.3645 23.0676C28.7085 23.3865 28.7008 23.2751 29.2058 20.7777C29.4274 19.6824 29.6218 18.7418 29.638 18.6875C29.6649 18.5972 29.6075 18.5888 28.9623 18.5888H28.2572L28.2191 18.8425C28.1982 18.9821 28.1635 19.0963 28.1422 19.0963C28.1207 19.0963 28.0188 19.0091 27.9156 18.9026C27.8124 18.7962 27.5996 18.6539 27.4428 18.5864C27.1985 18.4813 27.0806 18.4671 26.6186 18.4874C26.1781 18.5067 26.0208 18.5392 25.7585 18.6652C25.1601 18.9528 24.6232 19.5503 24.2452 20.3498C23.9926 20.8837 23.8929 21.4248 23.9171 22.1292C23.9348 22.6463 23.9598 22.7779 24.0908 23.0455C24.2966 23.4658 24.6928 23.8663 25.0823 24.0478C25.355 24.1749 25.4786 24.1971 25.9103 24.1964C26.4547 24.1956 26.7756 24.0943 27.158 23.8026C27.2584 23.726 27.3519 23.6634 27.3657 23.6634C27.3795 23.6634 27.4226 23.7402 27.4615 23.834C27.5665 24.0876 27.8107 24.2338 28.1857 24.2679C29.4417 24.3817 30.7878 23.5443 31.423 22.2538C31.7502 21.5889 31.8569 21.1422 31.858 20.4324C31.8594 19.4863 31.5931 18.6544 31.041 17.8808C30.173 16.6643 28.3666 16.0324 26.4656 16.2802ZM27.3095 19.4978C27.7215 19.7095 27.956 20.2188 27.8875 20.7532C27.7696 21.6721 27.5002 22.4034 27.1208 22.8344C26.5811 23.4476 25.7538 23.3847 25.4161 22.7048C25.3097 22.4905 25.2908 22.3635 25.2947 21.8873C25.3042 20.7275 25.6897 19.918 26.4178 19.5293C26.6145 19.4244 27.131 19.4061 27.3095 19.4978ZM38.848 24.2112C38.862 24.2224 38.5893 24.5159 38.2418 24.8634L37.61 25.4952V24.3837V23.2722L38.2161 23.7315C38.5495 23.9842 38.8338 24.2 38.848 24.2112ZM16.4096 24.4101V25.4952L15.7761 24.8617C15.1746 24.2602 15.1482 24.2243 15.2546 24.1494C15.3162 24.106 15.5822 23.9036 15.8458 23.6994C16.1094 23.4953 16.3441 23.3275 16.3673 23.3267C16.3906 23.3258 16.4096 23.8133 16.4096 24.4101ZM15.5615 27.1751C16.0124 27.618 17.5275 29.1111 18.9282 30.493L21.4751 33.0056L18.1009 35.6644C16.2451 37.1267 14.7121 38.3232 14.6942 38.3232C14.6764 38.3232 14.6617 35.6337 14.6617 32.3465C14.6617 29.0593 14.6797 26.3698 14.7016 26.3698C14.7236 26.3698 15.1106 26.7322 15.5615 27.1751ZM39.3579 32.3512C39.3579 35.6774 39.3363 38.3243 39.3093 38.3138C39.2826 38.3035 37.7501 37.1049 35.9038 35.6503L32.5469 33.0057L33.8521 31.7346C34.5699 31.0356 36.0834 29.5426 37.2153 28.4169C38.3472 27.2912 39.2923 26.3701 39.3156 26.37C39.3389 26.3699 39.3579 29.0615 39.3579 32.3512ZM34.1467 36.5517C35.9429 37.9652 37.4627 39.1704 37.5238 39.2299C37.6335 39.3366 37.4858 39.3381 27.0102 39.3381C17.7307 39.3381 16.3959 39.3277 16.468 39.2564C16.5134 39.2115 18.034 38.0063 19.847 36.5782L23.1434 33.9816H27.0121H30.8807L34.1467 36.5517Z" fill="black"/>
</svg>
