<svg width="14" height="14" viewBox="0 0 14 14" fill="none" xmlns="http://www.w3.org/2000/svg">
    <path fill-rule="evenodd" clip-rule="evenodd" d="M7 14C10.8672 14 14 10.8652 14 7C14 3.13477 10.8672 0 7 0C3.13281 0 0 3.13477 0 7C0 10.8652 3.13281 14 7 14ZM5.97656 3.46094V8.43945H7.85938V3.46094H5.97656ZM5.84375 9.58984C5.78125 9.73047 5.75 9.88086 5.75 10.0391C5.75 10.1992 5.78125 10.3535 5.84375 10.5C5.89844 10.6406 5.98438 10.7637 6.09375 10.8691C6.19531 10.9766 6.32031 11.0605 6.46094 11.1191C6.60938 11.1797 6.75781 11.2109 6.92188 11.2109C7.07812 11.2109 7.22656 11.1797 7.36719 11.1191C7.51562 11.0605 7.64062 10.9766 7.75 10.8691C7.85938 10.7637 7.9375 10.6406 8 10.5C8.0625 10.3535 8.09375 10.1992 8.09375 10.0391C8.09375 9.88086 8.0625 9.73047 8 9.58984C7.9375 9.44336 7.85938 9.31641 7.75 9.21094C7.64062 9.10352 7.51562 9.01953 7.36719 8.96094L7.29688 8.9375C7.17969 8.89258 7.05469 8.86914 6.92188 8.86914C6.75781 8.86914 6.60938 8.90039 6.46094 8.96094C6.32031 9.01953 6.19531 9.10352 6.09375 9.21094L5.96094 9.36133C5.91406 9.43164 5.875 9.50781 5.84375 9.58984Z" fill="#8F2C23"/>
</svg>
