<svg width="75" height="55" viewBox="0 0 75 55" fill="none" xmlns="http://www.w3.org/2000/svg">
    <path d="M16.7989 30.1563L17.3068 29.8136L16.8691 29.3847C14.9851 27.5387 13.7812 24.9973 13.7812 22.1875C13.7812 16.6199 18.3386 12.0625 23.9062 12.0625C29.4739 12.0625 34.0312 16.6199 34.0312 22.1875C34.0312 24.9998 32.8275 27.5387 30.9434 29.3847L30.5057 29.8136L31.0136 30.1563C32.7541 31.3308 34.1809 32.9131 35.1699 34.7653C36.0799 36.4697 36.5937 38.3551 36.6759 40.2812H32.3608C32.1054 35.8109 28.4451 32.3125 23.9062 32.3125C19.3674 32.3125 15.7071 35.8109 15.4517 40.2812H11.1366C11.2188 38.3551 11.7326 36.4697 12.6426 34.7653C13.6316 32.9131 15.0584 31.3308 16.7989 30.1563ZM0.5 8.90625C0.5 4.81286 3.87536 1.4375 7.96875 1.4375H66.4062C70.4996 1.4375 73.875 4.81286 73.875 8.90625V46.0938C73.875 50.1871 70.4996 53.5625 66.4062 53.5625H7.96875C3.87536 53.5625 0.5 50.1871 0.5 46.0938V8.90625ZM66.4062 5.75H7.96875C6.18917 5.75 4.8125 7.12667 4.8125 8.90625V46.0938C4.8125 47.8733 6.18917 49.25 7.96875 49.25H66.4062C68.1858 49.25 69.5625 47.8733 69.5625 46.0938V8.90625C69.5625 7.12667 68.1858 5.75 66.4062 5.75ZM63.25 19.0312H43V14.7188H63.25V19.0312ZM29.7188 22.1875C29.7188 18.9443 27.1494 16.375 23.9062 16.375C20.6631 16.375 18.0938 18.9443 18.0938 22.1875C18.0938 25.4307 20.6631 28 23.9062 28C27.1494 28 29.7188 25.4307 29.7188 22.1875ZM63.25 29.6562H43V25.3438H63.25V29.6562ZM55.2812 40.2812H43V35.9688H55.2812V40.2812Z" fill="#5E97FF" stroke="#F5F6FA"/>
</svg>
