<svg width="33" height="28" viewBox="0 0 33 28" fill="none" xmlns="http://www.w3.org/2000/svg">
    <g filter="url(#filter0_bd_2127_38461)">
        <g filter="url(#filter1_b_2127_38461)">
            <path fill-rule="evenodd" clip-rule="evenodd"
                  d="M9.52579 5.19778C6.82209 5.91676 5 8.30053 5 11.119C5 14.8907 7.61922 17.9317 14.5469 22.2034L16.4913 23.4023L18.1167 22.4093C23.5472 19.0923 26.1193 16.7726 27.3438 14.0887C28.2532 12.0952 28.2197 9.86019 27.2541 8.10805C26.8346 7.34689 25.496 6.04917 24.7347 5.66566C23.0114 4.79729 20.9494 4.77757 19.1631 5.61212C18.4585 5.94131 16.9806 7.23107 16.6527 7.80288L16.5029 8.06404L16.3531 7.80288C16.0567 7.28591 14.5725 5.96834 13.9463 5.66618C12.5571 4.99577 10.933 4.82367 9.52579 5.19778Z"
                  fill="#5E97FF" fill-opacity="0.8"/>
            <path fill-rule="evenodd" clip-rule="evenodd"
                  d="M9.52579 5.19778C6.82209 5.91676 5 8.30053 5 11.119C5 14.8907 7.61922 17.9317 14.5469 22.2034L16.4913 23.4023L18.1167 22.4093C23.5472 19.0923 26.1193 16.7726 27.3438 14.0887C28.2532 12.0952 28.2197 9.86019 27.2541 8.10805C26.8346 7.34689 25.496 6.04917 24.7347 5.66566C23.0114 4.79729 20.9494 4.77757 19.1631 5.61212C18.4585 5.94131 16.9806 7.23107 16.6527 7.80288L16.5029 8.06404L16.3531 7.80288C16.0567 7.28591 14.5725 5.96834 13.9463 5.66618C12.5571 4.99577 10.933 4.82367 9.52579 5.19778Z"
                  stroke="white"/>
        </g>
    </g>
    <defs>
        <filter id="filter0_bd_2127_38461" x="-9.5" y="-9.5" width="52" height="47.4883" filterUnits="userSpaceOnUse"
                color-interpolation-filters="sRGB">
            <feFlood flood-opacity="0" result="BackgroundImageFix"/>
            <feGaussianBlur in="BackgroundImage" stdDeviation="7"/>
            <feComposite in2="SourceAlpha" operator="in" result="effect1_backgroundBlur_2127_38461"/>
            <feColorMatrix in="SourceAlpha" type="matrix" values="0 0 0 0 0 0 0 0 0 0 0 0 0 0 0 0 0 0 127 0"
                           result="hardAlpha"/>
            <feOffset/>
            <feGaussianBlur stdDeviation="2"/>
            <feComposite in2="hardAlpha" operator="out"/>
            <feColorMatrix type="matrix" values="0 0 0 0 0 0 0 0 0 0 0 0 0 0 0 0 0 0 0.25 0"/>
            <feBlend mode="normal" in2="effect1_backgroundBlur_2127_38461" result="effect2_dropShadow_2127_38461"/>
            <feBlend mode="normal" in="SourceGraphic" in2="effect2_dropShadow_2127_38461" result="shape"/>
        </filter>
        <filter id="filter1_b_2127_38461" x="-5.5" y="-5.5" width="44" height="39.4883" filterUnits="userSpaceOnUse"
                color-interpolation-filters="sRGB">
            <feFlood flood-opacity="0" result="BackgroundImageFix"/>
            <feGaussianBlur in="BackgroundImage" stdDeviation="5"/>
            <feComposite in2="SourceAlpha" operator="in" result="effect1_backgroundBlur_2127_38461"/>
            <feBlend mode="normal" in="SourceGraphic" in2="effect1_backgroundBlur_2127_38461" result="shape"/>
        </filter>
    </defs>
</svg>
