<svg width="18" height="14" viewBox="0 0 18 14" fill="none" xmlns="http://www.w3.org/2000/svg">
    <path fill-rule="evenodd" clip-rule="evenodd" d="M17.8365 3.7883C17.8888 3.84055 17.9304 3.90263 17.9588 3.97096C17.9871 4.0393 18.0017 4.11256 18.0017 4.18655C18.0017 4.26054 17.9871 4.3338 17.9588 4.40214C17.9304 4.47048 17.8888 4.53255 17.8365 4.5848L14.4615 7.9598C14.4092 8.01219 14.3471 8.05375 14.2788 8.0821C14.2105 8.11046 14.1372 8.12506 14.0632 8.12506C13.9892 8.12506 13.916 8.11046 13.8476 8.0821C13.7793 8.05375 13.7172 8.01219 13.665 7.9598L11.9775 6.2723C11.8718 6.16668 11.8125 6.02342 11.8125 5.87405C11.8125 5.72468 11.8718 5.58142 11.9775 5.4758C12.0831 5.37018 12.2263 5.31084 12.3757 5.31084C12.5251 5.31084 12.6683 5.37018 12.774 5.4758L14.0632 6.76618L17.04 3.7883C17.0922 3.73592 17.1543 3.69436 17.2226 3.666C17.291 3.63764 17.3642 3.62305 17.4382 3.62305C17.5122 3.62305 17.5855 3.63764 17.6538 3.666C17.7221 3.69436 17.7842 3.73592 17.8365 3.7883Z" fill="black"/>
    <path d="M1.125 13.75C1.125 13.75 0 13.75 0 12.625C0 11.5 1.125 8.125 6.75 8.125C12.375 8.125 13.5 11.5 13.5 12.625C13.5 13.75 12.375 13.75 12.375 13.75H1.125ZM6.75 7C7.64511 7 8.50355 6.64442 9.13649 6.01149C9.76942 5.37855 10.125 4.52011 10.125 3.625C10.125 2.72989 9.76942 1.87145 9.13649 1.23851C8.50355 0.605579 7.64511 0.25 6.75 0.25C5.85489 0.25 4.99645 0.605579 4.36351 1.23851C3.73058 1.87145 3.375 2.72989 3.375 3.625C3.375 4.52011 3.73058 5.37855 4.36351 6.01149C4.99645 6.64442 5.85489 7 6.75 7Z" fill="black"/>
</svg>
