<svg width="48" height="47" viewBox="0 0 48 47" fill="none" xmlns="http://www.w3.org/2000/svg">
<path fill-rule="evenodd" clip-rule="evenodd" d="M17.7497 0.131077C16.6699 0.362995 16.0568 0.592535 14.9013 1.19742C13.3563 2.00607 12.3649 2.82948 9.3281 5.82652C5.58193 9.52356 3.83442 11.6645 2.42778 14.2802C2.16865 14.762 1.94577 15.1722 1.93252 15.1915C1.91927 15.2109 1.74289 15.1316 1.54064 15.0154C1.04489 14.7305 0.557506 14.8672 0.246128 15.3787C0.111001 15.6006 0.000250048 15.8631 4.57504e-08 15.9622C-0.000249957 16.0612 1.02414 17.1735 2.2764 18.4341C4.76255 20.9366 4.94218 21.0449 5.56768 20.4186C6.02956 19.9562 6.02056 19.4632 5.54118 18.956L5.2288 18.6253L6.37244 17.3692C7.00132 16.6782 7.66633 16.0144 7.85008 15.8939C8.65396 15.3664 11.1196 15.541 14.3785 16.3563L16.3199 16.8419L22.0974 22.6137L27.8748 28.3854L27.8775 29.0926C27.8828 30.4382 27.7812 30.3194 35.8495 38.4069C39.9542 42.5213 43.3721 45.8724 43.4448 45.8538C43.5176 45.8353 44.5423 44.8062 45.7218 43.5672L47.8666 41.3143L40.4019 33.8335C35.1441 28.5642 32.7767 26.2745 32.394 26.088C32.0533 25.922 31.5748 25.8159 31.1116 25.8036L30.3724 25.7841L24.5761 19.9928L18.7798 14.2015L18.5191 12.5513C18.0588 9.63783 17.9547 8.56235 17.9474 6.64555C17.9394 4.55003 18.0314 4.22112 18.7808 3.66717C19.8236 2.89607 21.4228 2.57103 24.6771 2.46853C26.314 2.41709 27.1827 2.343 27.2127 2.25238C27.2699 2.07904 23.2722 0.554737 21.9997 0.264621C20.7256 -0.0258706 18.7668 -0.0874484 17.7497 0.131077ZM37.8415 0.52082C34.3685 1.36338 31.7613 4.72525 31.752 8.37311C31.75 9.19202 32.0411 10.8241 32.2587 11.2138C32.3381 11.3559 31.4773 12.2906 28.7214 15.0548L25.0791 18.708L27.1864 20.9144L29.2937 23.121L32.928 19.4905L36.5624 15.8601L37.4543 16.1634C41.2231 17.4453 45.5956 15.5329 47.2702 11.8699C47.7786 10.758 47.996 9.70416 47.9981 8.34094L48 7.1577L46.2812 8.86085C44.4176 10.7074 44.029 10.9352 43.1032 10.7237C42.4403 10.5721 42.1647 10.3407 39.8618 8.00226C37.6176 5.72339 37.406 5.39335 37.5659 4.42137C37.643 3.9519 37.8521 3.69032 39.4145 2.10857L41.1763 0.325073L39.8693 0.335461C39.1505 0.341218 38.238 0.424574 37.8415 0.52082ZM16.6847 27.1109L12.5588 31.242L11.5004 30.974C10.6179 30.7506 10.2134 30.7173 9.0646 30.7735C6.85545 30.8816 5.29256 31.5699 3.74704 33.1152C2.16952 34.6925 1.37451 36.6289 1.37451 38.8938C1.37451 39.5023 1.41427 40.0002 1.46277 40.0002C1.51127 40.0002 2.31277 39.2448 3.24403 38.3215C5.06405 36.5169 5.32531 36.3679 6.34332 36.5532C6.7412 36.6256 7.17432 37.0015 9.20772 39.0389C11.1869 41.0221 11.6305 41.532 11.7589 41.9714C12.0416 42.9397 11.8179 43.3453 9.9656 45.2212C8.64334 46.5604 8.37421 46.8916 8.55221 46.9599C8.67322 47.0064 9.2901 47.0135 9.92323 46.9757C12.0016 46.8516 13.8134 46.049 15.2397 44.621C16.1579 43.7016 16.7497 42.7436 17.2056 41.4382C17.5122 40.5606 17.5552 40.2545 17.5574 38.9363C17.5597 37.6985 17.5072 37.2622 17.2588 36.4549L16.9576 35.4754L21.0415 31.385L25.1254 27.2946L22.968 25.1371L20.8107 22.9798L16.6847 27.1109Z" fill="#5E97FF"/>
</svg>
