<svg width="32" height="36" viewBox="0 0 32 36" fill="none" xmlns="http://www.w3.org/2000/svg">
    <path d="M29.7444 15.5804H26.7345V5.6656C26.7345 2.53624 24.1983 0 21.0689 0H10.0918C6.96249 0 4.42625 2.53624 4.42625 5.6656V15.5804H1.4164C0.632954 15.5804 0 16.2134 0 16.9968V33.9936C0 34.777 0.632954 35.41 1.4164 35.41H29.7444C30.5278 35.41 31.1608 34.777 31.1608 33.9936V16.9968C31.1608 16.2134 30.5278 15.5804 29.7444 15.5804ZM16.8197 26.0706V28.4165C16.8197 28.6113 16.6604 28.7706 16.4656 28.7706H14.6951C14.5004 28.7706 14.341 28.6113 14.341 28.4165V26.0706C13.9757 25.8083 13.703 25.4368 13.5622 25.0096C13.4214 24.5824 13.4197 24.1216 13.5575 23.6934C13.6953 23.2653 13.9654 22.8919 14.3289 22.627C14.6924 22.3621 15.1306 22.2194 15.5804 22.2194C16.0302 22.2194 16.4684 22.3621 16.8319 22.627C17.1954 22.8919 17.4655 23.2653 17.6033 23.6934C17.7411 24.1216 17.7394 24.5824 17.5986 25.0096C17.4578 25.4368 17.1851 25.8083 16.8197 26.0706ZM23.5476 15.5804H7.61315V5.6656C7.61315 4.29789 8.72414 3.1869 10.0918 3.1869H21.0689C22.4367 3.1869 23.5476 4.29789 23.5476 5.6656V15.5804Z" fill="black"/>
</svg>
