<svg width="49" height="49" viewBox="0 0 49 49" fill="none" xmlns="http://www.w3.org/2000/svg">
    <path fill-rule="evenodd" clip-rule="evenodd" d="M21.3958 0.0394082C21.0075 0.0659664 20.8544 0.101626 20.5793 0.229543C19.597 0.686255 19.4474 1.13561 19.4466 3.63049L19.4462 4.90717L19.3085 4.93333C19.2328 4.94771 19.0695 4.97347 18.9456 4.99058C18.025 5.1177 15.9614 5.84875 14.574 6.53926C14.2274 6.71179 13.0777 7.34202 12.5766 7.63421C12.5562 7.6461 12.0595 7.19028 11.4729 6.62117C10.8863 6.05211 10.2836 5.50269 10.1335 5.40029C9.75942 5.1449 9.19811 5.02017 8.79827 5.10347C8.23957 5.2199 7.9051 5.46788 6.56344 6.76038C5.29686 7.98057 5.03593 8.41142 5.09199 9.19001C5.11917 9.5673 5.28445 9.97571 5.54248 10.3031C5.63223 10.417 6.12812 10.9418 6.64448 11.4692C7.1725 12.0086 7.58325 12.4683 7.58325 12.5197C7.58325 12.57 7.43414 12.8546 7.25189 13.1522C6.13978 14.9681 5.29241 17.083 4.80978 19.2476L4.78005 19.3809L3.06579 19.3968L1.35147 19.4127L1.06286 19.5579C0.702965 19.739 0.311739 20.1443 0.134947 20.5191L0 20.8053V22.6703C0 24.7134 0.0251774 24.9552 0.273147 25.2954C0.351482 25.4029 0.584987 25.6283 0.792012 25.7964L1.16842 26.102H1.99022C2.44216 26.102 3.25299 26.1166 3.79198 26.1346L4.77199 26.1672L4.80403 26.346C5.12197 28.1183 6.10359 30.591 7.22461 32.4431L7.61594 33.0897L6.78183 33.9398C5.79991 34.9406 5.29471 35.5145 5.19871 35.7379C5.09469 35.9801 5.05885 36.5766 5.12838 36.909C5.17513 37.1325 5.24546 37.2664 5.44182 37.5058C5.87274 38.0311 8.04395 40.156 8.25899 40.2628C8.50691 40.386 8.76619 40.4347 9.15882 40.4317C9.80987 40.4267 10.1858 40.1798 11.4911 38.8996C12.0299 38.3712 12.484 37.9388 12.5001 37.9388C12.5162 37.9388 12.749 38.0847 13.0173 38.2629C14.3352 39.1384 16.5563 40.0732 18.4524 40.5505L19.3858 40.7854L19.4153 41.6624C19.4644 43.1223 19.5366 44.0671 19.6197 44.3393C19.7165 44.6559 20.0844 45.0739 20.4303 45.26C20.783 45.4498 21.1403 45.4989 22.3994 45.5305C23.6255 45.5612 24.673 45.5006 25.0902 45.3748C25.4335 45.2712 25.9463 44.8058 26.0947 44.4632C26.2284 44.1542 26.2983 43.4534 26.3433 41.9677L26.3787 40.7993L26.7291 40.7101C28.1059 40.3598 29.7157 39.8387 30.3701 39.5316L30.6076 39.4202L30.4973 39.2639C30.4367 39.1779 29.4788 38.1987 28.3688 37.0878L26.3504 35.0682L25.7969 35.182C24.2239 35.5053 21.571 35.5255 20.2018 35.2244C17.9124 34.721 15.7449 33.567 14.0458 31.9468C12.2437 30.2284 11.0822 28.2829 10.4637 25.9471C10.2132 25.0005 10.1374 24.4319 10.1032 23.2422C10.0468 21.2762 10.2261 20.0656 10.8177 18.418C12.0985 14.8507 15.4361 11.6873 19.0599 10.6059C21.1237 9.98999 23.5957 9.90226 25.703 10.3702C26.2983 10.5023 27.2876 10.8173 27.8553 11.0554C28.849 11.4722 30.032 12.184 30.9337 12.9075C31.4757 13.3425 32.4157 14.2797 32.8689 14.8371C33.6943 15.8523 34.5552 17.4171 34.9757 18.6667C35.4479 20.0695 35.5638 20.7278 35.5998 22.2086C35.6383 23.7954 35.5477 24.773 35.2395 26.0987L35.1073 26.6675L36.7245 28.2795C38.4253 29.9749 39.2313 30.7273 39.3464 30.7273C39.3845 30.7273 39.4507 30.6741 39.4936 30.609C39.734 30.2444 40.3921 28.3819 40.7412 27.0777C40.8649 26.6159 40.9762 26.228 40.9888 26.2156C41.0013 26.2031 41.6496 26.1725 42.4296 26.1476C43.8973 26.1006 44.4639 26.0453 44.7853 25.9175C45.0375 25.8172 45.4907 25.3218 45.6031 25.0237C45.6824 24.8132 45.6958 24.5675 45.7129 23.0062C45.7335 21.1402 45.7011 20.6747 45.5276 20.3411C45.4293 20.1522 45.1463 19.8649 44.7978 19.6002L44.5966 19.4474L42.9298 19.4106C42.013 19.3904 41.1931 19.3597 41.1078 19.3423C40.9536 19.311 40.9513 19.3058 40.7144 18.4455C40.128 16.3161 39.3833 14.575 38.4096 13.0569L38.0591 12.5103L38.9557 11.6097C40.0217 10.5391 40.3357 10.1687 40.5336 9.74878C40.6684 9.4627 40.6796 9.39894 40.6599 9.02763C40.6318 8.49527 40.4743 8.19761 39.8519 7.50038C39.3314 6.91739 38.0702 5.70964 37.6692 5.41029C37.3539 5.17489 37.0058 5.06428 36.5802 5.06428C36.018 5.06428 35.7279 5.2576 34.3898 6.52364C33.948 6.94161 33.4907 7.36883 33.3736 7.47303L33.1606 7.66246L32.6422 7.3372C31.1116 6.37683 28.7783 5.42804 26.9543 5.02425L26.3286 4.88574L26.2978 3.24674C26.2809 2.3453 26.2442 1.52523 26.2162 1.42431C26.0589 0.856297 25.5729 0.309914 25.0982 0.167425C24.6001 0.0178731 22.6799 -0.0485224 21.3958 0.0394082ZM22.1051 15.4592C21.2708 15.576 20.6071 15.7808 20.5606 15.9359C20.5358 16.0182 21.1787 16.7266 22.4736 18.0441C23.1155 18.6973 23.7667 19.3865 23.9206 19.5758C24.3067 20.0506 24.3672 20.2327 24.3699 20.9296C24.3734 21.8088 24.2571 22.042 23.337 23.0007C22.6795 23.6857 22.0866 24.1876 21.7305 24.3605C21.3195 24.5601 20.7585 24.6458 20.3702 24.5684C19.6907 24.4327 19.4743 24.2663 17.5086 22.3667C16.2564 21.1567 15.9485 20.8975 15.8213 20.946C15.6253 21.0208 15.4602 22.2536 15.5139 23.2422C15.5747 24.3615 15.7827 25.1914 16.2189 26.0546C16.9601 27.5214 18.3281 28.8677 19.7493 29.5287C20.8402 30.0361 21.6598 30.1911 23.6007 30.2569C24.6544 30.2926 24.9871 30.3563 25.443 30.6096C26.3531 31.1153 27.0878 31.8095 35.0172 39.6557C43.1176 47.6712 43.9498 48.4589 44.7231 48.8433C45.0407 49.0011 45.062 49.0046 45.6741 48.9983C46.4153 48.9908 46.7868 48.9101 47.3554 48.6333C48.0618 48.2893 48.6015 47.6577 48.8619 46.87C48.9805 46.5112 48.9952 46.3885 48.999 45.7222C49.0032 44.9928 49.0001 44.9701 48.8592 44.7027C48.4231 43.8752 47.6792 43.1015 39.9883 35.4769C33.3096 28.8559 31.6859 27.2189 31.1827 26.5993C31.0383 26.4215 30.8078 26.0522 30.6705 25.7787L30.4208 25.2814L30.3871 24.1126C30.3249 21.9516 30.2358 21.1213 29.989 20.4019C29.8041 19.8628 29.3429 18.9941 28.9992 18.5374C28.5807 17.9814 27.6224 17.0395 27.1416 16.7118C26.3849 16.1958 25.3076 15.752 24.3317 15.5541C23.7574 15.4377 22.609 15.3887 22.1051 15.4592ZM46.4537 44.5419C46.9358 44.7875 47.2273 45.2858 47.2253 45.8609C47.2235 46.3587 46.9235 46.8421 46.4423 47.1223C46.2318 47.2449 46.1887 47.2515 45.778 47.2251C45.2339 47.19 45.0577 47.1184 44.7818 46.82C44.3366 46.3386 44.2347 45.8058 44.4891 45.2891C44.6529 44.9563 45.0339 44.5949 45.3381 44.4835C45.6301 44.3766 46.1865 44.4057 46.4537 44.5419Z" fill="#000"/>
</svg>
