<svg width="17" height="14" viewBox="0 0 17 14" fill="none" xmlns="http://www.w3.org/2000/svg">
    <path d="M3.75 1.6875C3.75 1.23995 3.92779 0.810725 4.24426 0.494257C4.56072 0.17779 4.98995 0 5.4375 0H11.8125C12.2601 0 12.6893 0.17779 13.0057 0.494257C13.3222 0.810725 13.5 1.23995 13.5 1.6875V7.5H16.125V9.9375C16.125 10.584 15.8682 11.204 15.4111 11.6611C14.954 12.1182 14.334 12.375 13.6875 12.375H9.75V9.375H10.6875C10.8367 9.375 10.9798 9.31574 11.0852 9.21025C11.1907 9.10476 11.25 8.96168 11.25 8.8125C11.25 8.66332 11.1907 8.52024 11.0852 8.41475C10.9798 8.30926 10.8367 8.25 10.6875 8.25H9.375C9.20051 8.01696 8.97407 7.82783 8.71368 7.69763C8.45329 7.56744 8.16613 7.49977 7.875 7.5H3.75V1.6875ZM13.5 11.25H13.6875C14.0356 11.25 14.3694 11.1117 14.6156 10.8656C14.8617 10.6194 15 10.2856 15 9.9375V8.625H13.5V11.25ZM6.5625 3C6.41332 3 6.27024 3.05926 6.16475 3.16475C6.05926 3.27024 6 3.41332 6 3.5625C6 3.71168 6.05926 3.85476 6.16475 3.96025C6.27024 4.06574 6.41332 4.125 6.5625 4.125H10.6875C10.8367 4.125 10.9798 4.06574 11.0852 3.96025C11.1907 3.85476 11.25 3.71168 11.25 3.5625C11.25 3.41332 11.1907 3.27024 11.0852 3.16475C10.9798 3.05926 10.8367 3 10.6875 3H6.5625ZM6.5625 5.625C6.41332 5.625 6.27024 5.68426 6.16475 5.78975C6.05926 5.89524 6 6.03832 6 6.1875C6 6.33668 6.05926 6.47976 6.16475 6.58525C6.27024 6.69074 6.41332 6.75 6.5625 6.75H10.6875C10.8367 6.75 10.9798 6.69074 11.0852 6.58525C11.1907 6.47976 11.25 6.33668 11.25 6.1875C11.25 6.03832 11.1907 5.89524 11.0852 5.78975C10.9798 5.68426 10.8367 5.625 10.6875 5.625H6.5625ZM0.75 9.375C0.75 9.07663 0.868526 8.79048 1.0795 8.5795C1.29048 8.36853 1.57663 8.25 1.875 8.25H7.875C8.17337 8.25 8.45952 8.36853 8.6705 8.5795C8.88147 8.79048 9 9.07663 9 9.375V12.375C9 12.6734 8.88147 12.9595 8.6705 13.1705C8.45952 13.3815 8.17337 13.5 7.875 13.5H1.875C1.57663 13.5 1.29048 13.3815 1.0795 13.1705C0.868526 12.9595 0.75 12.6734 0.75 12.375V9.375ZM8.25 9.75C8.05109 9.75 7.86032 9.67098 7.71967 9.53033C7.57902 9.38968 7.5 9.19891 7.5 9H6.75C6.75 9.39782 6.90804 9.77936 7.18934 10.0607C7.47064 10.342 7.85218 10.5 8.25 10.5V9.75ZM8.25 11.25C7.85218 11.25 7.47064 11.408 7.18934 11.6893C6.90804 11.9706 6.75 12.3522 6.75 12.75H7.5C7.5 12.5511 7.57902 12.3603 7.71967 12.2197C7.86032 12.079 8.05109 12 8.25 12V11.25ZM2.25 9C2.25 9.19891 2.17098 9.38968 2.03033 9.53033C1.88968 9.67098 1.69891 9.75 1.5 9.75V10.5C1.89782 10.5 2.27936 10.342 2.56066 10.0607C2.84196 9.77936 3 9.39782 3 9H2.25ZM3 12.75C3 12.3522 2.84196 11.9706 2.56066 11.6893C2.27936 11.408 1.89782 11.25 1.5 11.25V12C1.69891 12 1.88968 12.079 2.03033 12.2197C2.17098 12.3603 2.25 12.5511 2.25 12.75H3ZM6.1875 10.875C6.1875 10.5269 6.04922 10.1931 5.80308 9.94692C5.55694 9.70078 5.2231 9.5625 4.875 9.5625C4.5269 9.5625 4.19306 9.70078 3.94692 9.94692C3.70078 10.1931 3.5625 10.5269 3.5625 10.875C3.5625 11.2231 3.70078 11.5569 3.94692 11.8031C4.19306 12.0492 4.5269 12.1875 4.875 12.1875C5.2231 12.1875 5.55694 12.0492 5.80308 11.8031C6.04922 11.5569 6.1875 11.2231 6.1875 10.875Z" fill="black"/>
</svg>
