<svg width="54" height="54" viewBox="0 0 54 54" fill="none" xmlns="http://www.w3.org/2000/svg">
<circle cx="27" cy="27" r="27" fill="#F5F6FA"/>
<path d="M17.1179 14.1445H23.0685L26.0438 21.5828L22.3246 23.8142C23.9178 27.0447 26.5324 29.6593 29.7629 31.2525L31.9943 27.5334L39.4326 30.5086V36.4592C39.4326 37.2483 39.1191 38.0051 38.5611 38.5631C38.0032 39.1211 37.2464 39.4345 36.4573 39.4345C30.6544 39.0819 25.1811 36.6177 21.0703 32.5068C16.9594 28.396 14.4952 22.9227 14.1426 17.1198C14.1426 16.3307 14.456 15.574 15.014 15.016C15.572 14.458 16.3288 14.1445 17.1179 14.1445Z" fill="#F5F6FA"/>
<path d="M17.1179 14.1445H23.0685L26.0438 21.5828L22.3246 23.8142C23.9178 27.0447 26.5324 29.6593 29.7629 31.2525L31.9943 27.5334L39.4326 30.5086V36.4592C39.4326 37.2483 39.1191 38.0051 38.5611 38.5631C38.0032 39.1211 37.2464 39.4345 36.4573 39.4345C30.6544 39.0819 25.1811 36.6177 21.0703 32.5068C16.9594 28.396 14.4952 22.9227 14.1426 17.1198C14.1426 16.3307 14.456 15.574 15.014 15.016C15.572 14.458 16.3288 14.1445 17.1179 14.1445" stroke="black" stroke-width="1.5" stroke-linecap="round" stroke-linejoin="round"/>
</svg>
