<svg width="18" height="18" viewBox="0 0 18 18" fill="none" xmlns="http://www.w3.org/2000/svg">
    <g>
        <path d="M11.4368 12.0836L12.6968 10.8236C12.8654 10.6549 13.0799 10.5394 13.3136 10.4914C13.5472 10.4434 13.7898 10.4651 14.0113 10.5536L15.5458 11.1679C15.772 11.2584 15.9659 11.4146 16.1024 11.6163C16.239 11.818 16.312 12.056 16.312 12.2996V15.0902C16.3124 15.2561 16.2789 15.4202 16.2136 15.5727C16.1484 15.7252 16.0527 15.8628 15.9324 15.977C15.8121 16.0912 15.6698 16.1797 15.5142 16.237C15.3585 16.2943 15.1928 16.3192 15.0272 16.3103C4.27109 15.6409 2.09871 6.53063 1.6954 3.042C1.67587 2.87145 1.69266 2.6987 1.74468 2.5351C1.7967 2.37151 1.88277 2.22078 1.99722 2.09283C2.11167 1.96488 2.25191 1.86261 2.40872 1.79275C2.56553 1.72289 2.73536 1.68703 2.90702 1.6875H5.64809C5.89169 1.6875 6.1297 1.76048 6.33143 1.89704C6.53316 2.03359 6.68934 2.22746 6.77984 2.45363L7.39352 3.98813C7.48209 4.20963 7.50371 4.45224 7.45572 4.68591C7.40772 4.91958 7.29222 5.13403 7.12352 5.30269L5.86352 6.56269C5.86352 6.56269 6.56215 11.4744 11.4368 12.0836Z" fill="black"/>
        <path d="M15.1875 7.3125V6.1875H12.6079L16.3125 2.48287L15.5171 1.6875L11.8125 5.39213V2.8125H10.6875V7.3125H15.1875Z" fill="black"/>
    </g>
</svg>
