<svg width="13" height="13" viewBox="0 0 13 13" fill="none" xmlns="http://www.w3.org/2000/svg">
    <path fill-rule="evenodd" clip-rule="evenodd" d="M6.49857 1C6.19481 1 5.94857 1.24624 5.94857 1.55V5.95143H1.55C1.24624 5.95143 1 6.19768 1 6.50143C1 6.80519 1.24624 7.05143 1.55 7.05143H5.94857V11.45C5.94857 11.7538 6.19481 12 6.49857 12C6.80232 12 7.04857 11.7538 7.04857 11.45V7.05143H11.45C11.7538 7.05143 12 6.80519 12 6.50143C12 6.19768 11.7538 5.95143 11.45 5.95143H7.04857V1.55C7.04857 1.24624 6.80232 1 6.49857 1Z" fill="white"/>
    <path d="M5.94857 5.95143V6.45143H6.44857V5.95143H5.94857ZM5.94857 7.05143H6.44857V6.55143H5.94857V7.05143ZM7.04857 7.05143V6.55143H6.54857V7.05143H7.04857ZM7.04857 5.95143H6.54857V6.45143H7.04857V5.95143ZM6.44857 1.55C6.44857 1.52239 6.47095 1.5 6.49857 1.5V0.5C5.91867 0.5 5.44857 0.970101 5.44857 1.55H6.44857ZM6.44857 5.95143V1.55H5.44857V5.95143H6.44857ZM1.55 6.45143H5.94857V5.45143H1.55V6.45143ZM1.5 6.50143C1.5 6.47382 1.52239 6.45143 1.55 6.45143V5.45143C0.9701 5.45143 0.5 5.92153 0.5 6.50143H1.5ZM1.55 6.55143C1.52239 6.55143 1.5 6.52905 1.5 6.50143H0.5C0.5 7.08133 0.9701 7.55143 1.55 7.55143V6.55143ZM5.94857 6.55143H1.55V7.55143H5.94857V6.55143ZM6.44857 11.45V7.05143H5.44857V11.45H6.44857ZM6.49857 11.5C6.47095 11.5 6.44857 11.4776 6.44857 11.45H5.44857C5.44857 12.0299 5.91867 12.5 6.49857 12.5V11.5ZM6.54857 11.45C6.54857 11.4776 6.52618 11.5 6.49857 11.5V12.5C7.07847 12.5 7.54857 12.0299 7.54857 11.45H6.54857ZM6.54857 7.05143V11.45H7.54857V7.05143H6.54857ZM11.45 6.55143H7.04857V7.55143H11.45V6.55143ZM11.5 6.50143C11.5 6.52905 11.4776 6.55143 11.45 6.55143V7.55143C12.0299 7.55143 12.5 7.08133 12.5 6.50143H11.5ZM11.45 6.45143C11.4776 6.45143 11.5 6.47382 11.5 6.50143H12.5C12.5 5.92153 12.0299 5.45143 11.45 5.45143V6.45143ZM7.04857 6.45143H11.45V5.45143H7.04857V6.45143ZM6.54857 1.55V5.95143H7.54857V1.55H6.54857ZM6.49857 1.5C6.52618 1.5 6.54857 1.52239 6.54857 1.55H7.54857C7.54857 0.970101 7.07847 0.5 6.49857 0.5V1.5Z" fill="white"/>
</svg>
