<svg width="35" height="35" viewBox="0 0 35 35" fill="none" xmlns="http://www.w3.org/2000/svg">
<circle cx="17.5" cy="17.5" r="16.5" fill="white" stroke="#5E97FF" stroke-width="2"/>
<path fill-rule="evenodd" clip-rule="evenodd" d="M11.993 11.021C11.6231 11.0995 11.2815 11.3742 11.1114 11.7298C11.0222 11.9164 10.9997 12.022 11 12.2529C11.0002 12.4295 11.0042 12.4647 11.0351 12.5665C11.0815 12.7187 11.1242 12.8129 11.1988 12.9274C11.2469 13.0013 11.7561 13.5182 13.494 15.2578L15.7274 17.4932L13.531 19.6887C12.1986 21.0206 11.3028 21.926 11.2538 21.9904C11.1579 22.1164 11.069 22.2947 11.0288 22.4415C11.0049 22.529 10.9998 22.5826 11 22.7466C11.0002 22.9244 11.0041 22.9583 11.0362 23.065C11.1433 23.4203 11.3821 23.7032 11.7138 23.8678C12.1209 24.0698 12.5331 24.0401 12.9324 23.7799C13.0069 23.7313 13.5166 23.2293 15.2599 21.4878L17.4919 19.2578L19.724 21.4878C21.4672 23.2293 21.977 23.7313 22.0515 23.7799C22.4507 24.0401 22.8629 24.0698 23.27 23.8678C23.6018 23.7032 23.8406 23.4203 23.9476 23.065C23.9798 22.9583 23.9836 22.9244 23.9838 22.7466C23.984 22.5826 23.979 22.529 23.955 22.4415C23.9149 22.2947 23.8259 22.1164 23.73 21.9904C23.681 21.926 22.7852 21.0206 21.4529 19.6887L19.2565 17.4932L21.4898 15.2578C23.2277 13.5182 23.7369 13.0013 23.785 12.9274C23.8596 12.813 23.9023 12.7188 23.9488 12.5665C23.98 12.4643 23.9838 12.4302 23.9836 12.2529C23.9835 12.0903 23.9782 12.0345 23.9547 11.9477C23.8289 11.4845 23.4403 11.1151 22.9787 11.0197C22.8507 10.9933 22.6266 10.9934 22.4961 11.02C22.3533 11.0491 22.1947 11.1165 22.0586 11.2057C21.9579 11.2717 21.6524 11.5718 19.7174 13.505L17.4919 15.7283L15.2665 13.5041C13.218 11.4568 13.0311 11.2736 12.9156 11.1994C12.7757 11.1096 12.6343 11.0506 12.485 11.0197C12.3604 10.994 12.1175 10.9946 11.993 11.021Z" fill="#5E97FF"/>
</svg>
