<svg width="15" height="17" viewBox="0 0 15 17" fill="none" xmlns="http://www.w3.org/2000/svg">
    <path d="M10.0938 14.9499L8.55594 13.4121L7.71875 14.2493L10.0938 16.6243L14.8438 11.8743L14.0066 11.0371L10.0938 14.9499Z" fill="black"/>
    <path d="M11.875 1.78125H10.0938V1.1875C10.0928 0.872844 9.9674 0.571345 9.7449 0.348849C9.52241 0.126353 9.22091 0.000939744 8.90625 0H4.15625C3.84159 0.000939744 3.54009 0.126353 3.3176 0.348849C3.0951 0.571345 2.96969 0.872844 2.96875 1.1875V1.78125H1.1875C0.872844 1.78219 0.571345 1.9076 0.348849 2.1301C0.126353 2.35259 0.000939744 2.65409 0 2.96875V15.4375C0.000939744 15.7522 0.126353 16.0537 0.348849 16.2762C0.571345 16.4986 0.872844 16.6241 1.1875 16.625H6.53125V15.4375H1.1875V2.96875H2.96875V4.75H10.0938V2.96875H11.875V9.5H13.0625V2.96875C13.0616 2.65409 12.9361 2.35259 12.7137 2.1301C12.4912 1.9076 12.1897 1.78219 11.875 1.78125ZM8.90625 3.5625H4.15625V1.1875H8.90625V3.5625Z" fill="black"/>
</svg>
