<svg width="52" height="40" viewBox="0 0 52 40" fill="none" xmlns="http://www.w3.org/2000/svg">
<path fill-rule="evenodd" clip-rule="evenodd" d="M34.6546 0.0326051C34.5901 0.0608069 34.5203 0.111374 34.4996 0.144921C34.451 0.223362 34.7696 0.523544 35.109 0.719101C35.2541 0.802725 35.684 1.07547 36.0644 1.32525C38.8345 3.14428 40.5053 5.31178 40.8084 7.47977C41.0022 8.86618 40.5072 10.2034 39.5569 10.8611C39.2309 11.0867 39.0936 11.4073 39.1264 11.8658C39.1408 12.0663 39.204 12.3466 39.2669 12.4884C39.3727 12.7275 39.3744 12.75 39.2887 12.7951C39.2379 12.8218 38.6064 13.1073 37.8854 13.4297C37.1644 13.752 36.5654 14.0237 36.5543 14.0333C36.5432 14.043 36.7303 14.3405 36.9702 14.6944C37.5273 15.5164 38.0683 16.4702 38.4148 17.2408C38.5647 17.5743 38.7044 17.8652 38.7253 17.8873C38.7462 17.9094 39.3121 17.6811 39.9829 17.3799C40.6536 17.0787 41.2092 16.8397 41.2173 16.8488C41.2255 16.8579 41.3214 17.054 41.4305 17.2846C41.7867 18.0381 42.3599 18.5291 42.8833 18.5291C43.5724 18.5291 44.1427 19.183 45.4213 21.4393C45.7417 22.0048 45.9954 22.4761 45.985 22.4866C45.9745 22.497 45.7624 22.6073 45.5137 22.7315C45.0043 22.9862 44.794 23.2182 44.658 23.6755C44.5558 24.0191 44.5558 24.1671 44.6583 24.5115C44.836 25.1092 45.429 25.5308 46.0864 25.527C46.4033 25.5252 46.557 25.4644 48.8792 24.4223C51.5939 23.2042 51.6775 23.1529 51.8973 22.5753C52.0322 22.2208 52.0341 21.9335 51.9037 21.5908C51.7587 21.2098 51.5565 20.9701 51.2271 20.7889C50.9878 20.6572 50.8762 20.6308 50.5558 20.6301C50.2263 20.6293 50.1033 20.6595 49.694 20.8414C49.4315 20.9582 49.2018 21.0388 49.1837 21.0207C49.1043 20.9415 48.8295 19.66 48.8013 19.2382C48.7729 18.8114 48.782 18.7518 48.9156 18.4887C49.3452 17.6431 49.1294 15.7892 48.2923 13.1342C48.141 12.6546 47.8715 12.0347 47.4003 11.083C45.722 7.69333 44.1865 5.43037 42.2551 3.50032C40.3935 1.63999 38.5549 0.561019 36.532 0.141703C35.9546 0.0219681 34.8284 -0.0434358 34.6546 0.0326051ZM19.7009 1.72902C19.3949 1.88263 19.2879 1.99227 19.1427 2.3008C19.0186 2.56465 19.0144 2.61876 19.0142 3.96453C19.0141 4.7862 19.0379 5.44161 19.0724 5.56581C19.1668 5.905 19.5199 6.2426 19.8959 6.3529L20.2149 6.4465L20.215 7.11473C20.215 7.48228 20.2212 7.78289 20.2287 7.78284C20.2362 7.78278 20.5865 7.74624 21.0071 7.70162C22.1885 7.57626 23.6722 7.59983 24.7897 7.76173L25.0218 7.79533V7.11762V6.43985L25.3023 6.36806C25.6728 6.27326 26.077 5.8936 26.1671 5.55572C26.2093 5.39742 26.2245 4.8491 26.2131 3.89198C26.1965 2.48545 26.1942 2.46084 26.0597 2.22137C25.9845 2.08773 25.8165 1.90363 25.6863 1.81226L25.4495 1.64621L22.6821 1.63394C20.0258 1.62221 19.9061 1.62603 19.7009 1.72902ZM13.5785 6.08517C13.2156 6.25116 11.2386 7.4022 11.1073 7.52395C10.8726 7.74144 10.7509 8.08259 10.7753 8.4539C10.7962 8.77192 10.8395 8.86443 11.5004 10.0041L12.2032 11.216L12.4265 11.0489C13.3846 10.3322 14.712 9.54296 15.6814 9.11367C15.9969 8.97397 16.2746 8.84196 16.2987 8.82036C16.3677 8.75844 15.0532 6.52844 14.8135 6.30097C14.4779 5.98229 13.9898 5.89703 13.5785 6.08517ZM30.7885 6.06395C30.6706 6.1059 30.4935 6.22144 30.3949 6.32066C30.1725 6.54453 28.8782 8.76624 28.9382 8.82096C28.9623 8.84289 29.2155 8.963 29.5009 9.08792C30.4579 9.50674 31.8572 10.3358 32.8098 11.0486L33.0327 11.2153L33.7353 10.0037C34.3728 8.90463 34.4402 8.76297 34.4613 8.47834C34.4865 8.13921 34.4218 7.9149 34.2192 7.63959C34.1 7.47748 32.095 6.26611 31.6133 6.0651C31.3705 5.9638 31.0712 5.96337 30.7885 6.06395ZM21.4714 8.8514C21.3662 8.86351 21.0467 8.89962 20.7613 8.93164C18.8876 9.14192 16.7744 9.81576 15.1166 10.7316C10.8062 13.1129 7.93375 17.2098 7.14806 22.0971C7.04062 22.7654 7.02451 23.0685 7.02451 24.4203C7.02451 26.0793 7.0705 26.5534 7.35503 27.8296C7.90922 30.3155 9.13604 32.7477 10.7859 34.6317C13.3146 37.5193 16.5662 39.2934 20.4336 39.8955C21.3321 40.0354 23.9032 40.0347 24.8033 39.8943C27.0598 39.5423 29.0065 38.8354 30.8468 37.6995C34.3574 35.5327 36.8842 32.035 37.8389 28.0205C38.2991 26.0856 38.3666 23.6876 38.0163 21.723C37.318 17.8073 35.1589 14.3026 31.9826 11.9288C29.8741 10.3531 27.5463 9.39186 24.8307 8.9756C24.153 8.87169 21.9888 8.79167 21.4714 8.8514ZM24.858 11.4023C28.7331 12.0826 32.0849 14.4114 34.0644 17.799C34.9519 19.3176 35.5224 20.9892 35.7526 22.7457C35.863 23.5879 35.8633 25.2501 35.7531 26.0949C35.1846 30.4535 32.5044 34.235 28.5723 36.2261C24.8224 38.125 20.3705 38.117 16.6186 36.2047C13.0935 34.4079 10.509 31.0703 9.67849 27.2422C9.40708 25.9911 9.30974 24.1582 9.45197 22.9748C9.97045 18.6599 12.4263 14.9863 16.2138 12.86C17.572 12.0976 19.339 11.5148 20.8432 11.3331C21.1136 11.3005 21.3963 11.2633 21.4714 11.2505C21.5465 11.2377 22.161 11.2353 22.8369 11.2452C23.8539 11.2602 24.2026 11.2873 24.858 11.4023ZM21.4168 12.7302C19.1321 12.9748 17.0072 13.8644 15.1625 15.3486C12.8495 17.2095 11.3167 19.9887 10.9263 23.0293C10.8434 23.6755 10.8432 25.1872 10.926 25.8386C11.5609 30.8329 15.272 34.8798 20.173 35.9223C21.3499 36.1726 22.9278 36.2449 24.0386 36.0993C29.4604 35.3886 33.6267 31.2156 34.3101 25.8113C34.39 25.1789 34.3899 23.6599 34.3097 23.0293C33.7977 18.9984 31.3427 15.5921 27.6876 13.841C25.9933 13.0294 24.4529 12.687 22.5638 12.7022C22.0381 12.7064 21.5219 12.719 21.4168 12.7302ZM23.8366 19.0617C24.4916 22.0239 25.0261 24.5252 25.0246 24.62C25.0202 24.8886 24.8326 25.4289 24.639 25.7303C23.8333 26.9841 22.0624 27.1993 20.9674 26.1764C20.819 26.0376 20.6352 25.8181 20.5592 25.6885C20.394 25.4071 20.2163 24.86 20.212 24.62C20.2087 24.4321 22.5738 13.6754 22.6185 13.6756C22.6335 13.6757 23.1817 16.0995 23.8366 19.0617ZM3.71915 26.9681C0.822262 28.0808 0.550133 28.192 0.383372 28.3322C-0.0154801 28.6673 -0.110468 29.2242 0.133038 29.7994C0.481528 30.6227 2.42723 34.8892 2.54805 35.0951C2.74857 35.4368 3.10875 35.6316 3.52797 35.6249C3.84254 35.6199 3.93513 35.5787 5.83576 34.5965C6.92482 34.0337 7.81582 33.5533 7.81582 33.5289C7.81582 33.5044 7.7045 33.2964 7.56844 33.0665C6.5175 31.2914 5.7889 29.2032 5.42091 26.9121L5.33051 26.3492L3.71915 26.9681Z" fill="#5E97FF"/>
</svg>
