<svg width="31" height="31" viewBox="0 0 31 31" fill="none" xmlns="http://www.w3.org/2000/svg">
    <path fill-rule="evenodd" clip-rule="evenodd"
          d="M18.0859 7.75065V5.16732H12.9193V7.75065H18.0859ZM5.16927 10.334V24.5423H25.8359V10.334H5.16927ZM25.8359 7.75065C27.2697 7.75065 28.4193 8.90023 28.4193 10.334V24.5423C28.4193 25.9761 27.2697 27.1257 25.8359 27.1257H5.16927C3.73552 27.1257 2.58594 25.9761 2.58594 24.5423L2.59885 10.334C2.59885 8.90023 3.73552 7.75065 5.16927 7.75065H10.3359V5.16732C10.3359 3.73357 11.4855 2.58398 12.9193 2.58398H18.0859C19.5197 2.58398 20.6693 3.73357 20.6693 5.16732V7.75065H25.8359Z"
          fill="black"/>
</svg>
