<svg width="25" height="23" viewBox="0 0 25 23" fill="none" xmlns="http://www.w3.org/2000/svg">
    <path fill-rule="evenodd" clip-rule="evenodd"
          d="M5.7928 8.55541C6.20778 7.39129 6.88053 6.33603 7.76077 5.46853H7.76215C10.9951 2.2798 16.224 2.32121 19.4404 5.5831C22.6567 8.84361 22.6263 14.074 19.392 17.2627C17.893 18.7443 15.8798 19.59 13.7724 19.6232C12.9734 19.638 12.1765 19.5371 11.4064 19.3236C11.2302 19.27 11.045 19.2522 10.8617 19.2713C10.6785 19.2904 10.5009 19.346 10.3395 19.4348C10.1781 19.5236 10.036 19.6438 9.9218 19.7883C9.80756 19.9328 9.7234 20.0987 9.67428 20.2763C9.62517 20.4539 9.6121 20.6395 9.63583 20.8222C9.65957 21.0049 9.71964 21.1809 9.81249 21.3401C9.90535 21.4992 10.0291 21.6381 10.1765 21.7486C10.3239 21.8592 10.4919 21.9391 10.6707 21.9837C11.6964 22.2679 12.7578 22.4027 13.8221 22.384C16.6382 22.3381 19.328 21.2078 21.3315 19.2284C25.6591 14.9602 25.6853 7.98224 21.4061 3.64363C17.1282 -0.693594 10.1516 -0.765374 5.82268 3.50283C4.64681 4.66137 3.74781 6.07055 3.19279 7.62517C2.95538 8.29017 2.78353 8.97444 2.67839 9.66827L2.53291 9.53886C2.25943 9.2954 1.90043 9.17055 1.5349 9.19178C1.16937 9.21301 0.827241 9.37857 0.583781 9.65205C0.34032 9.92553 0.215471 10.2845 0.236699 10.6501C0.257927 11.0156 0.423493 11.3577 0.696974 11.6012L3.07127 13.7132C3.20667 13.8338 3.3645 13.9265 3.53574 13.986C3.70698 14.0456 3.88828 14.0709 4.06928 14.0603C4.25028 14.0498 4.42743 14.0038 4.59063 13.9248C4.75382 13.8458 4.89986 13.7354 5.0204 13.6L5.0385 13.5793L7.57883 11.674C7.87171 11.4544 8.06534 11.1273 8.11711 10.7649C8.16889 10.4025 8.07457 10.0343 7.85491 9.74145C7.63524 9.44857 7.30823 9.25494 6.9458 9.20316C6.58338 9.15139 6.21523 9.24571 5.92234 9.46537L5.45358 9.81694C5.5327 9.38931 5.64593 8.96743 5.7928 8.55541ZM13.3489 5.73828C13.715 5.73828 14.0661 5.88372 14.325 6.14259C14.5839 6.40147 14.7293 6.75258 14.7293 7.11868V10.5703H17.4825C17.8487 10.5703 18.1998 10.7157 18.4586 10.9746C18.7175 11.2335 18.863 11.5846 18.863 11.9507C18.863 12.3168 18.7175 12.6679 18.4586 12.9268C18.1998 13.1857 17.8487 13.3311 17.4825 13.3311H13.3413C12.9752 13.3311 12.6241 13.1857 12.3652 12.9268C12.1064 12.6679 11.9609 12.3168 11.9609 11.9507C11.9609 11.9023 11.9635 11.8541 11.9685 11.8063V7.11868C11.9685 6.75258 12.1139 6.40147 12.3728 6.14259C12.6317 5.88372 12.9828 5.73828 13.3489 5.73828Z"
          fill="black"/>
    <path d="M7.76077 5.46853V5.31853H7.69927L7.65548 5.36169L7.76077 5.46853ZM5.7928 8.55541L5.93409 8.60577L5.7928 8.55541ZM7.76215 5.46853V5.61853H7.82368L7.86748 5.57532L7.76215 5.46853ZM19.4404 5.5831L19.3336 5.68842L19.3336 5.68844L19.4404 5.5831ZM19.392 17.2627L19.2867 17.1559L19.2866 17.156L19.392 17.2627ZM13.7724 19.6232L13.7701 19.4732L13.7696 19.4732L13.7724 19.6232ZM11.4064 19.3236L11.3628 19.4672L11.3663 19.4682L11.4064 19.3236ZM10.8617 19.2713L10.8462 19.1221H10.8462L10.8617 19.2713ZM10.3395 19.4348L10.2672 19.3033L10.3395 19.4348ZM9.9218 19.7883L10.0395 19.8813L10.0395 19.8813L9.9218 19.7883ZM9.67428 20.2763L9.52971 20.2363L9.67428 20.2763ZM9.81249 21.3401L9.94205 21.2645L9.81249 21.3401ZM10.1765 21.7486L10.0865 21.8686H10.0865L10.1765 21.7486ZM10.6707 21.9837L10.7107 21.8391L10.707 21.8381L10.6707 21.9837ZM13.8221 22.384L13.8197 22.234L13.8195 22.234L13.8221 22.384ZM21.3315 19.2284L21.2262 19.1216L21.2261 19.1217L21.3315 19.2284ZM21.4061 3.64363L21.2993 3.74897V3.74897L21.4061 3.64363ZM5.82268 3.50283L5.92796 3.60968L5.92799 3.60965L5.82268 3.50283ZM3.19279 7.62517L3.33406 7.6756H3.33406L3.19279 7.62517ZM2.67839 9.66827L2.5787 9.78035L2.78528 9.96411L2.8267 9.69074L2.67839 9.66827ZM2.53291 9.53886L2.43317 9.6509L2.43321 9.65094L2.53291 9.53886ZM1.5349 9.19178L1.5436 9.34153L1.5349 9.19178ZM0.583781 9.65205L0.471744 9.55231H0.471744L0.583781 9.65205ZM0.236699 10.6501L0.386447 10.6414H0.386447L0.236699 10.6501ZM0.696974 11.6012L0.597235 11.7132L0.597279 11.7133L0.696974 11.6012ZM3.07127 13.7132L3.17102 13.6012L3.17096 13.6011L3.07127 13.7132ZM3.53574 13.986L3.58502 13.8444H3.58502L3.53574 13.986ZM4.06928 14.0603L4.06058 13.9106L4.06928 14.0603ZM4.59063 13.9248L4.52528 13.7898L4.59063 13.9248ZM5.0204 13.6L5.13245 13.6997L5.13341 13.6986L5.0204 13.6ZM5.0385 13.5793L4.9485 13.4593L4.93587 13.4687L4.92548 13.4806L5.0385 13.5793ZM7.57883 11.674L7.48883 11.554L7.57883 11.674ZM8.11711 10.7649L8.26561 10.7861L8.11711 10.7649ZM7.85491 9.74145L7.97491 9.65145L7.85491 9.74145ZM6.9458 9.20316L6.92459 9.35166L6.9458 9.20316ZM5.92234 9.46537L6.01234 9.58537L5.92234 9.46537ZM5.45358 9.81694L5.30609 9.78965L5.23618 10.1675L5.54358 9.93694L5.45358 9.81694ZM14.7293 10.5703H14.5793V10.7203H14.7293V10.5703ZM18.4586 10.9746L18.5647 10.8686L18.4586 10.9746ZM18.4586 12.9268L18.5647 13.0329L18.4586 12.9268ZM11.9685 11.8063L12.1177 11.822L12.1185 11.8142V11.8063H11.9685ZM7.65548 5.36169C6.75913 6.24506 6.07407 7.31963 5.65151 8.50504L5.93409 8.60577C6.34148 7.46295 7.00192 6.427 7.86606 5.57536L7.65548 5.36169ZM7.76215 5.31853H7.76077V5.61853H7.76215V5.31853ZM19.5472 5.47778C16.2731 2.15735 10.9492 2.11437 7.65681 5.36173L7.86748 5.57532C11.0409 2.44522 16.1749 2.48506 19.3336 5.68842L19.5472 5.47778ZM19.4974 17.3695C22.7911 14.1221 22.8212 8.7968 19.5471 5.47776L19.3336 5.68844C22.4922 8.89043 22.4616 14.0258 19.2867 17.1559L19.4974 17.3695ZM13.7748 19.7732C15.9209 19.7393 17.971 18.8782 19.4975 17.3694L19.2866 17.156C17.8151 18.6105 15.8388 19.4406 13.7701 19.4732L13.7748 19.7732ZM11.3663 19.4682C12.1504 19.6855 12.9617 19.7882 13.7752 19.7732L13.7696 19.4732C12.9851 19.4878 12.2026 19.3887 11.4465 19.1791L11.3663 19.4682ZM10.8773 19.4205C11.0406 19.4035 11.2057 19.4194 11.3628 19.4671L11.4501 19.1801C11.2547 19.1207 11.0493 19.101 10.8462 19.1221L10.8773 19.4205ZM10.4118 19.5662C10.5557 19.4871 10.7139 19.4375 10.8773 19.4205L10.8462 19.1221C10.643 19.1433 10.4462 19.2049 10.2672 19.3033L10.4118 19.5662ZM10.0395 19.8813C10.1413 19.7525 10.2679 19.6453 10.4118 19.5662L10.2672 19.3033C10.0882 19.4018 9.93078 19.535 9.80412 19.6953L10.0395 19.8813ZM9.81886 20.3163C9.86263 20.158 9.93764 20.0101 10.0395 19.8813L9.80413 19.6953C9.67747 19.8555 9.58416 20.0395 9.52971 20.2363L9.81886 20.3163ZM9.78458 20.8028C9.76343 20.64 9.77508 20.4746 9.81886 20.3163L9.52971 20.2363C9.47526 20.4332 9.46077 20.6389 9.48709 20.8415L9.78458 20.8028ZM9.94205 21.2645C9.85928 21.1226 9.80574 20.9657 9.78458 20.8028L9.48709 20.8415C9.5134 21.044 9.57999 21.2393 9.68294 21.4157L9.94205 21.2645ZM10.2665 21.6286C10.1351 21.5301 10.0248 21.4063 9.94205 21.2645L9.68294 21.4157C9.78589 21.5921 9.9231 21.7461 10.0865 21.8686L10.2665 21.6286ZM10.707 21.8381C10.5476 21.7984 10.3979 21.7272 10.2665 21.6286L10.0865 21.8686C10.2499 21.9912 10.4362 22.0798 10.6344 22.1292L10.707 21.8381ZM13.8195 22.234C12.7696 22.2525 11.7226 22.1195 10.7107 21.8391L10.6306 22.1282C11.6703 22.4163 12.7461 22.553 13.8248 22.534L13.8195 22.234ZM21.2261 19.1217C19.25 21.0739 16.5971 22.1888 13.8197 22.234L13.8246 22.534C16.6792 22.4875 19.4059 21.3416 21.4369 19.3351L21.2261 19.1217ZM21.2993 3.74897C25.5208 8.02908 25.4943 14.912 21.2262 19.1216L21.4368 19.3352C25.8239 15.0083 25.8498 7.9354 21.5128 3.5383L21.2993 3.74897ZM5.92799 3.60965C10.1975 -0.59992 17.0791 -0.52978 21.2993 3.74897L21.5128 3.5383C17.1773 -0.857407 10.1058 -0.930828 5.71737 3.39602L5.92799 3.60965ZM3.33406 7.6756C3.88148 6.14226 4.76817 4.75237 5.92796 3.60968L5.7174 3.39598C4.52544 4.57038 3.61414 5.99884 3.05152 7.57473L3.33406 7.6756ZM2.8267 9.69074C2.9304 9.00641 3.09989 8.3315 3.33406 7.6756L3.05152 7.57473C2.81086 8.24884 2.63666 8.94247 2.53009 9.6458L2.8267 9.69074ZM2.43321 9.65094L2.5787 9.78035L2.77809 9.5562L2.6326 9.42678L2.43321 9.65094ZM1.5436 9.34153C1.86942 9.3226 2.1894 9.43389 2.43317 9.6509L2.63265 9.42682C2.32945 9.15691 1.93145 9.0185 1.52621 9.04203L1.5436 9.34153ZM0.695817 9.75179C0.912826 9.50802 1.21778 9.36045 1.5436 9.34153L1.52621 9.04203C1.12096 9.06556 0.741656 9.24912 0.471744 9.55231L0.695817 9.75179ZM0.386447 10.6414C0.367526 10.3155 0.478809 9.99556 0.695818 9.75179L0.471744 9.55231C0.201831 9.85551 0.0634173 10.2535 0.0869516 10.6588L0.386447 10.6414ZM0.796712 11.4891C0.552945 11.2721 0.405368 10.9672 0.386447 10.6414L0.0869516 10.6588C0.110486 11.064 0.29404 11.4433 0.597235 11.7132L0.796712 11.4891ZM3.17096 13.6011L0.796669 11.4891L0.597279 11.7133L2.97157 13.8253L3.17096 13.6011ZM3.58502 13.8444C3.43239 13.7913 3.29171 13.7086 3.17102 13.6012L2.97152 13.8252C3.12163 13.9589 3.29661 14.0617 3.48646 14.1277L3.58502 13.8444ZM4.06058 13.9106C3.89925 13.92 3.73765 13.8975 3.58502 13.8444L3.48646 14.1277C3.67631 14.1938 3.87731 14.2217 4.07798 14.2101L4.06058 13.9106ZM4.52528 13.7898C4.37982 13.8602 4.22191 13.9012 4.06058 13.9106L4.07798 14.2101C4.27864 14.1984 4.47505 14.1474 4.65598 14.0598L4.52528 13.7898ZM4.90835 13.5003C4.80091 13.621 4.67074 13.7194 4.52528 13.7898L4.65598 14.0598C4.83691 13.9722 4.99881 13.8499 5.13245 13.6997L4.90835 13.5003ZM4.92548 13.4806L4.90738 13.5014L5.13341 13.6986L5.15151 13.6779L4.92548 13.4806ZM7.48883 11.554L4.9485 13.4593L5.1285 13.6993L7.66883 11.794L7.48883 11.554ZM7.96862 10.7437C7.92247 11.0667 7.74988 11.3582 7.48883 11.554L7.66883 11.794C7.99354 11.5505 8.2082 11.1879 8.26561 10.7861L7.96862 10.7437ZM7.73491 9.83145C7.9307 10.0925 8.01477 10.4207 7.96862 10.7437L8.26561 10.7861C8.32301 10.3843 8.21844 9.97616 7.97491 9.65145L7.73491 9.83145ZM6.92459 9.35166C7.24763 9.39781 7.53911 9.57039 7.73491 9.83145L7.97491 9.65145C7.73137 9.32674 7.36882 9.11207 6.96702 9.05467L6.92459 9.35166ZM6.01234 9.58537C6.2734 9.38958 6.60155 9.30551 6.92459 9.35166L6.96702 9.05467C6.56521 8.99727 6.15705 9.10184 5.83234 9.34537L6.01234 9.58537ZM5.54358 9.93694L6.01234 9.58537L5.83234 9.34537L5.36358 9.69694L5.54358 9.93694ZM5.65151 8.50504C5.50195 8.9246 5.38665 9.3542 5.30609 9.78965L5.60108 9.84423C5.67875 9.42442 5.78991 9.01026 5.93409 8.60577L5.65151 8.50504ZM14.4311 6.03653C14.1441 5.74952 13.7548 5.58828 13.3489 5.58828V5.88828C13.6752 5.88828 13.9882 6.01791 14.2189 6.24866L14.4311 6.03653ZM14.8793 7.11868C14.8793 6.7128 14.7181 6.32353 14.4311 6.03653L14.2189 6.24866C14.4497 6.4794 14.5793 6.79236 14.5793 7.11868H14.8793ZM14.8793 10.5703V7.11868H14.5793V10.5703H14.8793ZM14.7293 10.7203H17.4825V10.4203H14.7293V10.7203ZM17.4825 10.7203C17.8089 10.7203 18.1218 10.8499 18.3526 11.0807L18.5647 10.8686C18.2777 10.5816 17.8884 10.4203 17.4825 10.4203V10.7203ZM18.3526 11.0807C18.5833 11.3114 18.713 11.6244 18.713 11.9507H19.013C19.013 11.5448 18.8517 11.1556 18.5647 10.8686L18.3526 11.0807ZM18.713 11.9507C18.713 12.277 18.5833 12.59 18.3526 12.8207L18.5647 13.0329C18.8517 12.7459 19.013 12.3566 19.013 11.9507H18.713ZM18.3526 12.8207C18.1218 13.0515 17.8089 13.1811 17.4825 13.1811V13.4811C17.8884 13.4811 18.2777 13.3199 18.5647 13.0329L18.3526 12.8207ZM17.4825 13.1811H13.3413V13.4811H17.4825V13.1811ZM13.3413 13.1811C13.015 13.1811 12.7021 13.0515 12.4713 12.8207L12.2592 13.0329C12.5462 13.3199 12.9355 13.4811 13.3413 13.4811V13.1811ZM12.4713 12.8207C12.2406 12.59 12.1109 12.277 12.1109 11.9507H11.8109C11.8109 12.3566 11.9722 12.7459 12.2592 13.0329L12.4713 12.8207ZM12.1109 11.9507C12.1109 11.9075 12.1132 11.8646 12.1177 11.822L11.8193 11.7906C11.8138 11.8436 11.8109 11.897 11.8109 11.9507H12.1109ZM11.8185 7.11868V11.8063H12.1185V7.11868H11.8185ZM12.2668 6.03653C11.9797 6.32353 11.8185 6.7128 11.8185 7.11868H12.1185C12.1185 6.79236 12.2481 6.4794 12.4789 6.24866L12.2668 6.03653ZM13.3489 5.58828C12.943 5.58828 12.5538 5.74952 12.2668 6.03653L12.4789 6.24866C12.7096 6.01791 13.0226 5.88828 13.3489 5.88828V5.58828Z"
          fill="white"/>
</svg>
