<svg width="13" height="13" viewBox="0 0 13 13" fill="none" xmlns="http://www.w3.org/2000/svg">
<path fill-rule="evenodd" clip-rule="evenodd" d="M4.4967 0.0137849C4.22562 0.0604887 3.88546 0.248105 3.71824 0.443173C3.61184 0.567282 3.57195 0.645225 3.25666 1.34502L2.94305 2.04108L1.57106 2.04433L0.199049 2.04758L0.141649 2.07748C0.0783675 2.11044 0.0324959 2.16524 0.0126804 2.23155C-0.00454885 2.28921 -0.00408575 2.83607 0.0132464 2.89407C0.0308102 2.95287 0.095468 3.02047 0.160332 3.04786C0.207014 3.06757 0.254391 3.06966 0.65886 3.0699L1.10582 3.07016L1.10971 7.01995L1.1136 10.9697L1.1411 11.0834C1.19276 11.2968 1.26902 11.4861 1.36009 11.6268C1.57866 11.9647 1.85918 12.1783 2.19908 12.2657L2.32214 12.2973H6.06651H9.81087L9.93411 12.2656C10.1482 12.2106 10.311 12.1205 10.4807 11.9629C10.7714 11.6932 10.9616 11.3252 11.0127 10.9339C11.0226 10.8581 11.0268 9.67683 11.0268 6.94819L11.0268 3.07016H11.4688C11.7734 3.07016 11.9244 3.0658 11.9546 3.05614C12.0241 3.03385 12.0668 2.99827 12.1013 2.93395C12.133 2.87484 12.1334 2.87035 12.1333 2.56849C12.1333 2.39516 12.1275 2.24361 12.12 2.21838C12.1027 2.16057 12.0533 2.10693 11.987 2.07397L11.934 2.04758L10.5635 2.04433L9.19305 2.04108L9.01412 1.64367C8.49736 0.495892 8.51392 0.527216 8.33917 0.36688C8.1717 0.21323 7.94004 0.0862147 7.72249 0.0288067L7.62344 0.00266215L6.10511 0.000461534C4.9075 -0.00126071 4.56774 0.00154987 4.4967 0.0137849ZM7.49863 1.04181C7.51774 1.05105 7.54565 1.07123 7.56066 1.08666C7.58239 1.109 7.99016 2.00911 7.99016 2.03476C7.99016 2.03852 7.1239 2.0416 6.06513 2.0416C4.53019 2.0416 4.14143 2.03858 4.14668 2.02665C4.30234 1.6724 4.5627 1.10881 4.57841 1.09206C4.59008 1.07961 4.61701 1.05945 4.63824 1.04726C4.6752 1.02603 4.73619 1.02509 6.07037 1.02505C7.24216 1.02501 7.46941 1.02768 7.49863 1.04181ZM9.93289 6.86447C9.93275 9.18362 9.9279 10.7006 9.92041 10.7664C9.89998 10.9458 9.82235 11.1243 9.7228 11.2209L9.66731 11.2747H6.06639H2.46548L2.41151 11.2208C2.35526 11.1647 2.28393 11.0406 2.24305 10.9279C2.22005 10.8644 2.21909 10.723 2.21587 6.96613L2.21254 3.07016H6.07282H9.93311L9.93289 6.86447ZM3.47376 4.63177C3.44899 4.64187 3.40975 4.6672 3.38656 4.68806C3.30134 4.76467 3.30649 4.60513 3.30649 7.17244C3.30649 9.77048 3.29978 9.58341 3.39584 9.66406C3.47415 9.72982 3.50472 9.73385 3.89408 9.72967L4.24364 9.7259L4.29825 9.69002C4.3283 9.67028 4.36497 9.63261 4.37975 9.6063L4.40663 9.55846V7.17244V4.78642L4.37975 4.73858C4.36497 4.71227 4.3283 4.67459 4.29825 4.65486L4.24363 4.61898L3.88121 4.61618C3.5786 4.61385 3.51136 4.61642 3.47376 4.63177ZM5.66087 4.63991C5.6274 4.65564 5.58752 4.68836 5.56485 4.71868L5.52608 4.77054V7.17244V9.57434L5.56485 9.6262C5.58752 9.65652 5.6274 9.68924 5.66087 9.70497C5.71599 9.73089 5.73086 9.73188 6.06321 9.73188C6.3456 9.73188 6.41697 9.72852 6.45597 9.71336C6.51664 9.6898 6.55793 9.65391 6.58888 9.59781C6.61271 9.55463 6.61336 9.48932 6.61336 7.17244C6.61336 4.85556 6.61271 4.79025 6.58888 4.74707C6.55793 4.69097 6.51664 4.65508 6.45597 4.63151C6.41697 4.61636 6.3456 4.613 6.06321 4.613C5.73086 4.613 5.71599 4.61399 5.66087 4.63991ZM7.87307 4.63681C7.81101 4.6673 7.75011 4.73378 7.73359 4.78909C7.71472 4.85222 7.71472 9.49265 7.73359 9.55579C7.75048 9.61236 7.81188 9.67833 7.87583 9.70866C7.92078 9.72996 7.95376 9.73188 8.27714 9.73188C8.62118 9.73188 8.6308 9.73122 8.68618 9.70403C8.72342 9.68576 8.75614 9.65631 8.78149 9.61827L8.82009 9.56033V7.17244V4.78454L8.78149 4.72661C8.75614 4.68856 8.72342 4.65912 8.68618 4.64084C8.63069 4.6136 8.62185 4.61301 8.27443 4.61353C7.95091 4.61401 7.91527 4.61607 7.87307 4.63681Z" fill="white"/>
</svg>
