<svg width="36" height="36" viewBox="0 0 36 36" fill="none" xmlns="http://www.w3.org/2000/svg">
<circle cx="18" cy="18" r="18" fill="#5E97FF"/>
<path d="M22.4857 16.422C24.0492 16.422 25.6126 16.423 27.1761 16.421C27.3723 16.421 27.5569 16.4694 27.739 16.5329C27.8492 16.5712 27.9091 16.6468 27.9241 16.7738C28.2069 19.1132 27.7008 21.2626 26.3808 23.216C26.3355 23.2825 26.3411 23.3178 26.3964 23.3712C26.6041 23.5728 26.8074 23.7789 27.0111 23.9845C27.3492 24.3252 27.3492 24.6916 27.0126 25.0287C26.5946 25.4475 26.1771 25.8663 25.759 26.2846C25.4748 26.5688 25.0829 26.5699 24.7972 26.2861C24.5769 26.0674 24.3565 25.8487 24.1402 25.6259C24.0859 25.57 24.0507 25.5655 23.9843 25.6113C22.9239 26.337 21.7643 26.8254 20.5002 27.0587C20.4081 27.0758 20.3694 27.1056 20.3724 27.2099C20.3815 27.5163 20.3769 27.8227 20.3754 28.1296C20.3734 28.5207 20.1013 28.7964 19.7129 28.7979C19.0926 28.7999 18.4724 28.7994 17.8516 28.7979C17.4909 28.7969 17.2163 28.5504 17.1977 28.1876C17.1806 27.861 17.1866 27.5329 17.1916 27.2054C17.1931 27.1096 17.1609 27.0763 17.0714 27.0597C15.8123 26.8259 14.6553 26.3411 13.5973 25.6194C13.5234 25.569 13.4842 25.5695 13.4213 25.635C13.2155 25.8502 13.0033 26.0593 12.7915 26.269C12.4831 26.5744 12.0978 26.5754 11.7909 26.27C11.3714 25.8527 10.9538 25.4339 10.5373 25.0141C10.2264 24.7006 10.2284 24.3176 10.5403 24.0037C10.7441 23.798 10.9463 23.5904 11.1556 23.3908C11.226 23.3233 11.2345 23.2805 11.1762 23.1963C10.6797 22.4792 10.2989 21.7041 10.0272 20.8745C9.90297 20.4961 9.80035 20.112 9.73193 19.7194C9.71684 19.6323 9.69018 19.5929 9.59058 19.5955C9.28875 19.6035 8.98692 19.599 8.68509 19.598C8.29623 19.5965 8.01 19.3294 8.00547 18.9418C7.99793 18.3204 7.99843 17.6985 8.00547 17.0771C8.0095 16.6825 8.2907 16.4104 8.6861 16.4038C8.97937 16.3993 9.27315 16.3983 9.56643 16.4054C9.66804 16.4079 9.71131 16.3827 9.72992 16.2768C9.85216 15.5723 10.0685 14.896 10.3577 14.2423C10.5771 13.7464 10.8346 13.2727 11.1435 12.8277C11.2119 12.7294 11.2184 12.669 11.1229 12.5813C10.9161 12.3913 10.7224 12.1867 10.5247 11.9871C10.233 11.6923 10.234 11.2987 10.5278 11.0039C10.9508 10.5785 11.3749 10.1542 11.7995 9.72982C12.0907 9.43904 12.4735 9.43349 12.7724 9.72025C12.9872 9.92687 13.1974 10.138 13.4027 10.3537C13.4656 10.4198 13.5048 10.4187 13.5777 10.3689C14.5461 9.70059 15.6055 9.23896 16.7525 8.97791C16.8586 8.95372 16.9648 8.92801 17.0719 8.91491C17.1665 8.90332 17.1936 8.86149 17.1926 8.76775C17.1886 8.44874 17.1811 8.12872 17.2007 7.81072C17.2223 7.46097 17.4889 7.20949 17.8365 7.20546C18.4734 7.19739 19.1108 7.19689 19.7481 7.20546C20.1028 7.2105 20.3729 7.50179 20.3764 7.86061C20.3794 8.16702 20.3799 8.47394 20.3754 8.78035C20.3744 8.863 20.3991 8.89677 20.4826 8.91189C21.7643 9.14623 22.9389 9.64163 24.0114 10.3804C24.0748 10.4243 24.1055 10.4187 24.1558 10.3673C24.3606 10.1567 24.5688 9.95006 24.7771 9.74293C25.092 9.42996 25.4708 9.43097 25.7857 9.74494C26.2042 10.1632 26.6223 10.5815 27.0393 11.0008C27.3396 11.3027 27.3416 11.6887 27.0433 11.9936C26.8376 12.2033 26.6318 12.4129 26.4195 12.6155C26.3526 12.6795 26.3556 12.7214 26.4054 12.7934C26.741 13.2762 27.0187 13.7918 27.2556 14.33C27.3019 14.4349 27.2797 14.453 27.1731 14.4525C25.9995 14.4495 24.8259 14.4495 23.6523 14.4525C23.5667 14.4525 23.5154 14.4238 23.4641 14.3588C22.5315 13.1805 21.3297 12.4265 19.8507 12.1761C17.8934 11.8445 16.1639 12.362 14.7136 13.7288C13.699 14.6853 13.0988 15.8752 12.9374 17.2601C12.7155 19.1626 13.2794 20.8186 14.6195 22.1879C15.5462 23.1343 16.6825 23.7018 17.9945 23.8721C19.7431 24.0994 21.3086 23.6438 22.6532 22.4953C23.5164 21.7585 24.1241 20.8403 24.4566 19.7472C24.4895 19.639 24.4516 19.5849 24.343 19.5849C22.1632 19.5849 19.9835 19.5844 17.8038 19.5859C17.585 19.5859 17.3893 19.54 17.2359 19.3717C17.1142 19.2382 17.0593 19.0804 17.0593 18.901C17.0598 18.3048 17.0588 17.7086 17.0598 17.1119C17.0608 16.7047 17.341 16.422 17.7465 16.422C19.3266 16.421 20.9056 16.422 22.4857 16.422Z" fill="white"/>
</svg>
