<svg width="46" height="46" viewBox="0 0 46 46" fill="none" xmlns="http://www.w3.org/2000/svg">
<path fill-rule="evenodd" clip-rule="evenodd" d="M23 0C10.2975 0 0 10.2975 0 23C0 35.7025 10.2975 46 23 46C35.7025 46 46 35.7025 46 23C46 10.2975 35.7025 0 23 0ZM22.0757 13.5213L22.3365 13.2606C22.4937 13.1035 22.6913 13 22.834 13C22.9768 13 23.1744 13.1035 23.3315 13.2606L23.5923 13.5213V17.9044V22.2875L23.3315 22.5481C22.9932 22.8864 22.6749 22.8864 22.3365 22.5481L22.0757 22.2875V17.9044V13.5213ZM14.2062 22.1602C14.5812 20.6558 15.3247 19.2468 16.2641 18.26C16.6765 17.8268 16.8257 17.7261 17.055 17.7261C17.6803 17.7261 18.0394 18.4485 17.6512 18.9256C17.5578 19.0403 17.2885 19.3692 17.0526 19.6562C16.5526 20.2652 15.9096 21.5353 15.6827 22.3629C15.4341 23.2691 15.4564 25.2175 15.726 26.1527C16.4394 28.6271 18.3984 30.5805 20.8893 31.3011C21.8033 31.5655 23.7598 31.5828 24.6628 31.3344C27.9197 30.4389 30.1979 27.5064 30.1928 24.217C30.1902 22.6083 29.572 20.8211 28.6154 19.6562C28.3796 19.3692 28.1097 19.0397 28.0157 18.9241C27.7627 18.6129 27.7936 18.1876 28.0876 17.9349C28.6091 17.4865 29.0608 17.7257 29.9461 18.9192C30.6073 19.8106 31.1284 20.8996 31.4183 21.9956C31.6123 22.7294 31.6453 23.0467 31.647 24.1909C31.6486 25.3444 31.6177 25.6452 31.4226 26.3766C30.5752 29.5528 28.2001 31.9351 25.0529 32.7656C24.2939 32.9659 23.9872 32.9982 22.834 32.9999C21.6801 33.0015 21.3791 32.9707 20.6474 32.7757C19.0196 32.3418 17.75 31.6139 16.5788 30.4433C15.4068 29.2719 14.6778 28.0009 14.2464 26.3766C13.9342 25.2013 13.9163 23.3231 14.2062 22.1602Z" fill="#201F28" fill-opacity="0.8"/>
</svg>
